<svg viewBox="145.35000000000002 97.85139860139861 678.3000000000001 495.2972027972027" fill="none" xmlns="http://www.w3.org/2000/svg" xmlns:xlink="http://www.w3.org/1999/xlink" overflow="visible" width="678.3000000000001px" height="495.2972027972027px"><g id="Master/Scenes/Choosing Product"><g id="Device" transform="translate(283.066 10.0001) scale(1 1)"><g id="Device/Phone"><g id="Phone"><path id="Fill 3" fill-rule="evenodd" clip-rule="evenodd" d="M304.088 525.905H108.162C98.4075 525.905 90.5005 517.998 90.5005 508.243V479.795H321.751V508.243C321.751 517.998 313.843 525.905 304.088 525.905" fill="black"/><path id="Fill 9" fill-rule="evenodd" clip-rule="evenodd" d="M206.126 488.679C199.034 488.679 193.265 494.449 193.265 501.54C193.265 508.633 199.034 514.403 206.126 514.403C213.218 514.403 218.988 508.633 218.988 501.54C218.988 494.449 213.218 488.679 206.126 488.679M206.126 515.403C198.483 515.403 192.265 509.184 192.265 501.54C192.265 493.897 198.483 487.679 206.126 487.679C213.77 487.679 219.988 493.897 219.988 501.54C219.988 509.184 213.77 515.403 206.126 515.403" fill="white"/><path id="Fill 1" fill-rule="evenodd" clip-rule="evenodd" d="M110.479 96C100.348 96 92.106 104.242 92.106 114.373L91 507.033C91 517.163 99.242 525.405 109.373 525.405H302.878C313.009 525.405 321.251 517.163 321.251 507.032L322.357 114.372C322.357 104.242 314.115 96 303.984 96H110.479ZM302.878 526.405H109.373C98.691 526.405 90 517.715 90 507.032L91.106 114.372C91.106 103.691 99.797 95 110.479 95H303.984C314.666 95 323.357 103.691 323.357 114.373L322.251 507.033C322.251 517.715 313.56 526.405 302.878 526.405V526.405Z" fill="black"/></g></g></g><g id="Store Option" transform="translate(380.856 224.803) scale(1 1)"><g id="Store Option/Heels"><g id="Heels"><g id="Group 8"><path id="Heels_2" fill-rule="evenodd" clip-rule="evenodd" d="M72.499 88.9414H85.616V83.4024L90.017 88.9414H146.825L146.638 88.4194C144.24 81.7474 138.451 76.8724 131.469 75.6444L124.375 74.3984C120.737 73.7584 117.353 72.1094 114.606 69.6384L114.453 69.5004C111.363 75.3554 103.875 77.2324 98.39 73.5274L92.427 69.5004H72.499V88.9414Z" fill="#FF5613"/><path id="Fill 3" fill-rule="evenodd" clip-rule="evenodd" d="M124.375 74.3975C120.737 73.7585 117.353 72.1095 114.606 69.6385L114.453 69.5005C112.746 72.7355 109.694 74.7485 106.382 75.2845L106.384 75.2895C106.415 75.3285 106.446 75.3665 106.478 75.4055C111.086 81.0885 119.932 80.6245 124.183 74.6685L124.375 74.3975Z" fill="#FDEEE1"/><path id="Fill 5" fill-rule="evenodd" clip-rule="evenodd" d="M90.258 88.4414L86.008 83.0914C85.876 82.9254 85.656 82.8584 85.451 82.9304C85.251 83.0004 85.116 83.1894 85.116 83.4024V88.4414H72.999V70.0004H92.274L98.11 73.9414C100.486 75.5454 103.368 76.2074 106.184 75.8244C108.354 78.4344 111.52 79.9134 114.946 79.9134C115.069 79.9134 115.192 79.9114 115.315 79.9074C119.046 79.7934 122.427 77.9894 124.59 74.9584L124.599 74.9454L131.382 76.1364C138.119 77.3214 143.751 82.0304 146.114 88.4414H90.258ZM123.508 74.7374C121.523 77.2944 118.55 78.8074 115.283 78.9084C112.209 78.9794 109.349 77.8064 107.315 75.6084C107.357 75.5984 107.399 75.5944 107.441 75.5844C107.734 75.5104 108.019 75.4174 108.303 75.3224C108.355 75.3044 108.408 75.2924 108.46 75.2734C108.674 75.1994 108.881 75.1084 109.089 75.0214C109.251 74.9544 109.416 74.8934 109.574 74.8194C109.643 74.7874 109.706 74.7494 109.774 74.7154C111.755 73.7414 113.426 72.2264 114.585 70.2864C114.918 70.5734 115.26 70.8474 115.61 71.1114C115.729 71.2024 115.854 71.2854 115.976 71.3734C116.208 71.5404 116.441 71.7084 116.68 71.8654C116.829 71.9644 116.985 72.0544 117.137 72.1494C117.355 72.2854 117.573 72.4214 117.797 72.5484C117.961 72.6424 118.13 72.7294 118.297 72.8184C118.514 72.9334 118.731 73.0484 118.952 73.1574C119.129 73.2424 119.308 73.3224 119.487 73.4034C119.705 73.5024 119.924 73.5984 120.146 73.6894C120.33 73.7644 120.518 73.8354 120.704 73.9054C120.926 73.9884 121.149 74.0684 121.374 74.1434C121.565 74.2084 121.757 74.2674 121.949 74.3264C122.176 74.3944 122.404 74.4594 122.634 74.5194C122.829 74.5704 123.025 74.6204 123.222 74.6664C123.318 74.6884 123.411 74.7164 123.508 74.7374V74.7374ZM147.296 88.7724L147.109 88.2504C144.656 81.4264 138.696 76.4074 131.556 75.1524L124.466 73.9074C124.464 73.9064 124.463 73.9054 124.462 73.9054C120.913 73.2824 117.621 71.6774 114.942 69.2674L114.788 69.1294C114.675 69.0254 114.52 68.9824 114.366 69.0074C114.214 69.0344 114.083 69.1294 114.011 69.2664C113.826 69.6154 113.622 69.9484 113.405 70.2704C113.291 70.4384 113.163 70.5954 113.039 70.7564C112.932 70.8984 112.828 71.0424 112.715 71.1764C112.553 71.3674 112.38 71.5464 112.205 71.7244C112.116 71.8164 112.029 71.9104 111.938 71.9994C111.75 72.1764 111.553 72.3434 111.354 72.5074C111.257 72.5874 111.162 72.6684 111.063 72.7434C110.868 72.8914 110.667 73.0304 110.463 73.1664C110.336 73.2494 110.208 73.3314 110.077 73.4084C109.896 73.5174 109.71 73.6214 109.522 73.7184C109.339 73.8134 109.154 73.9024 108.965 73.9864C108.818 74.0524 108.67 74.1174 108.52 74.1774C108.258 74.2794 107.991 74.3714 107.721 74.4534C107.628 74.4814 107.536 74.5124 107.442 74.5394C107.098 74.6324 106.746 74.7114 106.389 74.7714C103.712 75.2244 100.939 74.6444 98.67 73.1134L92.707 69.0864C92.624 69.0304 92.527 69.0004 92.427 69.0004H72.499C72.223 69.0004 71.999 69.2234 71.999 69.5004V88.9414C71.999 89.2174 72.223 89.4414 72.499 89.4414H85.616C85.893 89.4414 86.116 89.2174 86.116 88.9414V84.8364L89.625 89.2524C89.72 89.3724 89.864 89.4414 90.017 89.4414H146.825C146.988 89.4414 147.141 89.3624 147.235 89.2294C147.328 89.0954 147.351 88.9254 147.296 88.7724V88.7724Z" fill="black"/></g><path id="Combined Shape" fill-rule="evenodd" clip-rule="evenodd" d="M40.7319 144.288H102.562C104.298 144.288 105.706 142.881 105.706 141.144C105.706 139.408 104.298 138 102.562 138H40.7319C38.9959 138 37.5879 139.408 37.5879 141.144C37.5879 142.881 38.9959 144.288 40.7319 144.288ZM40.7325 155.826H127.538C129.274 155.826 130.682 154.418 130.682 152.682C130.682 150.946 129.274 149.538 127.538 149.538H40.7325C38.9965 149.538 37.5885 150.946 37.5885 152.682C37.5885 154.418 38.9965 155.826 40.7325 155.826Z" fill="#EEF2F8"/><path id="Combined Shape_2" fill-rule="evenodd" clip-rule="evenodd" d="M30.7521 30.4499C30.7521 27.3299 33.2901 24.7919 36.4101 24.7919H182.861C185.981 24.7919 188.519 27.3299 188.519 30.4499V125.969H30.7521V30.4499ZM29.7521 126.479V159.085C29.7521 162.756 32.7391 165.743 36.4101 165.743H182.861C186.532 165.743 189.519 162.756 189.519 159.085V30.4499C189.519 26.7789 186.532 23.7919 182.861 23.7919H36.4101C32.7391 23.7919 29.7521 26.7789 29.7521 30.4499V126.459C29.752 126.462 29.752 126.465 29.752 126.469C29.752 126.472 29.752 126.475 29.7521 126.479ZM30.7521 126.969H188.519V159.085C188.519 162.205 185.981 164.743 182.861 164.743H36.4101C33.2901 164.743 30.7521 162.205 30.7521 159.085V126.969Z" fill="black"/></g></g></g><g id="Store Option" transform="translate(139.918 194.586) scale(1 1)"><g id="Store Option/Shoe"><g id="Shoe"><path id="Combined Shape" fill-rule="evenodd" clip-rule="evenodd" d="M40.9799 144.506H102.81C104.546 144.506 105.954 143.098 105.954 141.362C105.954 139.626 104.546 138.218 102.81 138.218H40.9799C39.2439 138.218 37.8359 139.626 37.8359 141.362C37.8359 143.098 39.2439 144.506 40.9799 144.506ZM40.98 156.043H127.786C129.522 156.043 130.93 154.636 130.93 152.899C130.93 151.163 129.522 149.755 127.786 149.755H40.98C39.244 149.755 37.836 151.163 37.836 152.899C37.836 154.636 39.244 156.043 40.98 156.043Z" fill="#EEF2F8"/><path id="Combined Shape_2" fill-rule="evenodd" clip-rule="evenodd" d="M31.0001 30.6672C31.0001 27.5472 33.5381 25.0092 36.6581 25.0092H183.109C186.229 25.0092 188.767 27.5472 188.767 30.6672V126.186H31.0001V30.6672ZM30.0001 126.696V159.302C30.0001 162.973 32.9871 165.96 36.6581 165.96H183.109C186.78 165.96 189.767 162.973 189.767 159.302V30.6672C189.767 26.9962 186.78 24.0092 183.109 24.0092H36.6581C32.9871 24.0092 30.0001 26.9962 30.0001 30.6672V126.675C30 126.679 30 126.682 30 126.686C30 126.689 30 126.692 30.0001 126.696ZM31.0001 127.186H188.767V159.302C188.767 162.422 186.229 164.96 183.109 164.96H36.6581C33.5381 164.96 31.0001 162.422 31.0001 159.302V127.186Z" fill="black"/><path id="Shoe_2" fill-rule="evenodd" clip-rule="evenodd" d="M58.7178 102.624H163.876L163.61 101.885C160.218 92.4454 152.028 85.5474 142.149 83.8114L132.113 82.0474C126.966 81.1434 122.176 78.8094 118.292 75.3134L118.074 75.1184H58.7178V102.624Z" fill="#FF5613"/><path id="Fill 29" fill-rule="evenodd" clip-rule="evenodd" d="M59.2178 102.124H163.165L163.139 102.054C159.817 92.8064 151.74 86.0044 142.062 84.3044L132.026 82.5404C126.781 81.6184 121.916 79.2484 117.958 75.6854L117.883 75.6184H59.2178V102.124ZM163.876 103.124H58.7178C58.4418 103.124 58.2178 102.9 58.2178 102.624V75.1184C58.2178 74.8414 58.4418 74.6184 58.7178 74.6184H118.074C118.198 74.6184 118.317 74.6644 118.409 74.7464L118.627 74.9424C122.446 78.3784 127.139 80.6664 132.199 81.5554L142.235 83.3184C152.266 85.0824 160.637 92.1314 164.081 101.716L164.346 102.455C164.401 102.608 164.378 102.778 164.285 102.912C164.191 103.045 164.038 103.124 163.876 103.124V103.124Z" fill="black"/><path id="Fill 31" fill-rule="evenodd" clip-rule="evenodd" d="M58.7178 96.3822H160.905C161.99 98.0942 162.908 99.9312 163.611 101.885L163.876 102.624H58.7178V96.3822Z" fill="#EEF2F8"/><path id="Fill 33" fill-rule="evenodd" clip-rule="evenodd" d="M59.2178 102.124H163.165L163.14 102.054C162.502 100.279 161.658 98.5414 160.629 96.8824H59.2178V102.124ZM163.876 103.124H58.7178C58.4418 103.124 58.2178 102.9 58.2178 102.624V96.3824C58.2178 96.1054 58.4418 95.8824 58.7178 95.8824H160.905C161.076 95.8824 161.236 95.9704 161.327 96.1144C162.462 97.9044 163.389 99.7894 164.081 101.716L164.346 102.455C164.401 102.608 164.378 102.779 164.284 102.912C164.191 103.045 164.038 103.124 163.876 103.124V103.124Z" fill="black"/></g></g></g><g id="Store Option" transform="translate(624.051 195.261) scale(1 1)"><g id="Store Option/Purse"><g id="Purse"><path id="Combined Shape" fill-rule="evenodd" clip-rule="evenodd" d="M40.9799 144.497H102.81C104.546 144.497 105.954 143.09 105.954 141.353C105.954 139.617 104.546 138.209 102.81 138.209H40.9799C39.2439 138.209 37.8359 139.617 37.8359 141.353C37.8359 143.09 39.2439 144.497 40.9799 144.497ZM40.9805 156.034H127.787C129.523 156.034 130.931 154.626 130.931 152.89C130.931 151.154 129.523 149.746 127.787 149.746H40.9805C39.2445 149.746 37.8365 151.154 37.8365 152.89C37.8365 154.626 39.2445 156.034 40.9805 156.034Z" fill="#EEF2F8"/><path id="Combined Shape_2" fill-rule="evenodd" clip-rule="evenodd" d="M31.0001 30.658C31.0001 27.538 33.5381 25 36.6581 25H183.109C186.229 25 188.767 27.538 188.767 30.658V126.177H31.0001V30.658ZM30.0001 126.687V159.293C30.0001 162.964 32.9871 165.951 36.6581 165.951H183.109C186.78 165.951 189.767 162.964 189.767 159.293V30.658C189.767 26.987 186.78 24 183.109 24H36.6581C32.9871 24 30.0001 26.987 30.0001 30.658V126.667C30 126.67 30 126.673 30 126.677C30 126.68 30 126.684 30.0001 126.687ZM31.0001 127.177H188.767V159.293C188.767 162.413 186.229 164.951 183.109 164.951H36.6581C33.5381 164.951 31.0001 162.413 31.0001 159.293V127.177Z" fill="black"/><path id="Purse_2" fill-rule="evenodd" clip-rule="evenodd" d="M132.11 77.4566H87.6586C83.8546 77.4566 80.5716 80.1256 79.7956 83.8496L74.4686 109.409C73.4296 114.397 77.2366 119.08 82.3316 119.08H137.437C142.532 119.08 146.339 114.397 145.3 109.409L139.973 83.8496C139.197 80.1256 135.914 77.4566 132.11 77.4566" fill="#FFBA00"/><path id="Combined Shape_3" fill-rule="evenodd" clip-rule="evenodd" d="M125.694 84.148C125.694 84.424 125.918 84.648 126.194 84.648C126.47 84.648 126.694 84.424 126.694 84.148V77.9566H132.11C135.659 77.9566 138.759 80.4776 139.483 83.9516L144.81 109.511C145.275 111.74 144.717 114.032 143.281 115.799C141.844 117.566 139.714 118.58 137.436 118.58H82.3315C80.0545 118.58 77.9245 117.566 76.4875 115.799C75.0515 114.032 74.4935 111.74 74.9575 109.511L80.2845 83.9516C81.0095 80.4776 84.1105 77.9566 87.6585 77.9566H93.0731V84.148C93.0731 84.424 93.2971 84.648 93.5731 84.648C93.8491 84.648 94.0731 84.424 94.0731 84.148V77.9566H125.694V84.148ZM126.694 76.9566V72.003C126.694 64.127 120.286 57.718 112.409 57.718H107.358C99.4811 57.718 93.0731 64.127 93.0731 72.003V76.9566H87.6585C83.6385 76.9566 80.1265 79.8126 79.3055 83.7476L73.9795 109.307C73.4525 111.832 74.0845 114.429 75.7115 116.43C77.3395 118.432 79.7515 119.58 82.3315 119.58H137.436C140.016 119.58 142.429 118.432 144.056 116.43C145.684 114.429 146.315 111.832 145.789 109.307L140.462 83.7476C139.642 79.8126 136.13 76.9566 132.11 76.9566H126.694ZM94.0731 76.9566H125.694V72.003C125.694 64.678 119.735 58.718 112.409 58.718H107.358C100.032 58.718 94.0731 64.678 94.0731 72.003V76.9566Z" fill="black"/></g></g></g><g id="Package" transform="translate(216.528 442.198) scale(1 1)"><g id="Package/Box"><g id="Box"><path id="Box_2" fill-rule="evenodd" clip-rule="evenodd" d="M38 146H127V81H38V146Z" fill="#FCBD21"/><path id="Fill 172" fill-rule="evenodd" clip-rule="evenodd" d="M38.6705 145.332H126.33V81.6684H38.6705V145.332ZM126.665 146H38.3352C38.1495 146 38 145.85 38 145.666V81.3339C38 81.1496 38.1495 81 38.3352 81H126.665C126.85 81 127 81.1496 127 81.3339V145.666C127 145.85 126.85 146 126.665 146V146Z" fill="black"/><path id="Fill 173" fill-rule="evenodd" clip-rule="evenodd" d="M60.3301 145.538H105.715V136.382H60.3301V145.538Z" fill="#EEF2F8"/><path id="Fill 174" fill-rule="evenodd" clip-rule="evenodd" d="M60.6694 145.325H105.331V136.674H60.6694V145.325ZM105.665 146H60.3347C60.1499 146 60 145.849 60 145.662V136.338C60 136.151 60.1499 136 60.3347 136H105.665C105.85 136 106 136.151 106 136.338V145.662C106 145.849 105.85 146 105.665 146V146Z" fill="black"/><path id="Box_3" fill-rule="evenodd" clip-rule="evenodd" d="M112.363 145.743L200.631 145.523V102.398L112.363 102.219V145.743Z" fill="#FCBD21"/><path id="Fill 176" fill-rule="evenodd" clip-rule="evenodd" d="M112.67 145.323H200.33V102.677H112.67V145.323ZM200.665 146H112.335C112.15 146 112 145.848 112 145.662V102.338C112 102.152 112.15 102 112.335 102H200.665C200.85 102 201 102.152 201 102.338V145.662C201 145.848 200.85 146 200.665 146V146Z" fill="black"/><path id="Fill 177" fill-rule="evenodd" clip-rule="evenodd" d="M133.465 145.635H178.686V136.413H133.465V145.635Z" fill="#EEF2F8"/><path id="Fill 178" fill-rule="evenodd" clip-rule="evenodd" d="M133.669 145.325H178.331V136.674H133.669V145.325ZM178.665 146H133.335C133.149 146 133 145.849 133 145.662V136.338C133 136.151 133.149 136 133.335 136H178.665C178.85 136 179 136.151 179 136.338V145.662C179 145.849 178.85 146 178.665 146V146Z" fill="black"/><path id="Fill 179" fill-rule="evenodd" clip-rule="evenodd" d="M133.382 111.669H178.656L179.001 102L133.382 102.219V111.669Z" fill="#EEF2F8"/><path id="Fill 180" fill-rule="evenodd" clip-rule="evenodd" d="M133.669 111.325H178.331V102.676H133.669V111.325ZM178.665 112H133.335C133.149 112 133 111.849 133 111.662V102.338C133 102.151 133.149 102 133.335 102H178.665C178.85 102 179 102.151 179 102.338V111.662C179 111.849 178.85 112 178.665 112V112Z" fill="black"/><g id="Group"><path id="Box_4" fill-rule="evenodd" clip-rule="evenodd" d="M27.4004 63L37.8265 82.3319H127.087L136.95 63.2744L27.4004 63Z" fill="#FCBD21"/><path id="Fill 182" fill-rule="evenodd" clip-rule="evenodd" d="M38.1559 82.3319H126.645L136.506 63.6681H28.2951L38.1559 82.3319ZM126.849 83H37.9514C37.8259 83 37.7105 82.9305 37.6525 82.8209L27.4388 63.4891C27.3841 63.3855 27.3882 63.2612 27.4489 63.1617C27.5103 63.0615 27.6196 63 27.7377 63H137.063C137.181 63 137.291 63.0615 137.351 63.1617C137.413 63.2612 137.417 63.3855 137.362 63.4891L127.148 82.8209C127.09 82.9305 126.975 83 126.849 83V83Z" fill="black"/></g></g></g></g><g id="Plant" transform="matrix(-1 0 0 1 333 219.679) scale(1 1)"><g id="Plant/Big Leaves"><g id="Big Leaves"><path id="Leaves" fill-rule="evenodd" clip-rule="evenodd" d="M130.586 328.98C130.581 329.09 130.577 329.2 130.572 329.309C130.577 329.2 130.581 329.09 130.586 328.98V328.98ZM130.626 327.519C130.624 327.647 130.621 327.775 130.619 327.903C130.621 327.776 130.624 327.647 130.626 327.519V327.519ZM130.504 330.506C130.5 330.566 130.498 330.626 130.493 330.685C130.498 330.626 130.5 330.566 130.504 330.506V330.506ZM109.823 289.46C109.588 289.317 109.353 289.172 109.113 289.03C109.353 289.172 109.588 289.317 109.823 289.46V289.46ZM111.656 290.628C111.425 290.475 111.193 290.323 110.959 290.17C111.193 290.323 111.425 290.475 111.656 290.628V290.628ZM113.367 291.821C113.154 291.666 112.936 291.512 112.718 291.359C112.936 291.512 113.154 291.666 113.367 291.821V291.821ZM114.97 293.039C114.792 292.897 114.605 292.757 114.423 292.617C114.605 292.757 114.792 292.897 114.97 293.039V293.039ZM116.473 294.285C116.395 294.217 116.311 294.151 116.232 294.084C116.311 294.151 116.395 294.217 116.473 294.285V294.285ZM118.278 295.952C118.144 295.822 118.017 295.69 117.881 295.562C118.017 295.69 118.144 295.822 118.278 295.952V295.952ZM107.811 288.29C107.597 288.171 107.39 288.051 107.174 287.934C107.39 288.051 107.597 288.171 107.811 288.29V288.29ZM120.905 298.746C120.753 298.567 120.598 298.389 120.441 298.211C120.598 298.389 120.753 298.567 120.905 298.746V298.746ZM122.034 300.124C121.894 299.944 121.751 299.766 121.607 299.588C121.751 299.766 121.894 299.944 122.034 300.124V300.124ZM123.074 301.513C122.955 301.346 122.83 301.181 122.708 301.015C122.83 301.181 122.955 301.346 123.074 301.513V301.513ZM124.031 302.915C123.961 302.807 123.884 302.701 123.814 302.593C123.884 302.701 123.961 302.807 124.031 302.915V302.915ZM125.104 304.677C125.039 304.565 124.978 304.452 124.913 304.339C124.978 304.452 125.039 304.565 125.104 304.677V304.677ZM125.981 306.289C125.894 306.119 125.808 305.948 125.718 305.779C125.808 305.948 125.894 306.119 125.981 306.289V306.289ZM126.716 307.792C126.631 307.606 126.545 307.421 126.456 307.237C126.545 307.421 126.631 307.606 126.716 307.792V307.792ZM127.365 309.273C127.288 309.087 127.209 308.902 127.129 308.716C127.209 308.902 127.288 309.087 127.365 309.273V309.273ZM127.941 310.748C127.879 310.578 127.812 310.407 127.747 310.237C127.812 310.407 127.879 310.577 127.941 310.748V310.748ZM128.454 312.223C128.416 312.104 128.372 311.985 128.332 311.865C128.372 311.985 128.416 312.104 128.454 312.223V312.223ZM128.947 313.861C128.934 313.816 128.924 313.77 128.911 313.725C128.924 313.77 128.934 313.816 128.947 313.861V313.861ZM129.404 315.655C129.37 315.507 129.338 315.359 129.301 315.21C129.338 315.359 129.37 315.507 129.404 315.655V315.655ZM129.739 317.21C129.706 317.042 129.674 316.874 129.638 316.705C129.674 316.874 129.706 317.042 129.739 317.21V317.21ZM130.008 318.715C129.981 318.546 129.953 318.377 129.924 318.209C129.953 318.377 129.981 318.546 130.008 318.715V318.715ZM130.224 320.196C130.205 320.044 130.182 319.892 130.162 319.741C130.182 319.892 130.205 320.044 130.224 320.196V320.196ZM130.391 321.663C130.382 321.56 130.369 321.458 130.358 321.356C130.369 321.458 130.382 321.56 130.391 321.663V321.663ZM130.601 324.899C130.597 324.808 130.596 324.718 130.592 324.627C130.596 324.718 130.597 324.808 130.601 324.899V324.899ZM119.674 297.372C119.517 297.205 119.363 297.037 119.202 296.872C119.363 297.037 119.516 297.205 119.674 297.372V297.372ZM130.631 326.451C130.63 326.325 130.63 326.199 130.629 326.072C130.63 326.199 130.63 326.325 130.631 326.451V326.451ZM180.423 256.357C180.359 249.907 173.386 245.845 167.809 249.085C157.198 255.251 150.36 263.618 146.116 272.861C146.117 272.86 146.117 272.858 146.117 272.857C146.631 233.379 137.679 185.236 99.5641 151.308C90.2581 143.024 75.5281 149.055 74.7761 161.492C73.2851 186.146 76.9921 228.495 104.599 286.663C104.779 286.73 104.959 286.795 105.134 286.882C101.086 284.893 96.3871 287.938 96.6451 292.443C97.3241 304.297 102.048 326.668 125.314 352.129C125.314 352.129 129 344.186 130.235 333.476C132.056 336.422 133.929 339.396 135.867 342.404C135.867 342.404 138.557 333.963 141.185 320.307C143.265 335.113 147.35 345.966 147.35 345.966C176.826 313.71 180.613 275.678 180.423 256.357V256.357Z" fill="#409B81"/><path id="Fill 3" fill-rule="evenodd" clip-rule="evenodd" d="M140.558 307.664C139.906 288.808 144.148 263.412 168.06 249.518C169.287 248.806 170.637 248.449 171.989 248.449C173.324 248.449 174.66 248.796 175.881 249.491C178.383 250.915 179.894 253.483 179.922 256.362C180.115 275.757 176.191 312.742 148.142 344.323C149.472 319.065 155.369 294.542 165.724 271.28C165.836 271.028 165.723 270.732 165.47 270.62C165.221 270.508 164.922 270.621 164.81 270.874C154.454 294.138 148.54 318.657 147.167 343.91C145.495 338.87 141.133 324.278 140.558 307.664M136.187 339.534C133.839 303.229 126.761 267.455 115.036 232.857L94.627 172.645C94.539 172.384 94.255 172.246 93.994 172.332C93.732 172.421 93.591 172.705 93.68 172.966L114.088 233.178C125.885 267.986 132.974 303.988 135.255 340.523C133.779 338.212 132.249 335.775 130.679 333.226C132.294 318.278 129.167 298.133 105.356 286.434C105.289 286.401 105.221 286.38 105.154 286.351C87.609 249.29 72.691 204.268 75.275 161.522C75.61 155.977 79 151.22 84.122 149.104C85.918 148.363 87.792 148.001 89.648 148.001C93.112 148.001 96.515 149.264 99.232 151.682C138.225 186.392 145.986 236.333 145.63 272.117C145.628 272.374 145.622 272.627 145.618 272.882C140.36 284.462 139.191 297.113 139.56 307.724C139.711 312.07 140.121 316.276 140.673 320.216C138.933 329.261 137.172 336.022 136.187 339.534M125.763 349.704C124.498 331.991 118.992 314.819 109.642 299.624C109.496 299.388 109.186 299.314 108.954 299.46C108.719 299.604 108.646 299.912 108.79 300.147C118.245 315.511 123.725 332.914 124.828 350.847C114.728 339.583 98.596 317.815 97.144 292.415C97.035 290.5 97.92 288.727 99.514 287.67C100.421 287.067 101.453 286.763 102.495 286.763C103.315 286.763 104.14 286.951 104.914 287.332C121.758 295.607 130.243 308.968 130.133 327.042C130.073 337.04 127.253 345.776 125.763 349.704M180.922 256.352C180.89 253.113 179.191 250.224 176.376 248.622C173.605 247.046 170.308 247.056 167.558 248.653C157.537 254.476 150.915 262.27 146.631 270.761C146.781 234.866 138.678 185.456 99.896 150.935C95.436 146.965 89.246 145.907 83.741 148.181C78.262 150.442 74.635 155.531 74.277 161.462C73.022 182.225 76.047 206.383 83.026 231.324C87.964 248.972 94.881 267.203 103.686 285.878C102.063 285.568 100.383 285.892 98.96 286.836C97.068 288.092 96.016 290.198 96.146 292.472C97.655 318.877 114.8 341.356 124.911 352.43C124.992 354.146 125.047 355.866 125.047 357.591V366.617C125.047 366.893 125.271 367.117 125.547 367.117C125.824 367.117 126.047 366.893 126.047 366.617V357.591C126.047 355.741 125.985 353.896 125.892 352.056C126.514 350.616 129.292 343.803 130.487 334.816C132.084 337.39 133.704 339.967 135.369 342.552C135.827 350.515 136.069 358.5 136.069 366.505C136.069 366.781 136.292 367.005 136.569 367.005C136.845 367.005 137.069 366.781 137.069 366.505C137.069 358.477 136.826 350.468 136.367 342.483C136.582 341.791 138.794 334.585 141.116 323.14C143.275 336.436 146.833 346.014 146.882 346.143C146.917 346.235 146.981 346.307 147.058 346.363C146.93 349.359 146.85 352.362 146.85 355.377V366.505C146.85 366.781 147.074 367.005 147.35 367.005C147.626 367.005 147.85 366.781 147.85 366.505V355.377C147.85 352.206 147.935 349.049 148.077 345.899C177.091 313.87 181.118 276.079 180.922 256.352" fill="black"/></g></g></g><path id="Search bar" fill-rule="evenodd" clip-rule="evenodd" d="M429.313 185.281C420.054 185.281 412.521 192.814 412.521 202.073C412.521 211.331 420.054 218.864 429.313 218.864H545.637C554.896 218.864 562.428 211.331 562.428 202.073C562.428 192.814 554.896 185.281 545.637 185.281H429.313ZM545.637 219.864H429.313C419.503 219.864 411.521 211.883 411.521 202.073C411.521 192.262 419.503 184.281 429.313 184.281H545.637C555.447 184.281 563.428 192.262 563.428 202.073C563.428 211.883 555.447 219.864 545.637 219.864ZM436.154 194.539C432.77 194.539 430.017 197.292 430.017 200.676C430.017 202.29 430.643 203.761 431.666 204.858C431.668 204.86 431.67 204.862 431.673 204.864C431.682 204.874 431.692 204.884 431.701 204.895C432.82 206.075 434.402 206.813 436.154 206.813C439.538 206.813 442.291 204.06 442.291 200.676C442.291 197.292 439.538 194.539 436.154 194.539ZM431.321 205.923C432.593 207.096 434.291 207.813 436.154 207.813C440.09 207.813 443.291 204.612 443.291 200.676C443.291 196.741 440.09 193.539 436.154 193.539C432.218 193.539 429.017 196.741 429.017 200.676C429.017 202.39 429.624 203.964 430.634 205.196L426.076 209.752C425.881 209.948 425.881 210.264 426.076 210.46C426.174 210.557 426.302 210.606 426.43 210.606C426.558 210.606 426.686 210.557 426.784 210.46L431.321 205.923Z" fill="black"/><path id="Fill 190" fill-rule="evenodd" clip-rule="evenodd" d="M423.752 259.002C423.453 259.002 423.149 259.032 422.842 259.093C420.976 259.464 419.758 260.558 419.223 262.342C418.696 264.099 419.098 265.671 420.418 267.016C421.765 268.39 423.13 269.748 424.496 271.105L425.873 272.476C426.014 272.617 426.131 272.716 426.243 272.789C426.869 273.191 427.702 273.075 428.271 272.505L430.222 270.548C431.382 269.383 432.542 268.219 433.706 267.059C434.654 266.114 435.127 265.001 435.149 263.656C435.125 262.465 434.738 261.46 433.968 260.584C432.328 258.719 429.519 258.467 427.576 260.012C427.211 260.3 426.955 260.302 426.594 260.026C425.706 259.344 424.753 259.002 423.752 259.002M427.06 274.028C426.588 274.028 426.118 273.898 425.701 273.629C425.528 273.517 425.358 273.376 425.166 273.184L423.79 271.814C422.422 270.454 421.054 269.093 419.704 267.716C418.132 266.115 417.635 264.157 418.265 262.055C418.906 259.919 420.421 258.555 422.647 258.113C424.232 257.798 425.72 258.143 427.076 259.137C429.492 257.371 432.778 257.717 434.719 259.924C435.641 260.972 436.122 262.224 436.149 263.646V263.663C436.125 265.262 435.54 266.644 434.412 267.767C433.249 268.927 432.09 270.09 430.931 271.253L428.979 273.212C428.442 273.75 427.749 274.028 427.06 274.028" fill="black"/><g id="Button" transform="translate(431.147 417.376) scale(1 1)"><g id="Button/Remove from the Car"><g id="Remove from the car button"><path id="Fill 148" fill-rule="evenodd" clip-rule="evenodd" d="M101.859 53.7334H23.0122C19.4152 53.7334 16.5002 50.8174 16.5002 47.2214V26.0124C16.5002 22.4154 19.4152 19.5004 23.0122 19.5004H101.859C105.455 19.5004 108.371 22.4154 108.371 26.0124V47.2214C108.371 50.8174 105.455 53.7334 101.859 53.7334" fill="#FF5613"/><path id="Fill 150" fill-rule="evenodd" clip-rule="evenodd" d="M23.012 20C19.697 20 17 22.697 17 26.012V47.221C17 50.536 19.697 53.233 23.012 53.233H101.859C105.174 53.233 107.871 50.536 107.871 47.221V26.012C107.871 22.697 105.174 20 101.859 20H23.012ZM101.859 54.233H23.012C19.145 54.233 16 51.088 16 47.221V26.012C16 22.146 19.145 19 23.012 19H101.859C105.726 19 108.871 22.146 108.871 26.012V47.221C108.871 51.088 105.726 54.233 101.859 54.233V54.233Z" fill="black"/><path id="Combined Shape" fill-rule="evenodd" clip-rule="evenodd" d="M68.4411 29.1148L66.8324 29.1148L52.0071 29.1148C51.8371 29.1148 51.7311 29.2078 51.6841 29.2628C51.6361 29.3178 51.5591 29.4358 51.5841 29.6048L52.7121 37.2248C52.8541 38.1838 53.6931 38.9078 54.6631 38.9078H65.7851C66.7551 38.9078 67.5941 38.1838 67.7361 37.2248L68.8631 29.6048C68.8881 29.4358 68.8121 29.3188 68.7641 29.2628C68.7161 29.2078 68.6111 29.1148 68.4411 29.1148ZM66.8324 28.1148H68.4411H69.3484C69.8174 28.1148 70.2644 27.9128 70.5744 27.5618C71.0734 26.9948 71.7934 26.6698 72.5494 26.6698H73.7914C74.0674 26.6698 74.2914 26.8928 74.2914 27.1698C74.2914 27.4458 74.0674 27.6698 73.7914 27.6698H72.5494C72.0804 27.6698 71.6344 27.8708 71.3244 28.2228C70.9232 28.6777 70.3798 28.9768 69.7907 29.0773C69.8645 29.2913 69.8871 29.522 69.8531 29.7508L68.7251 37.3708C68.5111 38.8178 67.2471 39.9078 65.7851 39.9078H55.789C55.5986 40.5955 54.9674 41.1015 54.2198 41.1015H53.8188C53.4728 41.1015 53.1908 41.3825 53.1908 41.7285C53.1908 42.0745 53.4728 42.3565 53.8188 42.3565H56.5984L56.6004 42.3565L56.6024 42.3565H64.1409L64.1429 42.3565L64.1449 42.3565H67.7268C68.0028 42.3565 68.2268 42.5805 68.2268 42.8565C68.2268 43.1325 68.0028 43.3565 67.7268 43.3565H65.9333C66.132 43.6776 66.2469 44.0559 66.2469 44.4605C66.2469 45.6205 65.3029 46.5645 64.1429 46.5645C62.9829 46.5645 62.0389 45.6205 62.0389 44.4605C62.0389 44.0559 62.1537 43.6776 62.3525 43.3565H58.3908C58.5895 43.6776 58.7044 44.0559 58.7044 44.4605C58.7044 45.6205 57.7604 46.5645 56.6004 46.5645C55.4404 46.5645 54.4964 45.6205 54.4964 44.4605C54.4964 44.0559 54.6112 43.6776 54.81 43.3565H53.8188C52.9218 43.3565 52.1908 42.6265 52.1908 41.7285C52.1908 40.8315 52.9218 40.1015 53.8188 40.1015H54.2198C54.3975 40.1015 54.5584 40.0271 54.6728 39.9078H54.6631C53.2011 39.9078 51.9371 38.8178 51.7231 37.3708L50.5951 29.7508C50.5341 29.3398 50.6551 28.9238 50.9271 28.6098C51.1981 28.2948 51.5921 28.1148 52.0071 28.1148H66.8324ZM64.1429 43.3565L64.1449 43.3565C64.753 43.3576 65.2469 43.8522 65.2469 44.4605C65.2469 45.0685 64.7519 45.5645 64.1429 45.5645C63.5349 45.5645 63.0389 45.0685 63.0389 44.4605C63.0389 43.8522 63.5337 43.3576 64.1408 43.3565L64.1429 43.3565ZM56.5983 43.3565C55.9912 43.3576 55.4964 43.8522 55.4964 44.4605C55.4964 45.0685 55.9924 45.5645 56.6004 45.5645C57.2094 45.5645 57.7044 45.0685 57.7044 44.4605C57.7044 43.8522 57.2105 43.3576 56.6024 43.3565L56.6004 43.3565L56.5983 43.3565ZM62.2495 36.7583C62.4447 36.9534 62.7615 36.9534 62.9566 36.7583C63.1518 36.5631 63.1518 36.2463 62.9566 36.0511L60.9165 34.011L62.9566 31.9709C63.1518 31.7757 63.1518 31.4589 62.9566 31.2637C62.7615 31.0686 62.4447 31.0686 62.2495 31.2637L60.2094 33.3039L58.1688 31.2633C57.9737 31.0682 57.6569 31.0682 57.4617 31.2633C57.2666 31.4585 57.2666 31.7753 57.4617 31.9704L59.5023 34.011L57.4617 36.0516C57.2666 36.2467 57.2666 36.5635 57.4617 36.7587C57.6569 36.9538 57.9737 36.9538 58.1688 36.7587L60.2094 34.7181L62.2495 36.7583Z" fill="black"/></g></g></g><g id="Object" transform="translate(590.557 220.078) scale(1 1)"><g id="Object/High Table"><g id="High Table"><path id="Table" fill-rule="evenodd" clip-rule="evenodd" d="M179.081 215.554H106.96C103.393 215.554 100.5 212.661 100.5 209.094C100.5 205.526 103.393 202.633 106.96 202.633H179.081C182.649 202.633 185.542 205.526 185.542 209.094C185.542 212.661 182.649 215.554 179.081 215.554ZM114.057 367.416H119.241V215.554H114.057V367.416ZM171.983 367.416H166.799V215.554H171.983V367.416Z" fill="#D96E05"/><path id="Lapm" fill-rule="evenodd" clip-rule="evenodd" d="M160.865 184.136C160.865 174.15 152.864 166.032 142.924 165.844C132.668 165.649 124.274 174.291 124.274 184.548V197.958C124.274 200.383 126.24 202.349 128.665 202.349H156.474C158.899 202.349 160.865 200.383 160.865 197.958V184.136Z" fill="#4B69FD"/><path id="Fill 7" fill-rule="evenodd" clip-rule="evenodd" d="M142.583 166.34C138.008 166.34 133.659 168.141 130.306 171.432C126.79 174.881 124.774 179.661 124.774 184.547V197.957C124.774 200.103 126.52 201.848 128.665 201.848H156.475C158.62 201.848 160.365 200.103 160.365 197.957V184.135C160.365 174.507 152.537 166.526 142.914 166.343C142.804 166.341 142.693 166.34 142.583 166.34M156.475 202.848H128.665C125.969 202.848 123.774 200.654 123.774 197.957V184.547C123.774 179.394 125.899 174.354 129.604 170.718C133.233 167.157 137.995 165.252 142.934 165.343C153.097 165.536 161.365 173.966 161.365 184.135V197.957C161.365 200.654 159.171 202.848 156.475 202.848" fill="black"/><path id="Fill 9" fill-rule="evenodd" clip-rule="evenodd" d="M166.163 168.228H119.878C118.588 168.228 117.66 166.986 118.026 165.749L126.884 135.79C127.126 134.969 127.88 134.406 128.736 134.406H157.306C158.161 134.406 158.915 134.969 159.157 135.79L168.016 165.749C168.382 166.986 167.454 168.228 166.163 168.228" fill="#009E80"/><path id="Combined Shape" fill-rule="evenodd" clip-rule="evenodd" d="M127.272 135.904C127.463 135.261 128.064 134.811 128.736 134.811H157.305C157.976 134.811 158.578 135.261 158.768 135.904L167.627 165.864C167.764 166.33 167.676 166.82 167.385 167.209C167.094 167.599 166.649 167.823 166.163 167.823H119.878C119.392 167.823 118.946 167.599 118.656 167.21C118.365 166.82 118.277 166.33 118.415 165.863L127.272 135.904ZM119.878 168.633H166.163C166.907 168.633 167.59 168.291 168.036 167.695C168.481 167.099 168.615 166.347 168.404 165.634L159.546 135.675C159.255 134.689 158.334 134 157.305 134H128.736C127.708 134 126.786 134.689 126.495 135.675L117.637 165.633C117.426 166.347 117.56 167.099 118.007 167.695C118.452 168.291 119.133 168.633 119.878 168.633ZM101 209.093C101 205.807 103.674 203.133 106.96 203.133H179.081C182.368 203.133 185.042 205.807 185.042 209.093C185.042 212.38 182.368 215.054 179.081 215.054H106.96C103.674 215.054 101 212.38 101 209.093ZM106.96 216.054H113.557V367.916H119.741V216.054H166.299V367.916H172.483V216.054H179.081C182.919 216.054 186.042 212.931 186.042 209.093C186.042 205.256 182.919 202.133 179.081 202.133H106.96C103.122 202.133 100 205.256 100 209.093C100 212.931 103.122 216.054 106.96 216.054ZM114.558 366.916H118.742V216.054H114.558V366.916ZM171.484 366.916H167.3V216.054H171.484V366.916Z" fill="black"/></g></g></g><g id="Master/Character/Standing" transform="translate(401.153 125.198) scale(1 1)"><g id="Master/Character/Standing"><g id="Lower Body Standing" transform="translate(32 185) scale(1 1)"><g id="Lower Body Standing/High Heels"><g id="High Heels"><path id="Skin" fill-rule="evenodd" clip-rule="evenodd" d="M218.056 211.169L230.875 237.326L243.783 252.874L233.742 259.022L228.103 257.122L227.606 262.779L202.213 278.325H169.851L170.208 276.872C171.804 270.371 177.66 265.821 184.354 265.881L187.871 265.912C188.844 265.921 189.801 265.66 190.636 265.159L192.122 264.268C193.607 263.377 194.561 261.814 194.675 260.085L195.08 253.929L182.312 229.126C177.487 219.753 180.765 208.244 189.805 202.821C199.85 196.794 212.901 200.65 218.056 211.169ZM137.963 219.166C140.992 212.549 147.601 208.305 154.879 208.305C168.123 208.305 177.126 221.751 172.08 233.996L161.826 258.884V278.326H149.852L146.61 274.512L142.874 278.326H87.5L87.688 277.803C90.085 271.131 95.874 266.256 102.857 265.029L109.95 263.782C113.588 263.142 116.973 261.493 119.718 259.022L137.963 219.166Z" fill="#dcad7f"/><path id="Fill 116" fill-rule="evenodd" clip-rule="evenodd" d="M170.488 277.825H202.071L227.129 262.484L227.604 257.078C227.617 256.926 227.7 256.788 227.828 256.704C227.956 256.62 228.115 256.599 228.261 256.649L233.679 258.473L243.029 252.749L230.489 237.645C230.464 237.615 230.443 237.581 230.426 237.546L217.606 211.389C215.211 206.501 210.842 202.813 205.622 201.27C200.402 199.728 194.731 200.449 190.062 203.249C181.275 208.521 178.066 219.787 182.756 228.897L195.524 253.7C195.565 253.781 195.584 253.871 195.578 253.962L195.173 260.118C195.049 262.01 194.004 263.721 192.378 264.697L190.892 265.588C189.978 266.137 188.905 266.404 187.866 266.412L184.349 266.381C177.844 266.295 172.24 270.686 170.692 276.992L170.488 277.825ZM202.213 278.825H169.85C169.696 278.825 169.551 278.754 169.457 278.634C169.362 278.512 169.328 278.355 169.365 278.206L169.721 276.753C171.381 269.995 177.397 265.341 184.358 265.381L187.875 265.412C188.769 265.434 189.622 265.185 190.378 264.731L191.863 263.839C193.208 263.033 194.072 261.617 194.175 260.053L194.571 254.034L181.867 229.355C176.937 219.777 180.31 207.934 189.547 202.392C194.455 199.448 200.418 198.689 205.905 200.311C211.394 201.933 215.986 205.81 218.504 210.949L231.297 237.053L244.167 252.555C244.26 252.667 244.3 252.813 244.276 252.956C244.252 253.099 244.167 253.225 244.044 253.301L234.003 259.448C233.877 259.526 233.723 259.544 233.582 259.495L228.544 257.799L228.103 262.823C228.09 262.98 228.002 263.122 227.866 263.205L202.474 278.751C202.395 278.8 202.305 278.825 202.213 278.825V278.825Z" fill="black"/><path id="Fill 121" fill-rule="evenodd" clip-rule="evenodd" d="M150.083 277.825H161.325V258.883C161.325 258.818 161.338 258.753 161.363 258.693L171.617 233.806C173.923 228.21 173.289 221.866 169.922 216.837C166.555 211.807 160.931 208.805 154.879 208.805C147.818 208.805 141.356 212.953 138.417 219.374L120.173 259.23C120.144 259.292 120.103 259.348 120.052 259.394C117.234 261.93 113.771 263.618 110.036 264.274L102.943 265.521C96.2054 266.705 90.5744 271.413 88.2114 277.825H142.664L146.253 274.161C146.351 274.061 146.489 274.001 146.628 274.012C146.768 274.017 146.9 274.081 146.991 274.188L150.083 277.825ZM161.825 278.825H149.852C149.705 278.825 149.566 278.761 149.471 278.649L146.584 275.252L143.231 278.675C143.137 278.771 143.008 278.825 142.874 278.825H87.5004C87.3374 278.825 87.1844 278.746 87.0914 278.613C86.9974 278.48 86.9744 278.31 87.0294 278.156L87.2174 277.634C89.6694 270.81 95.6284 265.791 102.77 264.536L109.864 263.289C113.379 262.671 116.642 261.092 119.307 258.719L137.508 218.958C140.609 212.183 147.427 207.805 154.879 207.805C161.265 207.805 167.2 210.973 170.753 216.28C174.306 221.587 174.975 228.281 172.542 234.187L162.325 258.982V278.325C162.325 278.602 162.102 278.825 161.825 278.825V278.825Z" fill="black"/><path id="Shoes" fill-rule="evenodd" clip-rule="evenodd" d="M169.851 278.325L170.207 276.872C171.803 270.371 177.66 265.821 184.353 265.88L187.871 265.912C187.871 268.164 189.697 269.991 191.95 269.991H194.363C195.107 269.991 195.837 269.788 196.474 269.402L237.104 244.829L243.783 252.874L233.742 259.021L228.102 257.122L227.605 262.778L202.213 278.325H169.851ZM107.641 264.33C108.634 266.663 110.681 268.382 113.15 268.958C113.742 269.097 114.349 269.166 114.957 269.166H161.826V278.325H149.852L146.61 274.511L142.874 278.325H87.5L87.688 277.802C90.085 271.13 95.874 266.255 102.857 265.028L107.585 264.197L107.641 264.33Z" fill="#FCBD21"/><path id="Fill 125" fill-rule="evenodd" clip-rule="evenodd" d="M170.488 277.825H202.071L227.129 262.484L227.604 257.078C227.617 256.926 227.7 256.788 227.828 256.704C227.956 256.62 228.115 256.599 228.261 256.649L233.679 258.473L243.029 252.749L236.994 245.48L196.733 269.83C196.018 270.263 195.198 270.492 194.363 270.492H191.95C189.592 270.492 187.645 268.7 187.397 266.408L184.349 266.381C177.844 266.295 172.24 270.686 170.692 276.992H170.693L170.488 277.825ZM202.213 278.825H169.85C169.696 278.825 169.551 278.754 169.457 278.634C169.362 278.512 169.328 278.355 169.365 278.206L169.721 276.753C171.381 269.995 177.397 265.341 184.358 265.381L187.875 265.412C188.149 265.414 188.37 265.637 188.37 265.912C188.37 267.886 189.976 269.492 191.95 269.492H194.363C195.016 269.492 195.656 269.313 196.215 268.975L236.845 244.402C237.057 244.272 237.33 244.32 237.488 244.51L244.167 252.555C244.26 252.667 244.3 252.813 244.276 252.956C244.252 253.099 244.167 253.225 244.044 253.301L234.003 259.448C233.877 259.526 233.723 259.544 233.582 259.495L228.544 257.799L228.103 262.823C228.09 262.98 228.002 263.122 227.866 263.205L202.474 278.751C202.395 278.8 202.305 278.825 202.213 278.825V278.825Z" fill="black"/><path id="Fill 130" fill-rule="evenodd" clip-rule="evenodd" d="M150.083 277.825H161.325V269.666H114.956C114.309 269.666 113.663 269.592 113.036 269.445C110.503 268.854 108.371 267.111 107.284 264.758L102.942 265.521C96.2054 266.704 90.5744 271.413 88.2114 277.825H142.664L146.253 274.161C146.351 274.06 146.489 274.001 146.627 274.012C146.768 274.016 146.9 274.08 146.991 274.187L150.083 277.825ZM161.825 278.825H149.852C149.705 278.825 149.565 278.761 149.471 278.649L146.583 275.252L143.23 278.675C143.137 278.771 143.008 278.825 142.874 278.825H87.5004C87.3374 278.825 87.1844 278.746 87.0914 278.613C86.9974 278.48 86.9744 278.309 87.0294 278.156L87.2164 277.634C89.6684 270.809 95.6284 265.791 102.77 264.535L107.498 263.704C107.726 263.665 107.953 263.787 108.044 264.001L108.101 264.134C109.028 266.312 110.958 267.933 113.263 268.471C113.815 268.601 114.385 268.666 114.956 268.666H161.825C162.102 268.666 162.325 268.89 162.325 269.166V278.325C162.325 278.601 162.102 278.825 161.825 278.825V278.825Z" fill="black"/><path id="Pants" fill-rule="evenodd" clip-rule="evenodd" d="M224.364 77.4998H142.426V107.815C142.426 107.815 140.892 130.524 135.061 139.424C129.231 148.324 139.051 158.758 140.585 163.975C142.119 169.191 143.654 174.715 143.654 174.715C143.654 174.715 138.437 181.774 135.061 194.663C131.686 207.552 124.663 215.224 124.663 215.224C124.663 215.224 160.225 237.012 205.03 240.388C205.03 240.388 204.614 222.896 206.817 218.292L231.115 205.404C231.115 205.404 225.898 193.435 216.692 189.446C207.485 185.457 209.94 179.933 209.94 179.933C209.94 179.933 224.364 167.657 221.909 150.165C219.454 132.673 221.295 135.128 224.671 121.932C228.046 108.736 222.364 77.4998 222.364 77.4998" fill="#FF5613"/><path id="Fill 134" fill-rule="evenodd" clip-rule="evenodd" d="M204.52 239.847C204.468 236.777 204.335 222.322 206.366 218.076C206.412 217.98 206.488 217.901 206.583 217.85L230.462 205.184C229.44 203.047 224.446 193.35 216.493 189.905C212.839 188.321 210.513 186.305 209.579 183.911C208.677 181.596 209.451 179.805 209.484 179.729C209.514 179.661 209.56 179.6 209.617 179.552C209.759 179.43 223.802 167.243 221.414 150.234C219.547 136.929 220.171 134.982 222.025 129.202C222.62 127.346 223.361 125.037 224.187 121.807C227.284 109.7 222.346 81.847 221.918 78H142.927V107.815C142.863 108.782 141.315 130.791 135.48 139.698C131.363 145.983 135.487 153.277 138.498 158.603C139.649 160.638 140.642 162.395 141.065 163.833C142.583 168.994 144.121 174.526 144.137 174.581C144.178 174.729 144.148 174.889 144.057 175.012C144.005 175.082 138.854 182.157 135.546 194.789C132.64 205.882 126.977 213.236 125.43 215.097C129.909 217.717 163.467 236.609 204.52 239.847ZM204.993 240.887C160.581 237.54 124.759 215.868 124.402 215.65C124.275 215.572 124.189 215.441 124.168 215.293C124.147 215.145 124.194 214.996 124.294 214.886C124.364 214.81 131.276 207.144 134.578 194.536C137.628 182.892 142.241 175.875 143.109 174.621C142.804 173.525 141.447 168.675 140.106 164.116C139.715 162.787 138.748 161.076 137.628 159.095C134.49 153.545 130.192 145.944 134.643 139.15C140.335 130.462 141.913 108.007 141.928 107.782L141.927 77.5C141.927 77.223 142.151 77 142.427 77H222.365C222.618 77 222.831 77.19 222.861 77.441C223.012 78.721 228.515 108.921 225.156 122.055C224.322 125.314 223.576 127.639 222.977 129.507C221.127 135.275 220.569 137.016 222.405 150.096C224.763 166.898 211.629 179.096 210.362 180.228C210.098 180.953 208.835 185.496 216.891 188.987C226.172 193.008 231.358 204.708 231.574 205.204C231.679 205.443 231.581 205.723 231.35 205.846L207.201 218.655C205.15 223.318 205.526 240.204 205.531 240.376C205.534 240.517 205.477 240.653 205.375 240.75C205.282 240.839 205.158 240.888 205.031 240.888C205.018 240.888 205.006 240.888 204.993 240.887Z" fill="black"/><path id="Fill 136" fill-rule="evenodd" clip-rule="evenodd" d="M206.817 218.792C206.769 218.792 206.719 218.785 206.671 218.77C206.406 218.689 206.258 218.409 206.339 218.146C210.662 204.059 208.211 195.727 206.894 191.25C206.663 190.466 206.464 189.79 206.329 189.193C205.368 184.94 209.378 179.836 209.549 179.621C209.721 179.404 210.037 179.371 210.252 179.541C210.468 179.712 210.504 180.027 210.332 180.243C210.293 180.292 206.449 185.189 207.305 188.973C207.433 189.538 207.628 190.201 207.853 190.968C209.199 195.545 211.706 204.065 207.295 218.438C207.229 218.654 207.031 218.792 206.817 218.792" fill="black"/><path id="Fill 138" fill-rule="evenodd" clip-rule="evenodd" d="M143.654 175.215C143.463 175.215 143.28 175.105 143.197 174.919C143.085 174.667 143.197 174.371 143.45 174.258C143.565 174.207 154.977 169.002 157.194 158.838L157.316 158.276C159.53 148.114 160.359 144.312 167.414 137.433C174.925 130.111 179.202 119.568 180.546 114.493C180.617 114.226 180.891 114.068 181.157 114.138C181.424 114.209 181.583 114.482 181.512 114.749C180.143 119.923 175.779 130.674 168.112 138.149C161.272 144.819 160.461 148.541 158.293 158.489L158.17 159.05C155.844 169.715 144.345 174.954 143.857 175.172C143.791 175.201 143.722 175.215 143.654 175.215" fill="black"/></g></g></g><g id="Head" transform="translate(193 148) scale(1 1)"><g id="Head/Embarrassed"><path id="Path 2" fill-rule="evenodd" clip-rule="evenodd" d="M12.5 43.7363C12.5 43.7363 16.0343 41.1592 15.4058 30.5163C15.4058 30.5163 20.9953 33.4358 27.0934 28.4994L28.5 43.6134C28.5 43.6134 24.2721 48.9732 19.8389 48.4534C15.4058 47.9337 12.5 43.7363 12.5 43.7363Z" fill="#dcad7f"/><path id="Path 2 Copy" fill-rule="evenodd" clip-rule="evenodd" d="M15.6185 29.1575C19.1685 31.0897 22.873 30.4235 26.799 27.1117C27.1106 26.8489 27.5511 27.076 27.5907 27.5201L28.9973 43.2699C29.0117 43.4301 28.9677 43.5899 28.876 43.711C25.9592 47.5642 22.9235 49.332 19.7865 48.9487C16.6923 48.5707 14.1229 46.8497 12.1037 43.8105C11.9264 43.5435 11.9825 43.1583 12.2257 42.9735C14.3851 41.3327 15.3152 36.9233 14.9069 29.7193C14.882 29.2794 15.274 28.9699 15.6185 29.1575ZM27.8541 43.348L26.5503 29L26.2853 29.199C22.7217 31.8029 19.2465 32.4147 15.9004 31.0061L15.7525 30.9417L15.7761 31.5369C15.9754 37.6673 15.094 41.732 13.0614 43.7146L13 43.7713L13.1374 43.9575C14.8463 46.2141 16.9214 47.5258 19.3801 47.9095L19.7177 47.956C22.5083 48.2909 25.2631 46.7152 28 43.1638L27.8541 43.348Z" fill="black"/><g id="Embarrassed"><path id="Skin" fill-rule="evenodd" clip-rule="evenodd" d="M19.7106 31.403C12.9646 31.403 7.49561 25.603 7.49561 18.449C7.49561 11.295 12.9646 5.495 19.7106 5.495C26.4556 5.495 31.9246 11.295 31.9246 18.449C31.9246 25.603 26.4556 31.403 19.7106 31.403Z" fill="#dcad7f"/><path id="Fill 3" fill-rule="evenodd" clip-rule="evenodd" d="M19.71 5.991C13.248 5.991 7.991 11.579 7.991 18.449C7.991 25.319 13.248 30.907 19.71 30.907C26.172 30.907 31.429 25.319 31.429 18.449C31.429 11.579 26.172 5.991 19.71 5.991M19.71 31.898C12.702 31.898 7 25.865 7 18.449C7 11.033 12.702 5 19.71 5C26.718 5 32.42 11.033 32.42 18.449C32.42 25.865 26.718 31.898 19.71 31.898" fill="black"/><path id="Fill 9" fill-rule="evenodd" clip-rule="evenodd" d="M16.2883 22.6058C16.2683 22.6058 16.2483 22.6048 16.2273 22.6028L14.1853 22.3548C14.0413 22.3368 13.9133 22.2588 13.8313 22.1388C13.7503 22.0198 13.7253 21.8708 13.7623 21.7308L14.3813 19.3788C14.4523 19.1128 14.7263 18.9558 14.9923 19.0228C15.2593 19.0938 15.4183 19.3668 15.3483 19.6338L14.8743 21.4308L16.3483 21.6088C16.6223 21.6428 16.8173 21.8918 16.7843 22.1658C16.7533 22.4198 16.5383 22.6058 16.2883 22.6058" fill="black"/><path id="Fill 11" fill-rule="evenodd" clip-rule="evenodd" d="M19.7099 18.1663C19.7099 18.7693 19.4029 19.2573 19.0229 19.2573C18.6449 19.2573 18.3369 18.7693 18.3369 18.1663C18.3369 17.5633 18.6449 17.0753 19.0229 17.0753C19.4029 17.0753 19.7099 17.5633 19.7099 18.1663" fill="black"/><path id="Fill 13" fill-rule="evenodd" clip-rule="evenodd" d="M13.0492 18.1663C13.0492 18.7693 12.7422 19.2573 12.3632 19.2573C11.9842 19.2573 11.6772 18.7693 11.6772 18.1663C11.6772 17.5633 11.9842 17.0753 12.3632 17.0753C12.7422 17.0753 13.0492 17.5633 13.0492 18.1663" fill="black"/><path id="Fill 15" fill-rule="evenodd" clip-rule="evenodd" d="M20.7351 15.7356C20.6201 15.7356 20.5041 15.6956 20.4091 15.6146C19.4411 14.7836 18.3651 14.8026 18.3491 14.8006C18.0561 14.7996 17.8441 14.5886 17.8381 14.3126C17.8311 14.0366 18.0491 13.8076 18.3261 13.8006C18.3891 13.8036 19.8061 13.7806 21.0611 14.8566C21.2701 15.0356 21.2941 15.3516 21.1141 15.5616C21.0161 15.6766 20.8761 15.7356 20.7351 15.7356" fill="black"/><path id="Fill 17" fill-rule="evenodd" clip-rule="evenodd" d="M10.6526 15.7356C10.5116 15.7356 10.3726 15.6766 10.2736 15.5616C10.0936 15.3516 10.1176 15.0356 10.3266 14.8566C11.5806 13.7806 13.0006 13.8006 13.0616 13.8006C13.3376 13.8076 13.5556 14.0366 13.5496 14.3126C13.5426 14.5846 13.3206 14.8006 13.0496 14.8006C13.0466 14.8006 13.0406 14.7986 13.0386 14.8006C12.9856 14.8006 11.9136 14.8116 10.9786 15.6146C10.8836 15.6956 10.7686 15.7356 10.6526 15.7356" fill="black"/><path id="Fill 19" fill-rule="evenodd" clip-rule="evenodd" d="M18.7739 24.3807C16.8329 26.1407 14.8989 26.3517 14.8989 26.3517C14.8989 26.3517 17.7959 29.5517 19.5359 26.9237C20.2239 25.8857 18.7739 24.3807 18.7739 24.3807" fill="black"/><path id="Fill 21" fill-rule="evenodd" clip-rule="evenodd" d="M15.9297 26.6185C16.4867 27.0565 17.2587 27.5185 17.9327 27.4555C18.3947 27.4205 18.7827 27.1565 19.1187 26.6485C19.4017 26.2225 19.0297 25.5345 18.7117 25.0925C17.6587 25.9465 16.6397 26.3905 15.9297 26.6185M17.8257 28.4605C16.1527 28.4605 14.5967 26.7625 14.5287 26.6875C14.4027 26.5485 14.3667 26.3505 14.4317 26.1755C14.4977 26.0005 14.6577 25.8765 14.8437 25.8545C14.8617 25.8525 16.6537 25.6285 18.4377 24.0105C18.6377 23.8295 18.9467 23.8385 19.1337 24.0335C19.2047 24.1065 20.8517 25.8435 19.9527 27.2005C19.4417 27.9725 18.7867 28.3945 18.0067 28.4535C17.9467 28.4575 17.8857 28.4605 17.8257 28.4605" fill="black"/><path id="Combined Shape" opacity="0.3" fill-rule="evenodd" clip-rule="evenodd" d="M11.3075 22.4196C12.5485 22.4196 13.5535 21.8726 13.5535 21.1966C13.5535 20.5206 12.5485 19.9736 11.3075 19.9736C10.0665 19.9736 9.06152 20.5206 9.06152 21.1966C9.06152 21.8726 10.0665 22.4196 11.3075 22.4196ZM20.5833 22.4196C21.8243 22.4196 22.8303 21.8726 22.8303 21.1966C22.8303 20.5206 21.8243 19.9736 20.5833 19.9736C19.3433 19.9736 18.3373 20.5206 18.3373 21.1966C18.3373 21.8726 19.3433 22.4196 20.5833 22.4196Z" fill="#FF5613"/></g></g></g><g id="Accesories" transform="translate(193 148) scale(39 49)"><g id="Accesories/No Accesory" stroke="none" stroke-width="1" fill="none" fill-rule="evenodd" fill-opacity="0"/></g><g id="Hair" transform="translate(143 115) scale(1 1)"><g id="Hair/Medium Straight"><g id="Medium Straight"><path id="Hair" fill-rule="evenodd" clip-rule="evenodd" d="M90.0705 51.6389C90.0705 26.2369 68.5585 30.8369 68.5585 30.8369C68.5585 30.8369 51.2785 27.1759 49.8925 51.6389C49.5135 58.3229 48.2035 64.2029 46.4995 69.2189H64.4325L66.1015 64.0129H66.1025C61.1255 62.3759 57.5095 57.4549 57.5095 51.6389C57.5095 49.3479 58.0755 47.1999 59.0595 45.3329H66.1535L66.7235 42.0779L67.9445 45.3329H76.4885C76.4885 45.3329 74.5475 55.5849 76.8595 62.1329C76.0485 62.7519 75.1685 63.2759 74.2255 63.6729L74.3755 64.0129L76.0445 69.2189H93.4625C91.7585 64.2029 90.0705 58.3339 90.0705 51.6389" fill="#4b69fd"/><path id="Fill 3" fill-rule="evenodd" clip-rule="evenodd" d="M76.0151 58.5022C76.0151 58.5022 76.2021 61.6892 78.2991 65.0252Z" fill="#8B4500"/><path id="Fill 5" fill-rule="evenodd" clip-rule="evenodd" d="M76.4097 68.7185L74.8717 63.9315C75.4797 63.6455 76.0657 63.2855 76.6367 62.8905C76.9537 63.6535 77.3567 64.4665 77.8757 65.2915C77.9707 65.4425 78.1327 65.5255 78.2997 65.5255C78.3897 65.5255 78.4827 65.5005 78.5647 65.4485C78.7987 65.3015 78.8687 64.9935 78.7227 64.7595C77.9047 63.4585 77.3897 62.1775 77.0637 61.1125C75.2537 54.7585 76.9617 45.5225 76.9797 45.4255C77.0077 45.2795 76.9687 45.1285 76.8737 45.0135C76.7787 44.8995 76.6377 44.8325 76.4887 44.8325H68.2917L67.1927 41.9025C67.1137 41.6905 66.8977 41.5565 66.6777 41.5795C66.4527 41.6005 66.2707 41.7695 66.2317 41.9915L65.7347 44.8325H59.0597C58.8737 44.8325 58.7037 44.9355 58.6177 45.0995C57.5657 47.0945 57.0107 49.3565 57.0107 51.6385C57.0107 57.3915 60.3917 62.4245 65.4767 64.3235L64.0677 68.7185H47.1937C48.9847 63.2565 50.0597 57.5245 50.3917 51.6675C50.8707 43.2175 53.2977 37.2595 57.6057 33.9575C62.5747 30.1505 68.3977 31.3145 68.4557 31.3265C68.5237 31.3415 68.5947 31.3415 68.6627 31.3255C68.7467 31.3085 77.1627 29.5905 83.2267 34.5015C87.4357 37.9105 89.5707 43.6765 89.5707 51.6385C89.5707 58.1055 91.1507 63.8745 92.7667 68.7185H76.4097ZM93.9367 69.0575C92.2717 64.1575 90.5707 58.2575 90.5707 51.6385C90.5707 43.3555 88.3087 37.3255 83.8487 33.7185C77.7067 28.7515 69.6107 30.1215 68.5567 30.3275C67.6907 30.1665 62.0347 29.3115 57.0107 33.1545C52.4517 36.6385 49.8897 42.8485 49.3937 51.6105C49.0537 57.6145 47.9207 63.4845 46.0267 69.0575C45.9747 69.2105 45.9997 69.3785 46.0937 69.5095C46.1877 69.6405 46.3387 69.7185 46.4997 69.7185H64.4327C64.6497 69.7185 64.8427 69.5785 64.9087 69.3715L66.5787 64.1655C66.6627 63.9045 66.5197 63.6235 66.2587 63.5375C61.3257 61.9155 58.0107 57.1335 58.0107 51.6385C58.0107 49.6185 58.4777 47.6185 59.3657 45.8325H66.1547C66.3967 45.8325 66.6047 45.6585 66.6467 45.4195L66.9007 43.9715L67.4767 45.5085C67.5497 45.7035 67.7367 45.8325 67.9447 45.8325H75.8937C75.5907 47.6795 74.7867 53.4225 75.5207 58.5985C75.5447 58.8975 75.6727 60.1335 76.2187 61.7715C76.2367 61.8295 76.2507 61.8905 76.2687 61.9475C75.5547 62.4625 74.8037 62.8865 74.0317 63.2115C73.9087 63.2635 73.8107 63.3635 73.7617 63.4885C73.7117 63.6125 73.7147 63.7515 73.7687 63.8745L75.5687 69.3715C75.6357 69.5775 75.8277 69.7185 76.0447 69.7185H93.4627C93.6237 69.7185 93.7757 69.6405 93.8687 69.5095C93.9637 69.3785 93.9887 69.2105 93.9367 69.0575V69.0575Z" fill="black"/></g></g></g><g id="Upper Body" transform="translate(58 77) scale(1 1)"><g id="Upper Body/Thinking"><g id="Thinking"><path id="Tshirt" fill-rule="evenodd" clip-rule="evenodd" d="M194.26 181.759C194.883 180.474 196.038 179.466 197.738 179.223C195.212 170.884 193.922 162.219 193.922 153.505V148.771L202.103 111.841C178.064 103.787 164.015 113.46 164.015 113.46C164.013 113.463 164.011 113.465 164.01 113.467L163.97 113.46C162.711 116.112 159.592 117.994 155.932 118.002C154.668 117.999 153.476 117.76 152.395 117.355C152.391 117.356 152.378 117.359 152.378 117.359C152.378 117.359 154.242 117.857 155.932 120.861C157.622 123.866 154.064 126.821 154.064 126.821C157.285 128.431 156.133 132.459 156.133 132.459C146.765 148.566 134.896 149.21 134.896 149.21C132.28 153.36 124.561 163.622 115.757 173.066C115.265 175.239 114.693 177.397 114.038 179.531L111.822 186.751H194.012C193.317 185.182 193.401 183.24 194.26 181.759" fill="#FCBD21"/><path id="Fill 3" fill-rule="evenodd" clip-rule="evenodd" d="M177.232 109.073L193.923 148.771L202.105 111.841C191.912 108.427 183.524 108.203 177.232 109.073V109.073ZM114.502 138.298C115.318 137.531 116.26 136.832 117.053 136.119C117.274 135.92 117.493 135.739 117.711 135.57C117.956 134.967 118.31 134.414 118.778 133.957C119.036 133.358 119.396 132.806 119.876 132.353C119.984 131.331 120.363 130.345 121.016 129.567C121.324 128.725 121.719 127.738 122.273 126.994C122.335 126.111 122.603 125.248 123.07 124.51C123.164 123.09 123.762 122.011 124.63 121.278C124.809 120.114 125.339 119.014 126.237 118.244C126.539 117.438 127.034 116.713 127.726 116.176C127.801 115.937 127.876 115.698 127.983 115.474C121.46 117.219 115.293 120.056 109.762 123.881L114.502 138.298Z" fill="#4B69FD"/><path id="Skin" fill-rule="evenodd" clip-rule="evenodd" d="M155.932 120.861C154.242 117.857 152.377 117.359 152.377 117.359C152.377 117.359 157.156 116.351 155.932 111.841C154.708 107.331 148.426 108.638 148.426 108.638C148.426 108.638 152.092 104.336 150.037 101.854C147.001 98.1892 141.301 102.631 136.858 107.267C132.144 112.186 125.947 115.147 122.564 125.617C119.182 136.087 114.45 138.148 114.45 138.148L109.761 123.881C109.761 123.881 73.8492 144.861 69.3392 166.606C64.6402 189.26 80.6142 197.371 94.9502 190.445C109.286 183.519 130.225 156.619 134.896 149.21C134.896 149.21 146.765 148.566 156.132 132.459C156.132 132.459 157.285 128.431 154.064 126.821C154.064 126.821 157.621 123.866 155.932 120.861M201.909 112.719L194.596 145.725C202.236 144.374 209.924 145.635 217.219 148.392C245.594 159.116 228.917 174.075 223.487 175.626C222.359 175.948 217.688 170.472 217.688 170.472C217.688 170.472 208.023 155.653 202.103 162.418C196.183 169.183 210.6 177.72 210.6 177.72C204.963 177.398 199.647 178.364 199.647 178.364C188.695 182.069 196.265 190.606 196.265 190.606C192.722 199.626 200.775 200.27 200.775 200.27C197.07 207.035 203.996 209.612 203.996 209.612C202.708 216.7 212.534 216.7 212.534 216.7C226.869 216.7 220.104 209.13 220.104 209.13C223.003 206.552 220.265 204.297 220.265 204.297C251.996 198.191 261.211 177.696 263.38 165.907C264.319 160.807 266.131 127.948 201.909 112.719" fill="#dcad7f"/><path id="Combined Shape" fill-rule="evenodd" clip-rule="evenodd" d="M155.934 118.502C155.341 118.5 154.765 118.436 154.201 118.343C153.973 117.905 153.683 117.502 153.326 117.155L153.325 117.152L153.324 117.148C153.324 117.145 153.323 117.143 153.322 117.14C154.145 117.371 155.023 117.5 155.934 117.502C159.317 117.494 162.295 115.824 163.519 113.245C163.583 113.11 163.703 113.014 163.841 112.977C165.217 112.102 179.367 103.696 202.263 111.367C202.505 111.448 202.648 111.699 202.592 111.949L194.422 148.826V153.505C194.422 162.233 195.717 170.89 198.264 179.24C197.919 179.296 197.597 179.383 197.297 179.498C194.728 171.064 193.422 162.321 193.422 153.505V148.771C193.422 148.735 193.426 148.698 193.434 148.663L201.518 112.174C179.326 104.898 165.705 112.979 164.401 113.805C164.376 113.84 164.347 113.868 164.315 113.891C162.867 116.692 159.608 118.494 155.934 118.502ZM110.354 124.081L114.908 137.935C114.626 138.182 114.36 138.438 114.107 138.702L109.287 124.038C109.277 124.007 109.27 123.977 109.266 123.946C109.246 123.795 109.296 123.643 109.401 123.534C109.424 123.511 109.449 123.489 109.477 123.47C115.271 119.464 121.645 116.567 128.345 114.84C128.336 114.853 128.327 114.866 128.318 114.879M193.821 186.251H112.499L114.517 179.679C115.188 177.492 115.763 175.282 116.261 173.056C115.918 173.299 115.534 173.5 115.104 173.643C114.653 175.571 114.143 177.487 113.561 179.385L111.344 186.604C111.298 186.756 111.326 186.92 111.421 187.048C111.514 187.176 111.664 187.251 111.822 187.251H194.038C193.935 186.926 193.863 186.591 193.821 186.251Z" fill="black"/><path id="Fill 15" fill-rule="evenodd" clip-rule="evenodd" d="M177.946 109.484L193.774 147.129L201.518 112.174C193.281 109.473 185.357 108.569 177.946 109.484M193.922 149.272C193.722 149.272 193.54 149.152 193.461 148.965L176.77 109.267C176.71 109.124 176.719 108.961 176.796 108.826C176.873 108.691 177.009 108.599 177.162 108.578C185.041 107.488 193.485 108.427 202.262 111.367C202.505 111.448 202.647 111.7 202.592 111.949L194.41 148.88C194.363 149.092 194.184 149.25 193.967 149.27C193.952 149.271 193.936 149.272 193.922 149.272" fill="black"/><path id="Fill 17" fill-rule="evenodd" clip-rule="evenodd" d="M155.703 123.613C154.011 127.365 146.784 132.554 146.711 132.607C146.486 132.767 146.434 133.079 146.595 133.304C146.692 133.441 146.846 133.514 147.002 133.514C147.102 133.514 147.204 133.484 147.292 133.421C147.515 133.262 151.368 130.49 154.158 127.455C156.419 128.866 155.785 131.802 155.667 132.265C146.567 147.866 134.984 148.705 134.869 148.712C134.707 148.721 134.559 148.807 134.474 148.944C130.441 155.34 109.461 182.879 94.7334 189.995C87.7124 193.388 80.2374 193.067 75.2274 189.157C69.6474 184.802 67.7294 176.83 69.8294 166.708C72.1294 155.62 82.9114 144.695 91.5514 137.483C99.6424 130.729 107.415 125.884 109.481 124.632L113.859 137.95C111.339 139.71 95.0434 151.344 90.7904 160.763C90.6764 161.015 90.7884 161.311 91.0404 161.425C91.1064 161.455 91.1774 161.469 91.2454 161.469C91.4354 161.469 91.6184 161.36 91.7014 161.175C96.0394 151.569 114.013 139.059 114.702 138.582C115.204 138.345 119.75 135.957 123.041 125.771C125.549 118.009 129.592 114.477 133.502 111.061C134.809 109.919 136.044 108.84 137.22 107.613C141.447 103.202 144.945 100.904 147.347 101.003C148.273 101.037 149.028 101.42 149.652 102.174C151.409 104.295 148.105 108.244 148.048 108.311C147.58 108.811 138.646 118.365 137.031 121.434C136.903 121.679 136.996 121.981 137.241 122.11C137.315 122.149 137.395 122.167 137.474 122.167C137.653 122.167 137.827 122.07 137.916 121.9C138.747 120.32 141.752 116.787 144.392 113.814C144.508 113.711 146.579 111.9 148.632 111.995C149.471 112.035 150.176 112.382 150.789 113.056C153.236 115.748 152.084 116.947 152.041 116.99C152.032 116.999 152.028 117.01 152.019 117.019C152.001 117.038 151.986 117.059 151.972 117.081C151.959 117.099 151.943 117.113 151.933 117.132C151.119 118.72 145.288 124.306 143.11 126.324C142.908 126.511 142.895 126.828 143.083 127.03C143.182 127.137 143.316 127.191 143.45 127.191C143.572 127.191 143.694 127.147 143.79 127.057C144.097 126.773 150.925 120.433 152.576 117.986C153.143 118.273 154.356 119.079 155.496 121.107C155.979 121.965 155.952 122.832 155.703 123.613M155.45 111.972C155.764 113.128 155.672 114.126 155.177 114.938C154.702 115.717 153.938 116.204 153.311 116.496C153.458 115.605 153.211 114.234 151.529 112.384C150.739 111.515 149.781 111.049 148.68 110.996C147.953 110.963 147.249 111.124 146.601 111.359C147.623 110.236 148.401 109.398 148.68 109.1C149.599 108.939 154.447 108.276 155.45 111.972M156.368 120.616C155.412 118.917 154.389 117.969 153.636 117.453C154.41 117.106 155.398 116.492 156.026 115.466C156.673 114.408 156.804 113.145 156.415 111.711C155.513 108.385 152.01 107.789 149.541 107.98C150.56 106.471 152.095 103.555 150.423 101.536C149.617 100.563 148.594 100.048 147.383 100.004C144.65 99.9008 140.991 102.232 136.498 106.921C135.353 108.116 134.135 109.18 132.845 110.308C128.831 113.814 124.682 117.439 122.089 125.464C119.46 133.603 115.99 136.558 114.732 137.404L110.236 123.725C110.189 123.581 110.079 123.467 109.938 123.413C109.797 123.361 109.64 123.373 109.509 123.449C108.035 124.311 73.3534 144.792 68.8504 166.505C66.6694 177.02 68.7164 185.344 74.6124 189.946C77.4954 192.195 81.1324 193.331 85.0344 193.331C88.3224 193.331 91.7994 192.524 95.1684 190.896C109.93 183.763 130.81 156.506 135.185 149.688C137.041 149.495 147.823 147.742 156.565 132.71C156.586 132.675 156.602 132.636 156.613 132.596C157.018 131.182 157.116 128.284 154.889 126.731C155.879 125.716 157.837 123.228 156.368 120.616M262.889 165.817C261.182 175.096 253.6 197.374 220.171 203.806C219.981 203.843 219.829 203.987 219.781 204.174C219.733 204.362 219.798 204.56 219.948 204.683C219.957 204.692 220.915 205.51 220.936 206.613C220.944 207.024 220.806 207.434 220.554 207.84C219.675 209.022 217.759 210.52 216.216 211.484C216.051 211.587 215.961 211.775 215.983 211.967C216.041 212.456 216.514 213.324 217.874 213.324C217.963 213.324 218.055 213.321 218.151 213.313C218.426 213.291 218.632 213.05 218.609 212.775C218.587 212.5 218.348 212.289 218.071 212.316C217.535 212.36 217.258 212.23 217.118 212.094C217.804 211.648 219.001 210.819 220.043 209.859C220.594 210.611 221.629 212.3 221.008 213.682C220.492 214.831 218.603 216.2 212.534 216.2C212.484 216.2 207.474 216.165 205.337 213.601C205.129 213.352 204.957 213.084 204.817 212.8C204.809 212.783 204.801 212.76 204.793 212.742C204.702 212.55 204.643 212.341 204.583 212.134C204.226 210.781 204.235 208.103 208.413 205.445C214.251 201.729 216.167 201.645 216.357 201.645C216.368 201.645 216.374 201.646 216.374 201.646C216.643 201.706 216.91 201.533 216.969 201.263C217.027 200.993 216.856 200.727 216.586 200.668C216.273 200.603 214.372 200.467 207.876 204.601C205.541 206.087 204.392 207.63 203.867 209.01C203.12 208.658 201.197 207.589 200.473 205.636C200.023 204.425 200.113 203.057 200.719 201.564C201.519 199.942 204.218 196.602 213.217 194.394C213.485 194.328 213.649 194.057 213.583 193.789C213.517 193.521 213.247 193.356 212.978 193.423C205.593 195.235 202.221 197.818 200.682 199.757C200.096 199.678 197.737 199.249 196.558 197.362C195.832 196.198 195.678 194.682 196.091 192.841C196.092 192.837 196.092 192.833 196.093 192.83C196.187 192.409 196.319 191.968 196.473 191.514C196.591 191.308 196.744 191.085 196.951 190.849C198.209 189.421 201.302 187.637 208.895 187.251C209.171 187.237 209.383 187.002 209.369 186.726C209.355 186.45 209.116 186.237 208.844 186.252C201.25 186.639 197.89 188.446 196.399 189.979C195.684 189.063 193.638 186.13 194.373 183.362C194.893 181.405 196.722 179.883 199.737 178.857C199.782 178.849 203.662 178.155 208.24 178.155C209.003 178.155 209.785 178.175 210.572 178.219C210.806 178.232 211.012 178.086 211.079 177.866C211.146 177.646 211.054 177.407 210.855 177.29C210.768 177.238 202.085 172.042 201.241 166.773C201.004 165.288 201.409 163.971 202.479 162.748C203.498 161.584 204.65 161.057 206.016 161.161C211.196 161.526 217.209 170.654 217.308 170.797C219.13 172.933 222.373 176.462 223.625 176.108C226.941 175.16 233.539 169.885 233.801 163.597C233.977 159.342 231.275 153.17 217.395 147.925C209.612 144.983 202.163 144.036 195.245 145.111L202.287 113.324C268.815 129.278 263.163 164.329 262.889 165.817M202.024 112.234C201.892 112.201 201.757 112.225 201.643 112.296C201.53 112.367 201.45 112.481 201.421 112.612L194.108 145.617C194.072 145.78 194.12 145.95 194.235 146.071C194.351 146.192 194.518 146.25 194.683 146.217C201.63 144.99 209.152 145.879 217.042 148.861C227.586 152.845 233.036 157.926 232.802 163.555C232.555 169.491 226.064 174.37 223.382 175.14C222.741 175.128 220.117 172.549 218.107 170.199C217.85 169.806 211.761 160.564 206.087 160.163C204.415 160.039 202.949 160.693 201.727 162.09C200.466 163.53 199.971 165.159 200.254 166.931C200.948 171.265 206.158 175.339 208.812 177.159C203.891 177.099 199.599 177.866 199.488 177.891C196.064 179.05 194.018 180.803 193.407 183.105C192.52 186.442 194.958 189.791 195.693 190.702C195.642 190.84 195.605 190.97 195.558 191.106C195.163 191.84 195.119 192.424 195.118 192.633C194.649 194.735 194.842 196.501 195.711 197.892C196.88 199.764 198.931 200.429 200.017 200.656C199.963 200.772 199.92 200.885 199.87 201C199.482 201.759 199.405 202.283 199.392 202.411C199.083 203.684 199.125 204.884 199.538 205.992C200.396 208.295 202.56 209.507 203.443 209.919C203.288 211.096 203.441 212.144 203.858 213.07C203.86 213.073 203.862 213.078 203.863 213.082C203.908 213.181 203.944 213.284 203.995 213.38C204.048 213.488 204.087 213.556 204.091 213.561C204.108 213.59 204.138 213.603 204.16 213.627C204.289 213.837 204.41 214.05 204.571 214.244C207.011 217.167 212.309 217.2 212.534 217.2C217.839 217.2 220.998 216.154 221.922 214.088C222.784 212.162 221.426 210.025 220.782 209.174C221.089 208.857 221.316 208.529 221.501 208.196C221.974 207.463 222.175 206.735 221.877 206.096C221.765 205.496 221.495 204.989 221.225 204.617C254.525 197.852 262.142 175.398 263.872 165.998C264.154 164.468 269.984 128.349 202.024 112.234" fill="black"/></g></g></g><g id="Facial Hair" transform="translate(193 148) scale(39 49)"><g id="Facial Hair/No Facial Hair" stroke="none" stroke-width="1" fill="none" fill-rule="evenodd" fill-opacity="0"/></g></g></g></g></svg>