<svg viewBox="213.86249999999995 99.68674698795166 1497.0375000000004 1495.3012048192772" fill="none" xmlns="http://www.w3.org/2000/svg" xmlns:xlink="http://www.w3.org/1999/xlink" overflow="visible" width="1497.0375000000004px" height="1495.3012048192772px"><g id="Master/Compositions/Riding Around Town"><g id="Location Comp" transform="translate(195 117) scale(1 1)"><g id="Location Comp/Abstract"><g id="Cloud"><g id="Group 3"><path id="Fill 1" fill-rule="evenodd" clip-rule="evenodd" d="M1480.77 416.55C1436.18 371.938 1379.55 344.132 1317 336.138L1315.37 335.929L1315.65 334.307C1326.6 270.579 1305.92 205.301 1260.33 159.687C1225.07 124.421 1178.25 103.794 1128.48 101.606C1079.03 99.4248 1030.89 115.562 992.923 147.026L991.886 147.886L990.875 146.995C881.283 50.3619 740.268 -0.462139 593.797 3.86134C446.695 8.21426 308.344 67.9702 204.229 172.123L202 169.893C306.685 65.1692 445.794 5.08415 593.704 0.709153C740.522 -3.64902 881.901 47.154 991.951 143.741C1030.36 112.342 1078.81 96.2536 1128.62 98.4553C1179.18 100.678 1226.74 121.632 1262.56 157.457C1308.49 203.406 1329.53 269.003 1319.03 333.222C1381.63 341.575 1438.29 369.595 1483 414.32L1480.77 416.55Z" fill="black"/></g><g id="Group 6"><path id="Fill 4" fill-rule="evenodd" clip-rule="evenodd" d="M105.287 847.549C48.5477 711.023 46.2555 559.781 98.8289 421.684C151.175 284.187 252.704 172.908 384.711 108.352L386.099 111.178C254.815 175.382 153.841 286.052 101.78 422.803C49.4924 560.145 51.7731 710.562 108.202 846.345L105.287 847.549Z" fill="black"/></g><path id="Fill 7" fill-rule="evenodd" clip-rule="evenodd" d="M1416.51 757L1414.66 754.433C1454.89 725.64 1482.83 683.091 1493.32 634.622C1503.88 585.841 1495.77 535.23 1470.5 492.111C1437.82 436.343 1379.69 399.721 1315 394.146L1315.27 391C1380.98 396.662 1440.04 433.866 1473.24 490.517C1498.91 534.32 1507.14 585.733 1496.41 635.287C1485.76 684.524 1457.38 727.749 1416.51 757" fill="black"/><path id="Fill 9" fill-rule="evenodd" clip-rule="evenodd" d="M1377 827L1253 951Z" fill="white"/><path id="Fill 11" fill-rule="evenodd" clip-rule="evenodd" d="M1253.11 953C1252.57 953 1252.03 952.795 1251.62 952.383C1250.79 951.561 1250.79 950.228 1251.62 949.406L1375.41 825.617C1376.23 824.794 1377.56 824.794 1378.38 825.617C1379.21 826.439 1379.21 827.771 1378.38 828.594L1254.59 952.383C1254.18 952.795 1253.64 953 1253.11 953" fill="#231F20"/><path id="Fill 13" fill-rule="evenodd" clip-rule="evenodd" d="M685 240L265 660Z" fill="white"/><path id="Fill 15" fill-rule="evenodd" clip-rule="evenodd" d="M265.101 662C264.563 662 264.026 661.795 263.615 661.384C262.795 660.564 262.795 659.234 263.615 658.413L683.413 238.616C684.233 237.795 685.563 237.795 686.384 238.616C687.205 239.437 687.205 240.767 686.384 241.587L266.587 661.384C266.176 661.795 265.639 662 265.101 662" fill="#231F20"/><path id="Fill 17" fill-rule="evenodd" clip-rule="evenodd" d="M1161 331L474 1045Z" fill="white"/><path id="Fill 19" fill-rule="evenodd" clip-rule="evenodd" d="M475.096 1048C474.573 1048 474.05 1047.8 473.643 1047.41C472.808 1046.61 472.783 1045.28 473.586 1044.44L1159.39 329.644C1160.2 328.807 1161.52 328.784 1162.36 329.586C1163.19 330.391 1163.22 331.721 1162.41 332.558L476.607 1047.36C476.196 1047.78 475.646 1048 475.096 1048" fill="#231F20"/><path id="Fill 21" fill-rule="evenodd" clip-rule="evenodd" d="M644 387L253 778Z" fill="white"/><path id="Fill 23" fill-rule="evenodd" clip-rule="evenodd" d="M252.101 780C251.563 780 251.026 779.795 250.615 779.384C249.795 778.564 249.795 777.234 250.615 776.414L642.413 384.616C643.235 383.795 644.564 383.795 645.384 384.616C646.205 385.436 646.205 386.765 645.384 387.587L253.586 779.384C253.175 779.795 252.638 780 252.101 780" fill="#231F20"/><path id="Fill 25" fill-rule="evenodd" clip-rule="evenodd" d="M1192 589L768 1013Z" fill="white"/><path id="Fill 27" fill-rule="evenodd" clip-rule="evenodd" d="M769.098 1015C768.561 1015 768.025 1014.8 767.615 1014.39C766.795 1013.57 766.795 1012.24 767.615 1011.42L1190.42 588.615C1191.24 587.795 1192.57 587.795 1193.39 588.615C1194.2 589.434 1194.2 590.762 1193.39 591.582L770.582 1014.39C770.172 1014.8 769.635 1015 769.098 1015" fill="#231F20"/><path id="Fill 29" fill-rule="evenodd" clip-rule="evenodd" d="M1180 697L980 897Z" fill="white"/><path id="Fill 31" fill-rule="evenodd" clip-rule="evenodd" d="M980.101 899C979.563 899 979.026 898.795 978.615 898.384C977.795 897.564 977.795 896.234 978.615 895.413L1179.41 694.615C1180.23 693.795 1181.56 693.795 1182.38 694.615C1183.21 695.436 1183.21 696.766 1182.38 697.587L981.587 898.384C981.176 898.795 980.639 899 980.101 899" fill="#231F20"/><path id="Fill 33" fill-rule="evenodd" clip-rule="evenodd" d="M618.811 594.811C538.558 675.063 408.443 675.063 328.191 594.811C247.936 514.559 247.936 384.442 328.191 304.19C408.443 223.937 538.558 223.937 618.811 304.19C699.063 384.442 699.063 514.559 618.811 594.811" fill="white"/><path id="Fill 35" fill-rule="evenodd" clip-rule="evenodd" d="M1032.98 588.978C992.95 629.007 928.05 629.007 888.022 588.978C847.993 548.95 847.993 484.05 888.022 444.022C928.05 403.993 992.95 403.993 1032.98 444.022C1073.01 484.05 1073.01 548.95 1032.98 588.978" fill="white"/><path id="Fill 37" fill-rule="evenodd" clip-rule="evenodd" d="M805.979 900.979C765.95 941.007 701.051 941.007 661.022 900.979C620.993 860.95 620.993 796.051 661.022 756.022C701.051 715.993 765.95 715.993 805.979 756.022C846.007 796.051 846.007 860.95 805.979 900.979" fill="white"/><path id="Fill 39" fill-rule="evenodd" clip-rule="evenodd" d="M1198.62 899.623C1178.12 920.126 1144.88 920.126 1124.38 899.623C1103.87 879.121 1103.87 845.88 1124.38 825.377C1144.88 804.874 1178.12 804.874 1198.62 825.377C1219.13 845.88 1219.13 879.121 1198.62 899.623" fill="white"/><path id="Fill 33 Copy" fill-rule="evenodd" clip-rule="evenodd" d="M326.776 596.225C407.809 677.258 539.191 677.258 620.225 596.225L622.632 593.779C701.25 512.569 700.448 382.999 620.225 302.776C539.191 221.741 407.809 221.741 326.776 302.776C245.741 383.809 245.741 515.192 326.776 596.225ZM617.397 305.604C696.073 384.281 696.86 511.353 619.757 590.998L617.397 593.397L614.998 595.757C535.353 672.86 408.281 672.073 329.605 593.397C250.132 513.926 250.132 385.075 329.605 305.604C409.076 226.132 537.925 226.132 617.397 305.604Z" fill="black"/><path id="Fill 35 Copy" fill-rule="evenodd" clip-rule="evenodd" d="M886.608 590.393C927.417 631.203 993.584 631.203 1034.39 590.393L1035.6 589.161C1075.2 548.263 1074.79 483.009 1034.39 442.608C993.584 401.797 927.417 401.797 886.608 442.608C845.797 483.417 845.797 549.584 886.608 590.393ZM1031.56 445.437C1070.42 484.291 1070.81 547.047 1032.73 586.379L1031.56 587.564L1030.38 588.73C991.047 626.808 928.291 626.419 889.437 587.564C850.188 548.317 850.188 484.684 889.437 445.437C928.684 406.188 992.317 406.188 1031.56 445.437Z" fill="black"/><path id="Fill 37 Copy" fill-rule="evenodd" clip-rule="evenodd" d="M659.608 902.393C700.418 943.202 766.583 943.202 807.393 902.393L808.605 901.161C848.198 860.262 847.794 795.01 807.393 754.608C766.583 713.797 700.418 713.797 659.608 754.608C618.797 795.418 618.797 861.583 659.608 902.393ZM804.565 757.436C843.419 796.291 843.808 859.047 805.73 898.38L804.565 899.565L803.38 900.73C764.047 938.808 701.291 938.419 662.436 899.565C623.188 860.317 623.188 796.684 662.436 757.436C701.684 718.188 765.317 718.188 804.565 757.436Z" fill="black"/><path id="Fill 39 Copy" fill-rule="evenodd" clip-rule="evenodd" d="M1122.96 901.037C1144.03 922.108 1178.07 922.319 1199.4 901.669L1200.04 901.037L1200.67 900.395C1221.32 879.066 1221.11 845.034 1200.04 823.963C1178.75 802.679 1144.25 802.679 1122.96 823.963C1101.68 845.247 1101.68 879.754 1122.96 901.037ZM1197.21 826.791C1216.73 846.316 1216.93 877.85 1197.8 897.613L1197.21 898.209L1196.61 898.794C1176.85 917.928 1145.32 917.733 1125.79 898.209C1106.07 878.488 1106.07 846.513 1125.79 826.791C1145.51 807.07 1177.49 807.07 1197.21 826.791Z" fill="black"/><path id="Fill 41" fill-rule="evenodd" clip-rule="evenodd" d="M415.027 538.638C416.609 536.72 419.444 536.447 421.362 538.027C423.279 539.608 423.553 542.443 421.973 544.362C420.392 546.28 417.556 546.553 415.639 544.973C413.721 543.392 413.446 540.556 415.027 538.638" fill="black"/><path id="Fill 43" fill-rule="evenodd" clip-rule="evenodd" d="M368.028 585.639C369.608 583.72 372.444 583.447 374.362 585.027C376.28 586.608 376.553 589.444 374.973 591.362C373.392 593.28 370.557 593.553 368.638 591.973C366.721 590.392 366.447 587.556 368.028 585.639" fill="black"/><path id="Fill 45" fill-rule="evenodd" clip-rule="evenodd" d="M406.027 484.639C407.609 482.72 410.444 482.447 412.362 484.027C414.279 485.608 414.553 488.444 412.973 490.362C411.392 492.28 408.556 492.553 406.639 490.973C404.721 489.392 404.446 486.556 406.027 484.639" fill="black"/><path id="Fill 47" fill-rule="evenodd" clip-rule="evenodd" d="M358.027 532.638C359.609 530.721 362.444 530.447 364.362 532.027C366.279 533.608 366.553 536.444 364.973 538.362C363.392 540.279 360.556 540.553 358.639 538.973C356.721 537.392 356.446 534.556 358.027 532.638" fill="black"/><path id="Fill 49" fill-rule="evenodd" clip-rule="evenodd" d="M353.027 474.638C354.608 472.721 357.444 472.447 359.361 474.027C361.28 475.608 361.553 478.444 359.973 480.362C358.392 482.279 355.556 482.553 353.638 480.973C351.721 479.392 351.447 476.556 353.027 474.638" fill="black"/><path id="Fill 51" fill-rule="evenodd" clip-rule="evenodd" d="M304.027 521.638C305.609 519.72 308.444 519.447 310.362 521.027C312.279 522.608 312.553 525.444 310.973 527.361C309.392 529.28 306.556 529.553 304.639 527.973C302.721 526.392 302.446 523.556 304.027 521.638" fill="black"/><path id="Fill 53" fill-rule="evenodd" clip-rule="evenodd" d="M342.028 420.638C343.608 418.72 346.444 418.447 348.362 420.027C350.28 421.608 350.553 424.444 348.973 426.361C347.392 428.28 344.557 428.553 342.639 426.973C340.72 425.392 340.446 422.556 342.028 420.638" fill="black"/><path id="Fill 55" fill-rule="evenodd" clip-rule="evenodd" d="M294.027 468.638C295.608 466.72 298.444 466.447 300.362 468.027C302.28 469.608 302.553 472.443 300.973 474.362C299.392 476.28 296.556 476.553 294.638 474.973C292.721 473.392 292.447 470.556 294.027 468.638" fill="black"/><path id="Fill 57" fill-rule="evenodd" clip-rule="evenodd" d="M288.027 409.638C289.609 407.72 292.444 407.447 294.362 409.027C296.279 410.608 296.553 413.444 294.973 415.362C293.392 417.28 290.556 417.553 288.639 415.973C286.721 414.392 286.446 411.556 288.027 409.638" fill="black"/><path id="Fill 59" fill-rule="evenodd" clip-rule="evenodd" d="M537.028 615.638C538.608 613.72 541.444 613.447 543.362 615.027C545.28 616.608 545.553 619.444 543.973 621.361C542.392 623.28 539.557 623.553 537.639 621.973C535.72 620.392 535.446 617.556 537.028 615.638" fill="black"/><path id="Fill 61" fill-rule="evenodd" clip-rule="evenodd" d="M483.027 604.639C484.609 602.72 487.444 602.447 489.362 604.027C491.279 605.608 491.553 608.444 489.973 610.362C488.392 612.28 485.556 612.553 483.639 610.973C481.721 609.392 481.446 606.556 483.027 604.639" fill="black"/><path id="Fill 63" fill-rule="evenodd" clip-rule="evenodd" d="M472.027 551.638C473.608 549.721 476.444 549.447 478.362 551.027C480.279 552.608 480.553 555.444 478.973 557.362C477.393 559.279 474.556 559.553 472.638 557.973C470.721 556.392 470.447 553.556 472.027 551.638" fill="black"/><path id="Fill 65" fill-rule="evenodd" clip-rule="evenodd" d="M425.027 598.638C426.609 596.721 429.444 596.447 431.362 598.027C433.279 599.608 433.553 602.444 431.973 604.362C430.392 606.279 427.556 606.553 425.639 604.973C423.721 603.392 423.446 600.556 425.027 598.638" fill="black"/><path id="Fill 67" fill-rule="evenodd" clip-rule="evenodd" d="M634.027 518.638C635.609 516.721 638.444 516.447 640.362 518.027C642.279 519.608 642.553 522.444 640.973 524.362C639.392 526.279 636.556 526.553 634.639 524.973C632.721 523.392 632.446 520.556 634.027 518.638" fill="black"/><path id="Fill 69" fill-rule="evenodd" clip-rule="evenodd" d="M586.028 565.638C587.608 563.72 590.444 563.447 592.362 565.027C594.28 566.608 594.553 569.444 592.973 571.361C591.392 573.28 588.557 573.553 586.639 571.973C584.72 570.392 584.446 567.556 586.028 565.638" fill="black"/><path id="Fill 71" fill-rule="evenodd" clip-rule="evenodd" d="M579.027 507.638C580.609 505.72 583.444 505.447 585.362 507.027C587.279 508.608 587.553 511.444 585.973 513.362C584.392 515.28 581.556 515.553 579.639 513.973C577.721 512.392 577.446 509.556 579.027 507.638" fill="black"/><path id="Fill 73" fill-rule="evenodd" clip-rule="evenodd" d="M532.027 555.639C533.609 553.72 536.444 553.447 538.362 555.027C540.279 556.608 540.553 559.444 538.973 561.362C537.392 563.28 534.556 563.553 532.639 561.973C530.721 560.392 530.446 557.556 532.027 555.639" fill="black"/><path id="Fill 75" fill-rule="evenodd" clip-rule="evenodd" d="M570.027 453.639C571.608 451.72 574.444 451.447 576.362 453.027C578.28 454.608 578.553 457.444 576.973 459.362C575.392 461.28 572.557 461.553 570.638 459.973C568.721 458.392 568.447 455.556 570.027 453.639" fill="black"/><path id="Fill 77" fill-rule="evenodd" clip-rule="evenodd" d="M522.027 501.638C523.608 499.721 526.444 499.447 528.362 501.027C530.279 502.608 530.553 505.444 528.973 507.362C527.393 509.279 524.556 509.553 522.638 507.973C520.721 506.392 520.447 503.556 522.027 501.638" fill="black"/><path id="Fill 79" fill-rule="evenodd" clip-rule="evenodd" d="M1166.03 880.638C1167.61 878.72 1170.44 878.447 1172.36 880.027C1174.28 881.608 1174.55 884.444 1172.97 886.362C1171.39 888.28 1168.56 888.553 1166.64 886.973C1164.72 885.392 1164.45 882.557 1166.03 880.638" fill="black"/><path id="Fill 81" fill-rule="evenodd" clip-rule="evenodd" d="M1155.03 826.639C1156.61 824.72 1159.44 824.447 1161.36 826.027C1163.28 827.608 1163.55 830.444 1161.97 832.362C1160.39 834.28 1157.56 834.553 1155.64 832.973C1153.72 831.392 1153.45 828.556 1155.03 826.639" fill="black"/><path id="Fill 83" fill-rule="evenodd" clip-rule="evenodd" d="M1014.03 541.638C1015.61 539.72 1018.44 539.447 1020.36 541.027C1022.28 542.608 1022.55 545.444 1020.97 547.361C1019.39 549.28 1016.56 549.553 1014.64 547.973C1012.72 546.392 1012.45 543.556 1014.03 541.638" fill="black"/><path id="Fill 85" fill-rule="evenodd" clip-rule="evenodd" d="M966.027 589.638C967.608 587.72 970.444 587.447 972.362 589.027C974.279 590.608 974.553 593.443 972.973 595.362C971.393 597.28 968.556 597.553 966.638 595.973C964.721 594.392 964.447 591.556 966.027 589.638" fill="black"/><path id="Fill 87" fill-rule="evenodd" clip-rule="evenodd" d="M960.028 532.639C961.608 530.72 964.444 530.447 966.362 532.027C968.28 533.608 968.553 536.444 966.973 538.362C965.392 540.28 962.557 540.553 960.639 538.973C958.72 537.392 958.446 534.556 960.028 532.639" fill="black"/><path id="Fill 89" fill-rule="evenodd" clip-rule="evenodd" d="M913.027 579.638C914.608 577.721 917.444 577.447 919.362 579.027C921.28 580.608 921.553 583.444 919.973 585.362C918.392 587.279 915.557 587.553 913.638 585.973C911.721 584.392 911.447 581.556 913.027 579.638" fill="black"/><path id="Fill 91" fill-rule="evenodd" clip-rule="evenodd" d="M951.027 477.638C952.609 475.721 955.444 475.447 957.362 477.027C959.279 478.608 959.553 481.444 957.973 483.362C956.392 485.279 953.556 485.553 951.639 483.973C949.721 482.392 949.446 479.556 951.027 477.638" fill="black"/><path id="Fill 93" fill-rule="evenodd" clip-rule="evenodd" d="M903.028 525.638C904.608 523.721 907.444 523.447 909.362 525.027C911.28 526.608 911.553 529.444 909.973 531.362C908.392 533.279 905.557 533.553 903.639 531.973C901.72 530.392 901.446 527.556 903.028 525.638" fill="black"/><path id="Fill 95" fill-rule="evenodd" clip-rule="evenodd" d="M773.027 855.638C774.608 853.721 777.444 853.447 779.362 855.027C781.28 856.608 781.553 859.444 779.973 861.362C778.392 863.279 775.557 863.553 773.638 861.973C771.721 860.392 771.447 857.556 773.027 855.638" fill="black"/><path id="Fill 97" fill-rule="evenodd" clip-rule="evenodd" d="M724.027 903.638C725.608 901.72 728.444 901.447 730.361 903.027C732.28 904.608 732.553 907.444 730.973 909.361C729.392 911.28 726.556 911.553 724.638 909.973C722.721 908.392 722.447 905.556 724.027 903.638" fill="black"/><path id="Fill 99" fill-rule="evenodd" clip-rule="evenodd" d="M719.028 845.638C720.608 843.72 723.444 843.447 725.362 845.027C727.28 846.608 727.553 849.444 725.973 851.361C724.392 853.28 721.557 853.553 719.639 851.973C717.72 850.392 717.446 847.556 719.028 845.638" fill="black"/><path id="Fill 101" fill-rule="evenodd" clip-rule="evenodd" d="M671.027 893.639C672.608 891.72 675.444 891.447 677.362 893.027C679.28 894.608 679.553 897.444 677.973 899.362C676.392 901.28 673.557 901.553 671.638 899.973C669.721 898.392 669.447 895.556 671.027 893.639" fill="black"/><path id="Fill 103" fill-rule="evenodd" clip-rule="evenodd" d="M661.028 839.638C662.608 837.721 665.444 837.447 667.362 839.027C669.28 840.608 669.553 843.444 667.973 845.362C666.392 847.279 663.557 847.553 661.639 845.973C659.72 844.392 659.446 841.556 661.028 839.638" fill="black"/><path id="Fill 105" fill-rule="evenodd" clip-rule="evenodd" d="M655.027 781.638C656.608 779.721 659.444 779.447 661.361 781.027C663.28 782.608 663.553 785.444 661.973 787.362C660.392 789.279 657.556 789.553 655.638 787.973C653.721 786.392 653.447 783.556 655.027 781.638" fill="black"/></g></g></g><g id="Character"><g id="Full Body"><g id="Bike Pose"><g id="Components"><g id="blue"><path id="Fill 33" fill-rule="evenodd" clip-rule="evenodd" d="M911.983 1374.62C912.67 1372.56 913.364 1370.51 914.016 1368.43C914.148 1368.02 914.11 1367.57 913.909 1367.19C913.71 1366.8 913.367 1366.52 912.957 1366.38L893.205 1360.2C892.365 1359.94 891.477 1360.36 891.197 1361.14C890.517 1363.1 889.826 1364.93 889.141 1366.79L867.051 1359.22L868.216 1355.73L869.409 1352.02C870.212 1349.59 870.981 1346.98 871.767 1344.45C872.561 1341.92 873.317 1339.32 874.072 1336.72C874.823 1334.12 875.603 1331.55 876.332 1328.92C879.275 1318.45 882.092 1307.85 884.762 1297.18C890.153 1275.86 894.859 1254.2 899.223 1232.47L902.261 1216.92C903.276 1211.74 904.137 1206.51 905.083 1201.31L975.735 1213.91C974.747 1219.34 973.844 1224.79 972.785 1230.22L969.603 1246.5C963.054 1279.22 955.62 1311.78 946.581 1344.15C946.462 1344.58 946.517 1345.04 946.734 1345.43C946.946 1345.81 947.298 1346.09 947.711 1346.2C947.72 1346.21 947.847 1346.24 947.847 1346.24C948.936 1346.56 958.839 1349.43 966.934 1357.17C971.911 1361.98 975.172 1367.59 976.577 1374.02C977.252 1377.26 977.501 1380.66 977.259 1384.3C977.116 1386.15 976.858 1388.04 976.487 1389.98C976.387 1390.46 976.287 1390.95 976.187 1391.44C976.059 1391.96 975.93 1392.48 975.799 1393C975.525 1394.05 975.221 1395.11 974.888 1396.19L911.983 1374.62Z" fill="white"/><path id="Fill 35" fill-rule="evenodd" clip-rule="evenodd" d="M977.638 1212.55C976.606 1218.27 975.634 1223.99 974.552 1229.7L971.207 1246.82C964.65 1279.58 957.21 1312.17 948.156 1344.59C948.156 1344.59 948.203 1344.6 948.294 1344.63C949.582 1345 959.692 1347.95 968.065 1355.89C972.226 1359.88 975.9 1365.15 977.79 1372.01C978.707 1375.46 979.125 1379.34 978.938 1383.65C978.82 1385.83 978.509 1388.16 978.034 1390.58C977.811 1391.76 977.48 1393.09 977.104 1394.45C976.918 1395.12 976.718 1395.8 976.505 1396.49L976.336 1397.03L976.109 1397.71C975.953 1398.17 975.796 1398.62 975.638 1399.08L935.845 1384.86L909.917 1375.59C910.776 1373.1 911.645 1370.51 912.459 1367.93L892.738 1361.69C892.312 1362.9 891.886 1364.1 891.453 1365.25C891.025 1366.41 890.575 1367.64 890.214 1368.55L865.186 1359.61L866.233 1356.51C866.619 1355.39 867.026 1354.08 867.425 1352.85L868.628 1349.1L869.812 1345.24C871.416 1340.14 872.904 1334.82 874.446 1329.6C875.899 1324.28 877.419 1319.01 878.823 1313.65C880.205 1308.28 881.664 1302.96 882.988 1297.55C888.449 1276.01 893.202 1254.12 897.618 1232.15L900.807 1215.83C901.839 1210.39 902.766 1204.91 903.752 1199.45L977.638 1212.55ZM973.831 1215.26L906.413 1203.17L905.093 1210.6C904.663 1213.08 904.213 1215.55 903.715 1218.01L900.827 1232.79C900.291 1235.48 899.797 1238.18 899.229 1240.86L897.52 1248.9C896.363 1254.25 895.287 1259.63 894.066 1264.95L890.404 1280.93C889.162 1286.25 887.821 1291.52 886.536 1296.82C883.905 1307.38 881.128 1317.87 878.217 1328.24C877.513 1330.86 876.737 1333.4 875.994 1335.98C875.234 1338.53 874.513 1341.15 873.724 1343.65C872.19 1348.69 870.597 1353.8 869.043 1358.42L888.113 1364.85L888.886 1362.77L889.654 1360.6C890.212 1359.02 891.989 1358.19 893.672 1358.71L913.431 1364.83L913.454 1364.84C914.276 1365.1 914.961 1365.67 915.36 1366.44C915.761 1367.21 915.837 1368.11 915.573 1368.94C915.081 1370.5 914.573 1372.05 914.048 1373.6L937.043 1381.36L973.889 1393.79C974.159 1392.82 974.406 1391.86 974.622 1390.92C974.814 1390.02 974.98 1389.13 975.121 1388.26C975.404 1386.5 975.588 1384.79 975.67 1383.12C975.773 1379.85 975.482 1376.74 974.797 1373.8C973.4 1367.95 970.344 1362.85 965.796 1358.44C958.027 1350.95 948.439 1348.17 947.4 1347.85L947.311 1347.83L947.268 1347.82C946.44 1347.58 945.736 1347.03 945.31 1346.27C944.878 1345.49 944.766 1344.57 945.004 1343.71C954.029 1311.39 961.456 1278.87 967.999 1246.18L971.016 1230.74C971.534 1228.17 972.004 1225.59 972.454 1223L973.831 1215.26V1215.26Z" fill="black"/><path id="Stroke 37 (Stroke)" fill-rule="evenodd" clip-rule="evenodd" d="M976.289 1390.43L869.254 1356.11L870.475 1352.3L977.51 1386.62L976.289 1390.43Z" fill="black"/><path id="Stroke 39 (Stroke)" fill-rule="evenodd" clip-rule="evenodd" d="M888.409 1345.2C885.754 1340.54 881.262 1336.88 875.559 1335.25L876.658 1331.41C883.364 1333.32 888.71 1337.65 891.883 1343.21C891.883 1343.21 891.883 1343.21 891.883 1343.21L890.146 1344.21L891.882 1343.21C891.882 1343.21 891.882 1343.21 891.883 1343.21C893.47 1345.99 894.52 1349.07 894.884 1352.26C894.884 1352.26 894.884 1352.26 894.884 1352.26L892.897 1352.49L894.884 1352.26C894.884 1352.26 894.884 1352.26 894.884 1352.26C895.249 1355.41 895.01 1358.78 893.958 1361.98L890.158 1360.73C891.009 1358.14 891.217 1355.37 890.91 1352.72L890.91 1352.72C890.611 1350.1 889.744 1347.53 888.41 1345.2L888.409 1345.2Z" fill="black"/><path id="Stroke 41 (Stroke)" fill-rule="evenodd" clip-rule="evenodd" d="M962.765 1365.94C964.565 1363.65 965.983 1360.96 966.863 1357.94L970.703 1359.06C969.679 1362.57 968.023 1365.73 965.907 1368.41C963.794 1371.1 961.129 1373.35 958.247 1374.98L958.247 1374.98C952.459 1378.25 945.44 1379.2 938.736 1377.04L939.965 1373.23C945.538 1375.03 951.401 1374.25 956.279 1371.49C958.724 1370.11 960.984 1368.21 962.763 1365.94L962.765 1365.94Z" fill="black"/><g id="Group 46"><path id="Fill 43" fill-rule="evenodd" clip-rule="evenodd" d="M952.737 1316.92C952.737 1316.92 949.586 1315.89 946.091 1316.34C942.579 1316.79 938.699 1318.69 937.237 1324.53C936.023 1329.39 931.827 1327.5 922.582 1325.04L881.27 1314.03" fill="white"/><path id="Stroke 45 (Stroke)" fill-rule="evenodd" clip-rule="evenodd" d="M881.338 1315.51C881.622 1314.45 882.718 1313.81 883.785 1314.1L925.097 1325.11C925.098 1325.11 925.097 1325.11 925.097 1325.11C926.293 1325.43 927.342 1325.72 928.309 1325.99C929.305 1326.26 930.214 1326.52 931.107 1326.75C932.812 1327.19 934.087 1327.47 935.068 1327.54C936.053 1327.61 936.458 1327.46 936.634 1327.34C936.775 1327.25 937.064 1326.98 937.298 1326.05C938.123 1322.75 939.678 1320.41 941.654 1318.85C943.608 1317.3 945.832 1316.62 947.838 1316.36C949.837 1316.1 951.703 1316.27 953.046 1316.49C953.724 1316.6 954.285 1316.73 954.682 1316.83C954.881 1316.88 955.041 1316.92 955.154 1316.95C955.211 1316.97 955.257 1316.98 955.29 1316.99L955.332 1317.01L955.345 1317.01L955.351 1317.01L955.354 1317.01C955.354 1317.01 955.355 1317.01 954.737 1318.92L955.354 1317.01C956.404 1317.36 956.981 1318.48 956.64 1319.53C956.299 1320.58 955.174 1321.16 954.124 1320.82M954.12 1320.82L954.112 1320.82C954.097 1320.81 954.072 1320.8 954.036 1320.79C953.964 1320.77 953.849 1320.74 953.698 1320.7C953.396 1320.63 952.95 1320.53 952.404 1320.44C951.298 1320.26 949.842 1320.14 948.346 1320.33L948.344 1320.33C946.839 1320.52 945.367 1321.01 944.138 1321.98C942.931 1322.94 941.815 1324.47 941.178 1327.02C940.805 1328.51 940.113 1329.84 938.837 1330.68C937.596 1331.5 936.147 1331.63 934.776 1331.53C933.4 1331.43 931.817 1331.07 930.097 1330.62C929.241 1330.4 928.252 1330.12 927.195 1329.83C926.196 1329.55 925.135 1329.26 924.068 1328.97L882.755 1317.96C881.688 1317.68 881.053 1316.58 881.338 1315.51" fill="black"/></g><path id="Fill 47" fill-rule="evenodd" clip-rule="evenodd" d="M978.643 1315.71L869.538 1288.8C872.017 1279 874.214 1269.06 876.5 1259.15L879.691 1244.19L881.282 1236.71C881.799 1234.21 882.268 1231.69 882.765 1229.19C890.213 1191.69 896.29 1153.74 901.147 1115.58L902.91 1101.26C903.501 1096.49 904.113 1091.72 904.571 1086.92L907.557 1058.19C907.605 1057.76 907.575 1057.95 907.578 1057.9C907.574 1057.9 907.574 1057.89 907.574 1057.89C907.574 1057.89 907.572 1057.89 907.579 1057.89L907.969 1057.91L908.751 1057.95C909.302 1057.96 909.722 1058.01 910.193 1058.03C911.119 1058.08 912.055 1058.1 913.001 1058.1C913.911 1058.1 914.67 1058.13 915.528 1058.1L917.89 1058.02C918.605 1057.99 919.38 1057.92 920.072 1057.85C920.69 1057.81 921.317 1057.75 921.954 1057.67L922.432 1057.6L922.833 1057.55L923.618 1057.44L925.083 1057.17C925.492 1057.1 925.964 1056.98 926.341 1056.89C926.656 1056.82 926.981 1056.74 927.314 1056.64L927.711 1056.53L928.049 1056.42L928.577 1056.24L928.899 1056.11L929.018 1056.06L928.873 1056.13C928.538 1056.3 927.704 1056.78 926.495 1057.7C925.254 1058.64 923.519 1060.1 921.631 1062.05C919.776 1063.97 917.477 1066.55 915.163 1069.63L914.291 1070.81L913.906 1071.36C913.912 1071.36 913.895 1071.35 913.895 1071.35C913.874 1071.35 913.856 1071.34 913.844 1071.32C913.823 1071.3 913.748 1071.27 913.708 1071.23L913.638 1071.18L913.514 1071.12C912.93 1070.74 911.528 1070.04 909.65 1069.28C907.718 1068.52 905.286 1067.69 902.489 1066.93C896.854 1065.39 889.92 1064.07 882.391 1063.14C874.857 1062.2 866.737 1061.6 858.338 1061.29C849.932 1060.98 841.237 1060.96 832.392 1061.17C814.687 1061.59 796.406 1062.91 777.974 1064.83C759.534 1066.76 740.908 1069.3 722.309 1072.3C707.756 1074.65 693.536 1070.89 682 1062.81C670.479 1054.73 661.668 1042.31 658.317 1027.17V1027.17C654.814 1012.05 658.194 996.893 666.574 984.872C674.935 972.85 688.324 963.971 704.374 961.38C724.854 958.074 745.451 955.258 766.293 953.077C787.139 950.907 808.212 949.351 829.742 948.833C840.51 948.58 851.396 948.594 862.466 949C873.538 949.41 884.789 950.205 896.348 951.646C907.905 953.094 919.784 955.183 932.205 958.562C938.422 960.27 944.788 962.332 951.316 964.921C957.859 967.558 964.565 970.693 971.41 974.813C974.826 976.869 978.264 979.136 981.693 981.75C985.116 984.349 988.52 987.203 991.825 990.469C995.125 993.718 998.325 997.278 1001.29 1001.21C1004.25 1005.14 1006.97 1009.39 1009.33 1013.88C1014.06 1022.86 1017.23 1032.74 1018.7 1042.18C1019.1 1044.57 1019.34 1046.88 1019.57 1049.21C1019.67 1050.36 1019.74 1051.5 1019.8 1052.64C1019.88 1053.79 1019.91 1054.92 1019.92 1056.02C1019.94 1057.13 1019.96 1058.27 1019.95 1059.36L1019.85 1062.61C1019.83 1063.71 1019.74 1064.75 1019.67 1065.8L1019.55 1067.38C1019.51 1067.87 1019.46 1068.53 1019.43 1068.76L1016.26 1099.27C1015.77 1104.36 1015.13 1109.44 1014.5 1114.51L1012.62 1129.75C1007.45 1170.36 1000.98 1210.84 992.969 1251.16C992.435 1253.86 991.929 1256.55 991.372 1259.25L989.657 1267.32L986.211 1283.47C983.738 1294.22 981.352 1304.97 978.643 1315.71" fill="#ff830f"/><ellipse id="Oval" cx="922.853" cy="1054.9" rx="11.0429" ry="14.7227" fill="#ff830f"/></g><g id="bike"><path id="Stroke 2 (Stroke)" fill-rule="evenodd" clip-rule="evenodd" d="M1157.51 1548.73V1167.87H1161.51V1548.73H1157.51Z" fill="black"/><g id="Group 5"><path id="Fill 3" fill-rule="evenodd" clip-rule="evenodd" d="M1023.25 1223.65L1292.59 1492.96Z" fill="white"/><path id="Stroke 4 (Stroke)" fill-rule="evenodd" clip-rule="evenodd" d="M1292.59 1495.78L1023.25 1226.47L1026.08 1223.65L1295.41 1492.96L1292.59 1495.78Z" fill="black"/></g><path id="Stroke 7 (Stroke)" fill-rule="evenodd" clip-rule="evenodd" d="M1348.36 1361.89H967.473V1357.89H1348.36V1361.89Z" fill="black"/><g id="Group 10"><path id="Fill 8" fill-rule="evenodd" clip-rule="evenodd" d="M1023.25 1492.96L1292.59 1223.65Z" fill="white"/><path id="Stroke 9 (Stroke)" fill-rule="evenodd" clip-rule="evenodd" d="M1295.41 1226.47L1026.08 1495.78L1023.25 1492.96L1292.59 1223.65L1295.41 1226.47Z" fill="black"/></g><path id="Stroke 12 (Stroke)" fill-rule="evenodd" clip-rule="evenodd" d="M428.83 1548.73V1167.87H432.83V1548.73H428.83Z" fill="black"/><g id="Group 15"><path id="Fill 13" fill-rule="evenodd" clip-rule="evenodd" d="M294.574 1223.65L563.906 1492.96Z" fill="white"/><path id="Stroke 14 (Stroke)" fill-rule="evenodd" clip-rule="evenodd" d="M563.906 1495.78L294.574 1226.47L297.403 1223.65L566.734 1492.96L563.906 1495.78Z" fill="black"/></g><path id="Stroke 17 (Stroke)" fill-rule="evenodd" clip-rule="evenodd" d="M619.685 1361.89H238.793V1357.89H619.685V1361.89Z" fill="black"/><g id="Group 20"><path id="Fill 18" fill-rule="evenodd" clip-rule="evenodd" d="M294.574 1492.96L563.906 1223.65Z" fill="white"/><path id="Stroke 19 (Stroke)" fill-rule="evenodd" clip-rule="evenodd" d="M566.734 1226.47L297.403 1495.78L294.574 1492.96L563.906 1223.65L566.734 1226.47Z" fill="black"/></g><path id="Fill 21" fill-rule="evenodd" clip-rule="evenodd" d="M824.284 1369.9H786.866L595.703 1132.91H633.121L824.284 1369.9Z" fill="white"/><path id="Stroke 22 (Stroke)" fill-rule="evenodd" clip-rule="evenodd" d="M595.703 1132.91H638.26L832.65 1373.9H790.093L595.703 1132.91ZM604.069 1136.91L792.006 1369.9H824.284L636.347 1136.91H604.069Z" fill="black"/><path id="Fill 23" fill-rule="evenodd" clip-rule="evenodd" d="M429.24 1534.51C331.915 1534.51 253.017 1455.62 253.017 1358.3C253.017 1260.98 331.915 1182.09 429.24 1182.09C526.564 1182.09 605.462 1260.98 605.462 1358.3C605.462 1455.62 526.564 1534.51 429.24 1534.51M429.24 1143.14C310.401 1143.14 214.062 1239.47 214.062 1358.3C214.062 1477.13 310.401 1573.46 429.24 1573.46C548.079 1573.46 644.417 1477.13 644.417 1358.3C644.417 1239.47 548.079 1143.14 429.24 1143.14" fill="black"/><path id="Stroke 25 (Stroke)" fill-rule="evenodd" clip-rule="evenodd" d="M214.062 1360.3C214.062 1240.37 311.296 1143.14 431.24 1143.14C551.183 1143.14 648.417 1240.37 648.417 1360.3C648.417 1480.23 551.183 1577.46 431.24 1577.46C311.296 1577.46 214.062 1480.23 214.062 1360.3ZM431.24 1147.14C313.505 1147.14 218.062 1242.57 218.062 1360.3C218.062 1478.02 313.505 1573.46 431.24 1573.46C548.974 1573.46 644.417 1478.02 644.417 1360.3C644.417 1242.57 548.974 1147.14 431.24 1147.14ZM431.24 1186.09C335.019 1186.09 257.017 1264.09 257.017 1360.3C257.017 1456.51 335.019 1534.51 431.24 1534.51C527.46 1534.51 605.462 1456.51 605.462 1360.3C605.462 1264.09 527.46 1186.09 431.24 1186.09ZM253.017 1360.3C253.017 1261.88 332.81 1182.09 431.24 1182.09C529.669 1182.09 609.462 1261.88 609.462 1360.3C609.462 1458.72 529.669 1538.51 431.24 1538.51C332.81 1538.51 253.017 1458.72 253.017 1360.3Z" fill="black"/><path id="Fill 27" fill-rule="evenodd" clip-rule="evenodd" d="M407.572 1369.9H446.233L643.751 1132.91H605.09L407.572 1369.9Z" fill="white"/><path id="Stroke 29 (Stroke)" fill-rule="evenodd" clip-rule="evenodd" d="M608.424 1132.91H652.291L451.44 1373.9H407.572L608.424 1132.91ZM610.297 1136.91L416.113 1369.9H449.567L643.751 1136.91H610.297Z" fill="black"/><path id="Fill 31" fill-rule="evenodd" clip-rule="evenodd" d="M880.024 1385.37L938.455 1401.48C943.481 1402.86 948.678 1399.91 950.063 1394.88L953.191 1383.53C954.575 1378.51 951.624 1373.31 946.598 1371.93L888.168 1355.83C883.142 1354.44 877.944 1357.39 876.559 1362.42L873.431 1373.77C872.047 1378.79 874.998 1383.99 880.024 1385.37" fill="black"/><path id="Fill 49" fill-rule="evenodd" clip-rule="evenodd" d="M909.426 1369.9V1369.9C909.426 1365.07 905.51 1361.16 900.679 1361.16H798.43C793.599 1361.16 789.684 1365.07 789.684 1369.9C789.684 1374.73 793.599 1378.65 798.43 1378.65H900.679C905.51 1378.65 909.426 1374.73 909.426 1369.9" fill="white"/><path id="Stroke 51 (Stroke)" fill-rule="evenodd" clip-rule="evenodd" d="M789.684 1371.4C789.684 1365.75 794.271 1361.16 799.93 1361.16H902.179C907.838 1361.16 912.426 1365.75 912.426 1371.4C912.426 1377.06 907.838 1381.65 902.179 1381.65H799.93C794.271 1381.65 789.684 1377.06 789.684 1371.4ZM799.93 1364.16C795.928 1364.16 792.684 1367.4 792.684 1371.4C792.684 1375.41 795.928 1378.65 799.93 1378.65H902.179C906.182 1378.65 909.426 1375.41 909.426 1371.4C909.426 1367.4 906.181 1364.16 902.179 1364.16H799.93Z" fill="black"/><path id="Fill 53" fill-rule="evenodd" clip-rule="evenodd" d="M1157.92 1534.51C1060.59 1534.51 981.697 1455.62 981.697 1358.3C981.697 1260.98 1060.59 1182.09 1157.92 1182.09C1255.24 1182.09 1334.14 1260.98 1334.14 1358.3C1334.14 1455.62 1255.24 1534.51 1157.92 1534.51M1157.92 1143.14C1039.08 1143.14 942.742 1239.47 942.742 1358.3C942.742 1477.13 1039.08 1573.46 1157.92 1573.46C1276.76 1573.46 1373.1 1477.13 1373.1 1358.3C1373.1 1239.47 1276.76 1143.14 1157.92 1143.14" fill="black"/><path id="Stroke 55 (Stroke)" fill-rule="evenodd" clip-rule="evenodd" d="M942.742 1360.3C942.742 1240.37 1039.98 1143.14 1159.92 1143.14C1279.86 1143.14 1377.1 1240.37 1377.1 1360.3C1377.1 1480.23 1279.86 1577.46 1159.92 1577.46C1039.98 1577.46 942.742 1480.23 942.742 1360.3ZM1159.92 1147.14C1042.18 1147.14 946.742 1242.57 946.742 1360.3C946.742 1478.02 1042.18 1573.46 1159.92 1573.46C1277.65 1573.46 1373.1 1478.02 1373.1 1360.3C1373.1 1242.57 1277.65 1147.14 1159.92 1147.14ZM1159.92 1186.09C1063.7 1186.09 985.697 1264.09 985.697 1360.3C985.697 1456.51 1063.7 1534.51 1159.92 1534.51C1256.14 1534.51 1334.14 1456.51 1334.14 1360.3C1334.14 1264.09 1256.14 1186.09 1159.92 1186.09ZM981.697 1360.3C981.697 1261.88 1061.49 1182.09 1159.92 1182.09C1258.35 1182.09 1338.14 1261.88 1338.14 1360.3C1338.14 1458.72 1258.35 1538.51 1159.92 1538.51C1061.49 1538.51 981.697 1458.72 981.697 1360.3Z" fill="black"/><path id="Fill 57" fill-rule="evenodd" clip-rule="evenodd" d="M495.055 992.072C495.055 940.885 543.765 899.389 603.853 899.389C663.941 899.389 712.651 940.885 712.651 992.072C712.651 1043.26 663.941 1084.76 603.853 1084.76C543.765 1084.76 495.055 1043.26 495.055 992.072" fill="black"/><path id="Fill 59" fill-rule="evenodd" clip-rule="evenodd" d="M781.834 1369.9H819.251L1038.27 1089.83H1000.85L781.834 1369.9Z" fill="white"/><path id="Stroke 61 (Stroke)" fill-rule="evenodd" clip-rule="evenodd" d="M1001.28 1090.6C1001.66 1090.12 1002.24 1089.83 1002.85 1089.83H1040.27C1041.04 1089.83 1041.74 1090.27 1042.07 1090.96C1042.41 1091.65 1042.32 1092.46 1041.85 1093.07L822.827 1373.14C822.448 1373.62 821.867 1373.9 821.251 1373.9H783.834C783.069 1373.9 782.371 1373.47 782.036 1372.78C781.701 1372.09 781.787 1371.28 782.259 1370.67L1001.28 1090.6ZM1003.83 1093.83L787.937 1369.9H820.277L1036.17 1093.83H1003.83Z" fill="black"/><path id="Fill 63" fill-rule="evenodd" clip-rule="evenodd" d="M662.851 1136.92H562.704C547.849 1136.92 535.807 1124.88 535.807 1110.03C535.807 1095.17 547.849 1083.13 562.704 1083.13H662.851C677.706 1083.13 689.748 1095.17 689.748 1110.03C689.748 1124.88 677.706 1136.92 662.851 1136.92" fill="white"/><path id="Stroke 65 (Stroke)" fill-rule="evenodd" clip-rule="evenodd" d="M564.704 1087.13C550.954 1087.13 539.807 1098.28 539.807 1112.03C539.807 1125.78 550.954 1136.92 564.704 1136.92H664.851C678.601 1136.92 689.748 1125.78 689.748 1112.03C689.748 1098.28 678.601 1087.13 664.851 1087.13H564.704ZM535.807 1112.03C535.807 1096.07 548.745 1083.13 564.704 1083.13H664.851C680.81 1083.13 693.748 1096.07 693.748 1112.03C693.748 1127.99 680.81 1140.92 664.851 1140.92H564.704C548.745 1140.92 535.807 1127.99 535.807 1112.03Z" fill="black"/><path id="Fill 67" fill-rule="evenodd" clip-rule="evenodd" d="M1181.11 1358.3H1143.37L972.682 1030H1010.42L1181.11 1358.3Z" fill="white"/><path id="Stroke 69 (Stroke)" fill-rule="evenodd" clip-rule="evenodd" d="M972.972 1030.96C973.335 1030.36 973.983 1030 974.682 1030H1012.42C1013.16 1030 1013.85 1030.41 1014.19 1031.07L1184.88 1359.38C1185.2 1360 1185.18 1360.74 1184.82 1361.34C1184.45 1361.94 1183.81 1362.3 1183.11 1362.3H1145.37C1144.63 1362.3 1143.94 1361.88 1143.6 1361.22L972.907 1032.92C972.585 1032.3 972.609 1031.55 972.972 1030.96ZM977.976 1034L1146.59 1358.3H1179.81L1011.2 1034H977.976Z" fill="black"/><path id="Fill 71" fill-rule="evenodd" clip-rule="evenodd" d="M972.682 1030H1010.42V992.264H972.682V1030Z" fill="white"/><path id="Stroke 73 (Stroke)" fill-rule="evenodd" clip-rule="evenodd" d="M972.682 994.264C972.682 993.16 973.577 992.264 974.682 992.264H1012.42C1013.52 992.264 1014.42 993.16 1014.42 994.264V1032C1014.42 1033.1 1013.52 1034 1012.42 1034H974.682C973.577 1034 972.682 1033.1 972.682 1032V994.264ZM976.682 996.264V1030H1010.42V996.264H976.682Z" fill="black"/><path id="Fill 74" fill-rule="evenodd" clip-rule="evenodd" d="M1184.15 1358.3C1184.15 1372.79 1172.41 1384.53 1157.92 1384.53C1143.43 1384.53 1131.69 1372.79 1131.69 1358.3C1131.69 1343.81 1143.43 1332.07 1157.92 1332.07C1172.41 1332.07 1184.15 1343.81 1184.15 1358.3" fill="white"/><path id="Stroke 75 (Stroke)" fill-rule="evenodd" clip-rule="evenodd" d="M1159.92 1336.07C1146.54 1336.07 1135.69 1346.92 1135.69 1360.3C1135.69 1373.68 1146.54 1384.53 1159.92 1384.53C1173.3 1384.53 1184.15 1373.68 1184.15 1360.3C1184.15 1346.92 1173.3 1336.07 1159.92 1336.07ZM1131.69 1360.3C1131.69 1344.71 1144.33 1332.07 1159.92 1332.07C1175.51 1332.07 1188.15 1344.71 1188.15 1360.3C1188.15 1375.89 1175.51 1388.53 1159.92 1388.53C1144.33 1388.53 1131.69 1375.89 1131.69 1360.3Z" fill="black"/><path id="Fill 76" fill-rule="evenodd" clip-rule="evenodd" d="M1002.61 895.336H972.683H948.68V932.88V965.891H972.683V932.88H978.331C995.9 932.88 1010.14 929.832 1010.14 943.714V1023.43C1010.14 1025.69 1009.81 1027.89 1009.2 1030C1023.61 1027.4 1034.42 1016.48 1034.42 1003.39V922.529C1034.42 907.511 1020.18 895.336 1002.61 895.336" fill="white"/><path id="Stroke 77 (Stroke)" fill-rule="evenodd" clip-rule="evenodd" d="M948.68 897.336C948.68 896.232 949.575 895.336 950.68 895.336H1004.61C1022.98 895.336 1038.42 908.124 1038.42 924.529V1005.39C1038.42 1019.67 1026.67 1031.24 1011.56 1033.96C1010.88 1034.09 1010.18 1033.85 1009.72 1033.33C1009.25 1032.82 1009.09 1032.1 1009.28 1031.44C1009.84 1029.51 1010.14 1027.5 1010.14 1025.43V945.714C1010.14 942.59 1009.35 940.74 1008.2 939.554C1007.02 938.327 1005.17 937.517 1002.49 937.063C999.812 936.61 996.547 936.552 992.75 936.62C991.42 936.644 990.017 936.684 988.561 936.726C985.945 936.8 983.161 936.88 980.331 936.88H976.683V967.891C976.683 968.995 975.787 969.891 974.683 969.891H950.68C949.575 969.891 948.68 968.995 948.68 967.891V897.336ZM952.68 899.336V965.891H972.683V934.88C972.683 933.775 973.578 932.88 974.683 932.88H980.331C983.117 932.88 985.779 932.804 988.349 932.73C989.82 932.688 991.261 932.647 992.677 932.621C996.492 932.552 1000.08 932.599 1003.16 933.119C1006.23 933.639 1009.05 934.67 1011.08 936.775C1013.16 938.922 1014.14 941.897 1014.14 945.714V1025.43C1014.14 1026.76 1014.04 1028.07 1013.84 1029.35C1025.96 1026.02 1034.42 1016.4 1034.42 1005.39V924.529C1034.42 910.898 1021.38 899.336 1004.61 899.336H952.68Z" fill="black"/><path id="Fill 78" fill-rule="evenodd" clip-rule="evenodd" d="M429.24 1376.8H828.746V1339.71H429.24V1376.8Z" fill="white"/><path id="Stroke 79 (Stroke)" fill-rule="evenodd" clip-rule="evenodd" d="M429.24 1339.71H832.746V1380.8H429.24V1339.71ZM433.24 1343.71V1376.8H828.746V1343.71H433.24Z" fill="black"/><path id="Fill 80" fill-rule="evenodd" clip-rule="evenodd" d="M865.468 1369.9C865.468 1404.72 837.242 1432.94 802.424 1432.94C767.607 1432.94 739.381 1404.72 739.381 1369.9C739.381 1335.09 767.607 1306.87 802.424 1306.87C837.242 1306.87 865.468 1335.09 865.468 1369.9" fill="white"/><path id="Stroke 81 (Stroke)" fill-rule="evenodd" clip-rule="evenodd" d="M804.424 1310.87C770.711 1310.87 743.381 1338.19 743.381 1371.9C743.381 1405.61 770.711 1432.94 804.424 1432.94C838.138 1432.94 865.468 1405.61 865.468 1371.9C865.468 1338.19 838.138 1310.87 804.424 1310.87ZM739.381 1371.9C739.381 1335.99 768.502 1306.87 804.424 1306.87C840.347 1306.87 869.468 1335.99 869.468 1371.9C869.468 1407.82 840.347 1436.94 804.424 1436.94C768.502 1436.94 739.381 1407.82 739.381 1371.9Z" fill="black"/><path id="Fill 82" fill-rule="evenodd" clip-rule="evenodd" d="M818.922 1369.9C818.922 1379.02 811.536 1386.4 802.424 1386.4C793.312 1386.4 785.926 1379.02 785.926 1369.9C785.926 1360.79 793.312 1353.41 802.424 1353.41C811.536 1353.41 818.922 1360.79 818.922 1369.9" fill="white"/><path id="Stroke 83 (Stroke)" fill-rule="evenodd" clip-rule="evenodd" d="M804.424 1357.41C796.417 1357.41 789.926 1363.9 789.926 1371.9C789.926 1379.91 796.417 1386.4 804.424 1386.4C812.431 1386.4 818.922 1379.91 818.922 1371.9C818.922 1363.9 812.431 1357.41 804.424 1357.41ZM785.926 1371.9C785.926 1361.69 794.208 1353.41 804.424 1353.41C814.64 1353.41 822.922 1361.69 822.922 1371.9C822.922 1382.12 814.64 1390.4 804.424 1390.4C794.208 1390.4 785.926 1382.12 785.926 1371.9Z" fill="black"/><path id="Fill 84" fill-rule="evenodd" clip-rule="evenodd" d="M455.473 1358.3C455.473 1372.79 443.728 1384.53 429.24 1384.53C414.751 1384.53 403.006 1372.79 403.006 1358.3C403.006 1343.81 414.751 1332.07 429.24 1332.07C443.728 1332.07 455.473 1343.81 455.473 1358.3" fill="white"/><path id="Stroke 85 (Stroke)" fill-rule="evenodd" clip-rule="evenodd" d="M431.24 1336.07C417.856 1336.07 407.006 1346.92 407.006 1360.3C407.006 1373.68 417.856 1384.53 431.24 1384.53C444.624 1384.53 455.473 1373.68 455.473 1360.3C455.473 1346.92 444.624 1336.07 431.24 1336.07ZM403.006 1360.3C403.006 1344.71 415.647 1332.07 431.24 1332.07C446.832 1332.07 459.473 1344.71 459.473 1360.3C459.473 1375.89 446.832 1388.53 431.24 1388.53C415.647 1388.53 403.006 1375.89 403.006 1360.3Z" fill="black"/><path id="Fill 86" fill-rule="evenodd" clip-rule="evenodd" d="M691.479 1369.9V1369.9C691.479 1365.07 695.395 1361.16 700.225 1361.16H802.474C807.305 1361.16 811.22 1365.07 811.22 1369.9C811.22 1374.73 807.305 1378.65 802.474 1378.65H700.225C695.395 1378.65 691.479 1374.73 691.479 1369.9" fill="white"/><path id="Stroke 87 (Stroke)" fill-rule="evenodd" clip-rule="evenodd" d="M701.725 1364.16C697.723 1364.16 694.479 1367.4 694.479 1371.4C694.479 1375.41 697.723 1378.65 701.725 1378.65H803.974C807.976 1378.65 811.22 1375.41 811.22 1371.4C811.22 1367.4 807.976 1364.16 803.974 1364.16H701.725ZM691.479 1371.4C691.479 1365.75 696.067 1361.16 701.725 1361.16H803.974C809.633 1361.16 814.22 1365.75 814.22 1371.4C814.22 1377.06 809.633 1381.65 803.974 1381.65H701.725C696.067 1381.65 691.479 1377.06 691.479 1371.4Z" fill="black"/><path id="Fill 88" fill-rule="evenodd" clip-rule="evenodd" d="M704.39 1402.89L664.983 1356.85C661.593 1352.88 662.056 1346.93 666.017 1343.54L674.963 1335.88C678.924 1332.49 684.882 1332.96 688.271 1336.92L727.679 1382.96C731.068 1386.92 730.605 1392.88 726.644 1396.27L717.698 1403.93C713.738 1407.32 707.779 1406.85 704.39 1402.89" fill="black"/></g><g id="black"><path id="Fill 89" fill-rule="evenodd" clip-rule="evenodd" d="M714.931 1277.77C738.501 1249.9 761.432 1220.94 783.843 1191.46L792.25 1180.4L800.563 1169.24L808.865 1158.07L813.014 1152.49L816.799 1147.25L832 1126.36L832.792 1125.27L833.046 1124.91C833.215 1124.67 833.384 1124.42 833.542 1124.18C833.87 1123.68 834.175 1123.18 834.472 1122.67C835.061 1121.64 835.581 1120.57 835.992 1119.47C836.819 1117.26 837.198 1114.84 836.725 1112.51C836.249 1110.18 834.969 1108.08 833.295 1106.42C831.628 1104.73 829.636 1103.41 827.561 1102.29L826.776 1101.88C826.51 1101.75 826.215 1101.63 825.952 1101.48L825.852 1101.42C825.836 1101.41 825.683 1101.35 825.605 1101.31L825.033 1101.04L823.89 1100.52C823.128 1100.16 822.312 1099.82 821.528 1099.47C818.324 1098.09 814.908 1096.76 811.351 1095.49C804.232 1092.95 796.559 1090.66 788.594 1088.63C780.637 1086.57 772.372 1084.77 763.962 1083.15C747.115 1079.91 729.638 1077.43 711.93 1075.47L719.815 1004.18C739.016 1006.3 758.245 1009.01 777.515 1012.71C787.15 1014.57 796.793 1016.67 806.449 1019.15C816.104 1021.63 825.771 1024.48 835.443 1027.93C840.279 1029.65 845.115 1031.53 849.948 1033.61C851.156 1034.14 852.364 1034.66 853.572 1035.21L855.383 1036.05C856.005 1036.34 856.532 1036.58 857.285 1036.95C860.107 1038.31 862.91 1039.75 865.665 1041.27C876.654 1047.35 886.932 1054.76 895.2 1063.93C899.326 1068.51 902.966 1073.51 905.843 1078.93C908.769 1084.33 910.856 1090.17 912.134 1096.17C913.32 1102.19 913.735 1108.38 913.205 1114.5C912.706 1120.61 911.44 1126.67 909.549 1132.55C907.658 1138.44 905.145 1144.15 902.192 1149.65C900.703 1152.4 899.14 1155.12 897.451 1157.77C896.63 1159.1 895.756 1160.41 894.868 1161.71L893.536 1163.65L893.205 1164.13L892.936 1164.5L892.398 1165.24L875.142 1189.02L870.822 1194.96L866.574 1200.68L858.08 1212.11L849.572 1223.53L840.945 1234.88C817.941 1265.13 794.317 1294.99 769.606 1324.2L714.931 1277.77Z" fill="white"/><path id="Fill 90" fill-rule="evenodd" clip-rule="evenodd" d="M718.216 1002.36C737.598 1004.47 757.013 1007.16 776.484 1010.85C786.219 1012.7 795.968 1014.8 805.736 1017.28C815.503 1019.76 825.289 1022.62 835.093 1026.07C839.994 1027.79 844.901 1029.67 849.808 1031.76L853.489 1033.38L857.168 1035.08C858.553 1035.74 860.045 1036.48 861.47 1037.19L865.756 1039.44C877.076 1045.63 887.639 1053.21 896.175 1062.56C900.407 1067.26 904.183 1072.35 907.147 1077.9C910.159 1083.43 912.347 1089.39 913.668 1095.55C914.934 1101.71 915.358 1108.05 914.859 1114.32C914.372 1120.59 913.097 1126.8 911.172 1132.84C909.25 1138.88 906.68 1144.74 903.652 1150.39C902.125 1153.21 900.519 1156 898.787 1158.72C897.945 1160.09 897.037 1161.42 896.13 1162.76L894.762 1164.75L893.641 1166.31L876.206 1190.34L871.844 1196.33L867.562 1202.09L858.998 1213.61C856.134 1217.45 853.309 1221.31 850.413 1225.12L841.715 1236.56C818.5 1267.06 794.69 1297.18 769.698 1326.6L712.589 1277.98C736.35 1250 759.44 1220.82 782.022 1191.15L790.489 1180.01C793.31 1176.3 796.073 1172.52 798.867 1168.78L807.23 1157.53L811.411 1151.9L815.235 1146.62L830.506 1125.63L831.38 1124.44L831.61 1124.11C831.764 1123.89 831.919 1123.67 832.062 1123.44C832.36 1122.99 832.638 1122.53 832.909 1122.07C833.444 1121.14 833.917 1120.17 834.29 1119.16C835.04 1117.16 835.386 1114.96 834.937 1112.84C834.51 1110.73 833.311 1108.84 831.791 1107.33C830.263 1105.82 828.452 1104.62 826.562 1103.61L825.845 1103.24C825.714 1103.19 825.586 1103.13 825.461 1103.07L825.275 1102.97L825.184 1102.92C825.155 1102.91 825.139 1102.89 825.018 1102.84L822.739 1101.79L820.372 1100.75C817.159 1099.38 813.724 1098.06 810.15 1096.8C802.987 1094.28 795.284 1092 787.27 1089.97C779.261 1087.94 770.958 1086.14 762.486 1084.53C745.532 1081.32 727.942 1078.86 710.113 1076.92L718.216 1002.36ZM721.408 1006L713.75 1074.03C731.34 1076.01 748.7 1078.51 765.439 1081.77C773.805 1083.4 782.008 1085.22 789.927 1087.28C797.832 1089.34 805.486 1091.63 812.563 1094.19C816.102 1095.46 819.502 1096.8 822.695 1098.2C823.49 1098.55 824.295 1098.89 825.049 1099.25L826.199 1099.78L826.487 1099.91C826.582 1099.96 826.575 1099.96 826.625 1099.99L826.845 1100.1C827.457 1100.39 828.024 1100.67 828.589 1100.98C830.843 1102.22 833.013 1103.67 834.814 1105.52C836.633 1107.34 838.001 1109.65 838.509 1112.18C839.015 1114.72 838.594 1117.37 837.694 1119.77C837.245 1120.98 836.678 1122.14 836.038 1123.26C835.716 1123.82 835.383 1124.37 835.027 1124.9C834.854 1125.18 834.672 1125.44 834.486 1125.71L834.21 1126.1L833.496 1127.08L818.364 1147.88L814.596 1153.09L810.501 1158.61L802.259 1169.7L794.012 1180.79L785.664 1191.77C763.423 1221.05 740.662 1249.82 717.267 1277.53L769.499 1321.79C793.958 1292.82 817.373 1263.2 840.175 1233.19L848.73 1221.93L857.161 1210.6L865.585 1199.26L869.802 1193.58L874.078 1187.7L891.154 1164.17C891.792 1163.32 892.761 1161.89 893.6 1160.66C894.468 1159.4 895.312 1158.12 896.113 1156.82C897.758 1154.24 899.279 1151.6 900.729 1148.92C903.609 1143.56 906.066 1137.99 907.924 1132.26C909.784 1126.53 911.04 1120.63 911.551 1114.67C912.102 1108.7 911.716 1102.67 910.588 1096.79C908.218 1085.02 902.272 1074.17 894.215 1065.28C886.205 1056.29 876.209 1049.06 865.544 1043.07C862.876 1041.58 860.147 1040.16 857.403 1038.83C855.949 1038.1 854.839 1037.61 853.642 1037.05C852.454 1036.49 851.265 1035.97 850.076 1035.45C845.319 1033.38 840.552 1031.51 835.782 1029.79C816.701 1022.94 797.603 1018.32 778.538 1014.57C759.472 1010.87 740.429 1008.15 721.408 1006V1006Z" fill="black"/><path id="Fill 91" fill-rule="evenodd" clip-rule="evenodd" d="M714.931 1277.77C738.501 1249.9 761.432 1220.94 783.843 1191.46L792.25 1180.4L800.563 1169.24L808.865 1158.07L813.014 1152.49L816.799 1147.25L832 1126.36L832.792 1125.27L833.046 1124.91C833.215 1124.67 833.384 1124.42 833.542 1124.18C833.87 1123.68 834.175 1123.18 834.472 1122.67C835.061 1121.64 835.581 1120.57 835.992 1119.47C836.819 1117.26 837.198 1114.84 836.725 1112.51C836.249 1110.18 834.969 1108.08 833.295 1106.42C831.628 1104.73 829.636 1103.41 827.561 1102.29L826.776 1101.88C826.51 1101.75 826.215 1101.63 825.952 1101.48L825.852 1101.42C825.836 1101.41 825.683 1101.35 825.605 1101.31L825.033 1101.04L823.89 1100.52C823.128 1100.16 822.312 1099.82 821.528 1099.47C818.324 1098.09 814.908 1096.76 811.351 1095.49C804.232 1092.95 796.559 1090.66 788.594 1088.63C780.637 1086.57 772.372 1084.77 763.962 1083.15C747.115 1079.91 729.638 1077.43 711.93 1075.47L719.815 1004.18C739.016 1006.3 758.245 1009.01 777.515 1012.71C787.15 1014.57 796.793 1016.67 806.449 1019.15C816.104 1021.63 825.771 1024.48 835.443 1027.93C840.279 1029.65 845.115 1031.53 849.948 1033.61C851.156 1034.14 852.364 1034.66 853.572 1035.21L855.383 1036.05C856.005 1036.34 856.532 1036.58 857.285 1036.95C860.107 1038.31 862.91 1039.75 865.665 1041.27C876.654 1047.35 886.932 1054.76 895.2 1063.93C899.326 1068.51 902.966 1073.51 905.843 1078.93C908.769 1084.33 910.856 1090.17 912.134 1096.17C913.32 1102.19 913.735 1108.38 913.205 1114.5C912.706 1120.61 911.44 1126.67 909.549 1132.55C907.658 1138.44 905.145 1144.15 902.192 1149.65C900.703 1152.4 899.14 1155.12 897.451 1157.77C896.63 1159.1 895.756 1160.41 894.868 1161.71L893.536 1163.65L893.205 1164.13L892.936 1164.5L892.398 1165.24L875.142 1189.02L870.822 1194.96L866.574 1200.68L858.08 1212.11L849.572 1223.53L840.945 1234.88C817.941 1265.13 794.317 1294.99 769.606 1324.2L714.931 1277.77Z" fill="white"/><path id="Fill 92" fill-rule="evenodd" clip-rule="evenodd" d="M718.216 1002.36C737.598 1004.47 757.013 1007.16 776.484 1010.85C786.219 1012.7 795.968 1014.8 805.736 1017.28C815.503 1019.76 825.289 1022.62 835.093 1026.07C839.994 1027.79 844.901 1029.67 849.808 1031.76L853.489 1033.38L857.168 1035.08C858.553 1035.74 860.045 1036.48 861.47 1037.19L865.756 1039.44C877.076 1045.63 887.639 1053.21 896.175 1062.56C900.407 1067.26 904.183 1072.35 907.147 1077.9C910.159 1083.43 912.347 1089.39 913.668 1095.55C914.934 1101.71 915.358 1108.05 914.859 1114.32C914.372 1120.59 913.097 1126.8 911.173 1132.84C909.25 1138.88 906.68 1144.74 903.652 1150.39C902.125 1153.21 900.519 1156 898.787 1158.72C897.945 1160.09 897.037 1161.42 896.13 1162.76L894.762 1164.75L893.641 1166.31L876.206 1190.34L871.844 1196.33L867.562 1202.09L858.998 1213.61C856.134 1217.45 853.309 1221.31 850.413 1225.12L841.716 1236.56C818.5 1267.06 794.69 1297.18 769.698 1326.6L712.589 1277.98C736.35 1250 759.44 1220.82 782.022 1191.15L790.489 1180.01C793.31 1176.3 796.073 1172.52 798.867 1168.78L807.23 1157.53L811.411 1151.9L815.235 1146.62L830.506 1125.63L831.38 1124.44L831.61 1124.11C831.764 1123.89 831.919 1123.67 832.062 1123.44C832.36 1122.99 832.638 1122.53 832.909 1122.07C833.444 1121.14 833.917 1120.17 834.29 1119.16C835.04 1117.16 835.386 1114.96 834.937 1112.84C834.51 1110.73 833.311 1108.84 831.791 1107.33C830.263 1105.82 828.452 1104.62 826.562 1103.61L825.845 1103.24C825.714 1103.19 825.586 1103.13 825.461 1103.07L825.275 1102.97L825.184 1102.92C825.155 1102.91 825.139 1102.89 825.018 1102.84L822.739 1101.79L820.372 1100.75C817.159 1099.38 813.724 1098.06 810.15 1096.8C802.987 1094.28 795.284 1092 787.27 1089.97C779.262 1087.94 770.958 1086.14 762.486 1084.53C745.532 1081.32 727.942 1078.86 710.113 1076.92L718.216 1002.36ZM721.408 1006L713.75 1074.03C731.34 1076.01 748.7 1078.51 765.439 1081.77C773.805 1083.4 782.008 1085.22 789.927 1087.28C797.833 1089.34 805.486 1091.63 812.563 1094.19C816.102 1095.46 819.502 1096.8 822.695 1098.2C823.49 1098.55 824.295 1098.89 825.049 1099.25L826.199 1099.78L826.487 1099.91C826.582 1099.96 826.575 1099.96 826.625 1099.99L826.845 1100.1C827.457 1100.39 828.024 1100.67 828.589 1100.98C830.843 1102.22 833.013 1103.67 834.814 1105.52C836.633 1107.34 838.001 1109.65 838.509 1112.18C839.015 1114.72 838.594 1117.37 837.694 1119.77C837.245 1120.98 836.678 1122.14 836.038 1123.26C835.716 1123.82 835.383 1124.37 835.027 1124.9C834.854 1125.18 834.672 1125.44 834.486 1125.71L834.21 1126.1L833.496 1127.08L818.364 1147.88L814.596 1153.09L810.501 1158.61L802.259 1169.7L794.012 1180.79L785.664 1191.77C763.423 1221.05 740.663 1249.82 717.267 1277.53L769.499 1321.79C793.958 1292.82 817.373 1263.2 840.175 1233.19L848.73 1221.93L857.161 1210.6L865.585 1199.26L869.802 1193.58L874.078 1187.7L891.154 1164.17C891.792 1163.32 892.761 1161.89 893.6 1160.66C894.468 1159.4 895.312 1158.12 896.113 1156.82C897.758 1154.24 899.279 1151.6 900.729 1148.92C903.609 1143.56 906.066 1137.99 907.924 1132.26C909.784 1126.53 911.041 1120.63 911.551 1114.67C912.102 1108.7 911.716 1102.67 910.589 1096.79C908.218 1085.02 902.272 1074.17 894.215 1065.28C886.205 1056.29 876.209 1049.06 865.544 1043.07C862.876 1041.58 860.147 1040.16 857.403 1038.83C855.949 1038.1 854.839 1037.61 853.642 1037.05C852.454 1036.49 851.265 1035.97 850.076 1035.45C845.319 1033.38 840.552 1031.51 835.782 1029.79C816.701 1022.94 797.603 1018.32 778.538 1014.57C759.472 1010.87 740.429 1008.15 721.408 1006V1006Z" fill="black"/><path id="Fill 93" fill-rule="evenodd" clip-rule="evenodd" d="M697.21 1367.23C698.884 1365.66 700.521 1364.02 702.171 1362.4C702.496 1362.08 702.685 1361.64 702.695 1361.19C702.705 1360.74 702.539 1360.32 702.234 1360.02L687.486 1345.5C686.858 1344.88 685.855 1344.87 685.216 1345.48L682.911 1347.61L681.771 1348.66L680.687 1349.62L664.707 1332.59C665.611 1331.75 666.8 1330.57 667.916 1329.49C668.469 1328.96 669.062 1328.35 669.653 1327.76L671.419 1325.97C672.591 1324.81 673.792 1323.55 674.992 1322.3L678.59 1318.56L685.816 1310.82L693.029 1302.87C695.432 1300.21 697.812 1297.47 700.206 1294.78L703.793 1290.72L707.351 1286.58L714.466 1278.31L721.519 1269.91C740.311 1247.47 758.659 1224.31 776.716 1200.84L833.656 1244.52C830.113 1249.19 826.456 1253.8 822.861 1258.45C819.238 1263.08 815.675 1267.75 812.001 1272.35C804.662 1281.55 797.372 1290.78 789.863 1299.88C774.933 1318.13 759.687 1336.17 743.692 1353.83C743.37 1354.18 743.193 1354.64 743.198 1355.1C743.204 1355.55 743.386 1355.96 743.703 1356.25C743.71 1356.26 743.809 1356.35 743.809 1356.35C744.644 1357.12 752.187 1364.12 755.734 1374.94C756.822 1378.29 757.37 1381.64 757.436 1385C757.475 1388.36 757.103 1391.7 756.064 1395.06C755.556 1396.75 754.92 1398.43 754.157 1400.1C753.776 1400.94 753.363 1401.78 752.919 1402.62C752.453 1403.46 751.939 1404.31 751.402 1405.16C750.862 1406.01 750.29 1406.85 749.686 1407.7C749.078 1408.55 748.468 1409.38 747.719 1410.27C746.242 1412.04 744.802 1413.69 742.714 1415.72L697.21 1367.23Z" fill="white"/><path id="Fill 94" fill-rule="evenodd" clip-rule="evenodd" d="M836.019 1244.11C832.446 1248.86 828.744 1253.53 825.099 1258.24C821.434 1262.93 817.805 1267.65 814.109 1272.33C806.663 1281.64 799.3 1291.01 791.689 1300.23C776.572 1318.73 761.126 1337.02 744.904 1354.93C744.904 1354.93 744.94 1354.96 745.011 1355.02C745.995 1355.93 753.712 1363.1 757.374 1374.23C759.231 1379.79 759.894 1386.37 758.188 1393.69C757.737 1395.52 757.096 1397.41 756.296 1399.33C755.894 1400.3 755.447 1401.27 754.954 1402.26C754.467 1403.24 753.923 1404.23 753.281 1405.26C752.651 1406.28 751.972 1407.31 751.238 1408.34C750.491 1409.39 749.756 1410.4 748.809 1411.52C747.893 1412.62 746.918 1413.73 745.882 1414.84C745.31 1415.44 744.673 1416.08 744.044 1416.7C743.724 1417.02 743.402 1417.33 743.078 1417.65C742.557 1418.13 742.031 1418.61 741.501 1419.1L713.272 1387.66L694.877 1367.17C696.897 1365.31 698.983 1363.25 701.017 1361.25L686.336 1346.68L683.447 1349.34C682.954 1349.81 682.523 1350.17 682.059 1350.59L681.376 1351.2L680.899 1351.6L663.143 1331.83L663.166 1331.8L663.435 1331.54L664.166 1330.85C664.617 1330.44 665.248 1329.8 665.801 1329.27L667.514 1327.59L669.307 1325.78C671.681 1323.42 674.141 1320.82 676.574 1318.3L683.919 1310.46L691.258 1302.39C693.709 1299.71 696.127 1296.9 698.565 1294.16L702.216 1290.03L705.839 1285.83L713.083 1277.41C715.492 1274.59 717.87 1271.71 720.265 1268.86C739.4 1246.01 758.08 1222.41 776.454 1198.48L836.019 1244.11ZM831.296 1244.92L776.977 1203.2C759.237 1226.21 741.222 1248.93 722.773 1270.96L715.85 1279.21L708.863 1287.33L705.371 1291.4L701.849 1295.39L694.803 1303.35L687.716 1311.16C685.353 1313.75 682.98 1316.24 680.614 1318.79C679.429 1320.08 678.253 1321.26 677.072 1322.5L673.542 1326.16L670.06 1329.67L666.736 1332.93L680.657 1347.46L684.096 1344.29C685.368 1343.08 687.376 1343.09 688.638 1344.32L703.435 1358.77L703.452 1358.79C704.065 1359.4 704.399 1360.24 704.378 1361.13C704.359 1362.02 703.979 1362.9 703.326 1363.56L699.592 1367.22L716.379 1384.75L743.279 1412.83C744.089 1411.98 744.759 1411.21 745.462 1410.4C746.145 1409.6 746.82 1408.79 747.427 1407.99C748.587 1406.45 749.634 1404.89 750.567 1403.34C751.522 1401.77 752.276 1400.24 752.928 1398.71C753.582 1397.17 754.125 1395.63 754.555 1394.09C755.443 1391 755.743 1387.94 755.671 1384.86C755.582 1381.79 755.052 1378.71 754.079 1375.64C750.696 1365.19 743.404 1358.42 742.607 1357.67L742.539 1357.61L742.505 1357.58C741.87 1357 741.507 1356.17 741.496 1355.27C741.487 1354.35 741.839 1353.44 742.48 1352.73C758.25 1335.32 773.297 1317.53 788.04 1299.52C791.702 1295.01 795.436 1290.54 799.037 1285.99L809.895 1272.36C813.541 1267.84 817.047 1263.23 820.626 1258.66L831.296 1244.92V1244.92Z" fill="black"/><path id="Stroke 95 (Stroke)" fill-rule="evenodd" clip-rule="evenodd" d="M749.33 1409.77L669.797 1330.35L672.623 1327.52L752.156 1406.94L749.33 1409.77Z" fill="black"/><path id="Stroke 96 (Stroke)" fill-rule="evenodd" clip-rule="evenodd" d="M692.354 1328.77C692.229 1323.25 689.949 1317.89 685.607 1313.9L688.317 1310.96C693.478 1315.71 696.204 1322.1 696.353 1328.68M692.047 1332.92C692.284 1331.54 692.386 1330.15 692.354 1328.77L692.354 1328.77M692.047 1332.92C691.809 1334.28 691.434 1335.61 690.923 1336.93C690.414 1338.24 689.769 1339.51 688.992 1340.73C688.22 1341.92 687.312 1343.04 686.267 1344.1L689.111 1346.91C690.34 1345.67 691.423 1344.33 692.35 1342.91L692.355 1342.9L692.36 1342.89C693.281 1341.45 694.045 1339.93 694.651 1338.38L694.651 1338.38C695.255 1336.82 695.703 1335.23 695.987 1333.61L695.988 1333.6C696.269 1331.97 696.391 1330.32 696.353 1328.68" fill="black"/><path id="Stroke 97 (Stroke)" fill-rule="evenodd" clip-rule="evenodd" d="M748.645 1382.04C751.443 1380.65 754.105 1378.7 756.425 1376.21L759.353 1378.93C756.703 1381.78 753.65 1384.02 750.422 1385.62M724.254 1379.03C726.318 1381.09 728.749 1382.58 731.405 1383.48L731.405 1383.48C734.067 1384.39 736.989 1384.72 739.904 1384.49C742.823 1384.25 745.858 1383.42 748.645 1382.04L748.645 1382.04M724.254 1379.03L721.428 1381.86ZM721.428 1381.86C723.93 1384.35 726.886 1386.17 730.111 1387.27ZM730.111 1387.27C733.333 1388.37 736.81 1388.75 740.229 1388.47L740.231 1388.47C743.655 1388.19 747.182 1387.23 750.422 1385.62" fill="black"/><g id="Group 100"><path id="Fill 98" fill-rule="evenodd" clip-rule="evenodd" d="M762.558 1330.84C762.558 1330.84 760.207 1328.51 756.819 1327.41C755.125 1326.85 753.173 1326.61 751.129 1327.11C749.088 1327.62 746.952 1328.88 744.837 1331.3C741.345 1335.33 738.471 1331.74 731.303 1325.4L699.273 1297.08" fill="white"/><path id="Stroke 99 (Stroke)" fill-rule="evenodd" clip-rule="evenodd" d="M699.775 1297.76C700.507 1296.93 701.771 1296.85 702.598 1297.58L734.627 1325.9C734.627 1325.9 734.627 1325.9 734.627 1325.9C735.556 1326.72 736.363 1327.45 737.106 1328.12C737.872 1328.82 738.571 1329.45 739.267 1330.06C740.592 1331.22 741.607 1332.02 742.45 1332.51C743.287 1332.99 743.724 1333.03 743.961 1332.99C744.184 1332.96 744.623 1332.8 745.325 1331.99L745.331 1331.98C747.667 1329.31 750.144 1327.8 752.646 1327.17L752.65 1327.17C755.142 1326.56 757.482 1326.87 759.438 1327.5C761.385 1328.14 763.004 1329.11 764.121 1329.91C764.684 1330.31 765.132 1330.68 765.445 1330.95C765.602 1331.08 765.725 1331.19 765.813 1331.27C765.837 1331.3 765.859 1331.32 765.877 1331.34C765.893 1331.35 765.906 1331.36 765.918 1331.37L765.949 1331.4L765.96 1331.42L765.967 1331.42C765.967 1331.42 765.967 1331.42 764.558 1332.84L765.967 1331.42C766.751 1332.2 766.756 1333.47 765.978 1334.25C765.2 1335.03 763.936 1335.04 763.152 1334.26C763.152 1334.26 763.152 1334.26 763.152 1334.26C763.152 1334.26 763.151 1334.26 763.15 1334.26C763.15 1334.26 763.15 1334.26 763.15 1334.26L763.145 1334.26C763.136 1334.25 763.123 1334.24 763.104 1334.22C763.099 1334.21 763.094 1334.21 763.088 1334.2C763.034 1334.15 762.948 1334.07 762.831 1333.97C762.597 1333.77 762.246 1333.49 761.798 1333.17C760.893 1332.52 759.641 1331.78 758.201 1331.31L758.2 1331.31C756.768 1330.84 755.206 1330.66 753.61 1331.06C752.032 1331.45 750.237 1332.45 748.346 1334.61C747.303 1335.82 746.075 1336.72 744.554 1336.95C743.046 1337.17 741.661 1336.67 740.447 1335.97C739.239 1335.27 737.973 1334.24 736.634 1333.07C735.968 1332.49 735.204 1331.8 734.387 1331.06C733.618 1330.36 732.802 1329.63 731.978 1328.9L699.949 1300.58C699.121 1299.85 699.043 1298.58 699.775 1297.76Z" fill="black"/></g><path id="Rectangle" fill-rule="evenodd" clip-rule="evenodd" d="M493.504 931.395H602.297V1083.78H552.504C519.919 1083.78 493.504 1057.37 493.504 1024.78V931.395Z" fill="black"/><path id="leg" fill-rule="evenodd" clip-rule="evenodd" d="M786.771 1341.14L701.214 1268.29C716.049 1250.85 730.628 1232.81 745.062 1214.58C759.408 1196.22 773.664 1177.7 787.635 1158.84L798.131 1144.72L799.443 1142.96L800.626 1141.32L802.952 1138.1L807.615 1131.66L818.75 1116.4L817.006 1115.59C810.129 1112.48 801.564 1109.45 792.33 1106.81C783.068 1104.16 773.106 1101.84 762.815 1099.81C752.516 1097.79 741.872 1096.05 731.045 1094.55C709.375 1091.54 686.99 1089.47 664.374 1088.01C641.749 1086.57 618.852 1085.76 595.919 1085.46C580.101 1085.26 565.797 1079.05 555.211 1069.06C544.638 1059.06 537.799 1045.26 537.259 1029.76C536.587 1014.26 542.998 999.958 553.931 989.616C564.849 979.268 580.304 972.886 597.349 973.105C622.031 973.425 646.73 974.294 671.551 975.879C696.372 977.476 721.298 979.762 746.485 983.248C759.082 984.997 771.744 987.052 784.521 989.565C797.302 992.085 810.191 995.05 823.294 998.796C836.401 1002.57 849.724 1007.08 863.476 1013.29L866.062 1014.48L867.475 1015.15L869.182 1015.98C871.453 1017.09 873.709 1018.26 875.949 1019.47C878.194 1020.67 880.388 1021.95 882.577 1023.23C884.735 1024.56 886.9 1025.88 888.99 1027.29C897.412 1032.88 905.183 1039.29 911.918 1046.53C915.309 1050.13 918.387 1053.98 921.188 1058C923.982 1062.02 926.497 1066.23 928.625 1070.63C932.867 1079.42 935.753 1088.89 936.859 1098.6C937.439 1103.45 937.606 1108.34 937.4 1113.23C937.174 1118.11 936.551 1122.97 935.628 1127.8C933.698 1137.43 930.427 1146.87 926.014 1155.9L924.337 1159.27C923.753 1160.39 923.147 1161.5 922.54 1162.6C921.342 1164.82 920.042 1166.99 918.715 1169.15C917.41 1171.32 915.983 1173.43 914.563 1175.53L913.493 1177.1L912.783 1178.08L911.361 1180.05L899.972 1195.78L894.262 1203.64L891.405 1207.57L888.626 1211.34L877.748 1225.98C863.276 1245.51 848.403 1264.83 833.366 1284.08C818.184 1303.25 802.784 1322.32 786.771 1341.14" fill="black"/></g><g id="left"><path id="Fill 102" fill-rule="evenodd" clip-rule="evenodd" d="M1027.12 475.915L950.774 449.281C946.683 447.855 942.545 447.795 939.183 448.797C937.502 449.298 936.014 450.069 934.818 451.082C933.592 452.083 932.644 453.322 932.087 454.787L929.559 461.43L926.86 468.001C925.12 472.408 923.116 476.697 921.238 481.043C917.287 489.641 913.196 498.178 908.703 506.505C899.864 523.239 889.822 539.326 878.908 554.827C858.111 584.093 833.773 610.993 806.63 635.06C779.503 659.134 749.61 680.445 717.928 698.605L765.926 782.374C803.193 761.006 838.376 735.959 870.713 707.272C903.04 678.608 932.418 646.22 957.669 610.667C964.98 600.326 971.925 589.719 978.553 578.911C985.142 568.078 991.308 556.987 997.176 545.742C1002.94 534.443 1008.39 522.984 1013.39 511.336C1018.32 499.661 1023.03 487.889 1027.12 475.915" fill="white"/><path id="Stroke 103 (Stroke)" fill-rule="evenodd" clip-rule="evenodd" d="M940.613 448.88C944.408 447.749 948.976 447.84 953.433 449.392L953.433 449.393L1029.78 476.027C1030.82 476.389 1031.37 477.522 1031.01 478.562C1026.9 490.598 1022.17 502.419 1017.23 514.113L1017.23 514.125C1012.2 525.819 1006.74 537.319 1000.96 548.65L1000.95 548.667C995.066 559.943 988.878 571.073 982.262 581.95L982.258 581.957C975.61 592.798 968.64 603.442 961.303 613.822L961.3 613.825C935.957 649.507 906.477 682.008 874.041 710.768C841.596 739.55 806.302 764.676 768.921 786.109C768.461 786.373 767.915 786.443 767.403 786.304C766.891 786.165 766.455 785.828 766.191 785.368L718.193 701.599C717.644 700.641 717.975 699.419 718.934 698.87C750.502 680.775 780.282 659.544 807.303 635.564L807.304 635.564C834.336 611.594 858.571 584.808 879.275 555.672C890.147 540.232 900.141 524.219 908.934 507.571L908.943 507.555C913.403 499.289 917.472 490.802 921.412 482.228C922.031 480.797 922.655 479.39 923.274 477.992C924.564 475.082 925.836 472.215 927 469.267L927.01 469.241L929.699 462.694L932.217 456.076C932.911 454.251 934.081 452.738 935.539 451.545C936.974 450.332 938.714 449.446 940.612 448.88L940.613 448.88ZM941.755 452.714C940.297 453.148 939.065 453.799 938.111 454.608C938.102 454.616 938.092 454.624 938.083 454.631C937.095 455.438 936.374 456.398 935.956 457.497L935.956 457.498L933.428 464.141C933.426 464.149 933.423 464.156 933.419 464.164C933.416 464.173 933.413 464.181 933.409 464.19L930.72 470.735C930.718 470.74 930.717 470.744 930.715 470.748C929.522 473.768 928.195 476.762 926.888 479.711C926.274 481.096 925.664 482.472 925.074 483.836C925.072 483.843 925.068 483.85 925.065 483.857C925.062 483.864 925.059 483.871 925.056 483.878C921.098 492.491 916.988 501.069 912.467 509.447C903.585 526.263 893.499 542.42 882.544 557.979L882.539 557.986C861.651 587.38 837.209 614.392 809.957 638.557C783.219 662.285 753.809 683.336 722.656 701.343L768.665 781.641C805.176 760.558 839.657 735.923 871.386 707.776L871.387 707.775C903.604 679.209 932.877 646.935 958.036 611.513C965.319 601.211 972.24 590.641 978.847 579.868C985.407 569.082 991.549 558.034 997.399 546.825C1003.14 535.563 1008.57 524.147 1013.55 512.55C1018.21 501.512 1022.66 490.411 1026.58 479.147L952.117 453.17C948.39 451.871 944.684 451.841 941.755 452.713" fill="black"/><g id="Group 106"><path id="Fill 104" fill-rule="evenodd" clip-rule="evenodd" d="M970.896 461.181L973.847 452.798C974.792 449.99 975.679 447.162 976.597 444.346L977.966 440.116L979.226 435.854L981.738 427.325C983.367 421.221 980.498 415.215 975.328 413.911H975.327C970.157 412.606 964.7 416.276 963.146 422.108C959.334 435.558 954.975 448.835 950.047 461.886" fill="white"/><path id="Stroke 105 (Stroke)" fill-rule="evenodd" clip-rule="evenodd" d="M977.787 413.969C977.798 413.972 977.808 413.974 977.818 413.977C984.371 415.63 987.5 422.992 985.671 429.846C985.667 429.862 985.662 429.879 985.657 429.895L981.884 442.689C981.879 442.705 981.874 442.721 981.869 442.737L980.501 446.967L980.499 446.971C980.177 447.959 979.856 448.958 979.533 449.962C978.946 451.785 978.355 453.624 977.743 455.441L977.734 455.468L974.783 463.851C974.416 464.893 973.274 465.44 972.232 465.073C971.19 464.706 970.643 463.564 971.01 462.522L973.957 454.153C974.559 452.362 975.133 450.576 975.712 448.776C976.037 447.767 976.363 446.754 976.696 445.733C976.696 445.732 976.696 445.732 976.696 445.731L978.056 441.53L981.813 428.791C983.224 423.458 980.631 418.828 976.862 417.861C976.854 417.859 976.846 417.857 976.838 417.855C972.943 416.872 968.411 419.628 967.079 424.628L967.071 424.659C963.243 438.161 958.868 451.492 953.918 464.597C953.528 465.631 952.374 466.152 951.341 465.762C950.308 465.372 949.786 464.217 950.176 463.184C955.082 450.193 959.422 436.975 963.218 423.583C964.996 416.938 971.359 412.366 977.787 413.969Z" fill="black"/></g><g id="Group 109"><path id="Fill 107" fill-rule="evenodd" clip-rule="evenodd" d="M970.895 461.181L973.846 452.798C974.791 449.99 975.677 447.162 976.596 444.346L977.964 440.116L979.225 435.854L981.737 427.325C983.354 421.262 988.86 417.405 994.031 418.71C999.2 420.014 1002.02 426.208 1000.33 432.542L997.722 441.398L996.411 445.826L994.992 450.219C994.037 453.145 993.114 456.082 992.133 459L989.066 467.712" fill="white"/><path id="Stroke 108 (Stroke)" fill-rule="evenodd" clip-rule="evenodd" d="M995.542 422.655C991.71 421.688 987.085 424.541 985.67 429.847C985.666 429.863 985.661 429.88 985.656 429.896L981.883 442.69C981.878 442.706 981.873 442.722 981.868 442.739L980.499 446.968L980.498 446.973C980.176 447.961 979.854 448.96 979.531 449.963C978.945 451.787 978.353 453.625 977.742 455.442L977.733 455.469L974.782 463.852C974.415 464.894 973.273 465.441 972.231 465.074C971.189 464.707 970.642 463.565 971.009 462.524L973.955 454.154C974.558 452.363 975.132 450.577 975.711 448.778C976.035 447.769 976.361 446.756 976.694 445.734C976.695 445.734 976.695 445.733 976.695 445.732L978.054 441.531L981.812 428.79C983.64 421.984 990.02 417.137 996.52 418.777C1003.13 420.446 1006.14 428.053 1004.26 435.065C1004.26 435.081 1004.25 435.097 1004.25 435.113L1000.33 448.4C1000.32 448.416 1000.32 448.431 1000.31 448.447L998.896 452.841L998.894 452.846C998.562 453.863 998.231 454.89 997.899 455.922C997.286 457.826 996.668 459.746 996.029 461.644L996.02 461.67L992.953 470.383C992.587 471.425 991.445 471.972 990.403 471.605C989.361 471.239 988.814 470.097 989.18 469.055L992.242 460.355C992.872 458.483 993.473 456.615 994.079 454.734C994.413 453.697 994.748 452.656 995.09 451.608C995.09 451.607 995.091 451.606 995.091 451.606L996.501 447.241L1000.4 434.008C1001.9 428.362 999.263 423.594 995.542 422.655Z" fill="black"/></g><g id="Group 112"><path id="Fill 110" fill-rule="evenodd" clip-rule="evenodd" d="M989.066 467.713L992.133 459C993.115 456.082 994.037 453.145 994.991 450.219L996.411 445.825L997.722 441.398L1000.33 432.542C1002.01 426.25 1007.56 422.204 1012.73 423.509C1017.9 424.813 1020.68 431.195 1018.92 437.759L1016.22 446.943L1014.86 451.533L1013.39 456.092C1012.4 459.129 1011.44 462.175 1010.42 465.202L1007.24 474.244" fill="white"/><path id="Stroke 111 (Stroke)" fill-rule="evenodd" clip-rule="evenodd" d="M1014.25 427.455C1010.47 426.504 1005.76 429.458 1004.26 435.066C1004.26 435.082 1004.25 435.098 1004.25 435.114L1000.33 448.401C1000.32 448.416 1000.32 448.432 1000.31 448.448L998.895 452.842L998.893 452.846C998.566 453.851 998.239 454.865 997.911 455.884C997.294 457.801 996.672 459.733 996.029 461.645L996.02 461.672L992.953 470.384C992.587 471.426 991.445 471.974 990.403 471.607C989.361 471.24 988.814 470.098 989.18 469.056L992.242 460.357C992.876 458.472 993.482 456.591 994.092 454.696C994.421 453.672 994.752 452.644 995.089 451.609C995.09 451.608 995.09 451.607 995.09 451.607L996.501 447.241L1000.4 434.008C1002.28 427.044 1008.66 421.921 1015.22 423.577C1021.9 425.26 1024.77 433.112 1022.85 440.283C1022.85 440.299 1022.85 440.315 1022.84 440.331L1020.14 449.519L1018.78 454.109C1018.77 454.117 1018.77 454.125 1018.77 454.132C1018.77 454.14 1018.76 454.148 1018.76 454.155L1017.29 458.714L1017.29 458.719C1016.96 459.731 1016.63 460.751 1016.3 461.775C1015.65 463.796 1014.99 465.831 1014.32 467.847L1014.31 467.873L1011.13 476.915C1010.76 477.957 1009.62 478.505 1008.57 478.138C1007.53 477.772 1006.99 476.63 1007.35 475.588L1010.53 466.558C1011.2 464.57 1011.84 462.584 1012.48 460.584C1012.81 459.555 1013.15 458.521 1013.49 457.482C1013.49 457.481 1013.49 457.48 1013.49 457.479L1014.95 452.949L1016.3 448.386L1019 439.226C1020.58 433.28 1017.91 428.38 1014.25 427.455Z" fill="black"/></g><g id="Group 115"><path id="Fill 113" fill-rule="evenodd" clip-rule="evenodd" d="M945.989 472.252C946.573 470.807 947.191 469.376 947.749 467.92L949.412 463.549C950.506 460.629 951.68 457.74 952.677 454.783C954.697 449.061 952.22 443.067 947.115 441.386C942.09 439.733 936.428 442.798 934.507 448.245C929.963 460.833 924.882 473.206 919.258 485.32" fill="white"/><path id="Stroke 114 (Stroke)" fill-rule="evenodd" clip-rule="evenodd" d="M934.624 449.577C936.858 443.255 943.543 439.452 949.74 441.491L949.741 441.491C956.129 443.595 958.869 450.899 956.568 457.44C955.87 459.51 955.076 461.574 954.301 463.592C953.956 464.49 953.614 465.379 953.286 466.256L953.282 466.265L951.619 470.636L951.617 470.641C951.254 471.589 950.853 472.556 950.465 473.493C950.252 474.01 950.042 474.517 949.844 475.006C949.43 476.03 948.264 476.525 947.24 476.111C946.216 475.697 945.721 474.532 946.135 473.507C946.362 472.947 946.584 472.41 946.803 471.882C947.174 470.987 947.534 470.118 947.881 469.212C947.882 469.211 947.882 469.21 947.882 469.209L949.54 464.853C949.54 464.851 949.541 464.849 949.542 464.848C949.895 463.903 950.251 462.978 950.603 462.063C951.365 460.081 952.11 458.143 952.782 456.148L952.791 456.122C954.521 451.221 952.307 446.547 948.49 445.291M934.624 449.577C930.1 462.109 925.043 474.425 919.444 486.483C918.979 487.484 919.414 488.674 920.416 489.139C921.418 489.604 922.607 489.169 923.072 488.167C928.722 475.998 933.825 463.571 938.389 450.929L938.393 450.915C940.004 446.349 944.64 444.024 948.49 445.29" fill="black"/></g><g id="Group 118"><path id="Fill 116" fill-rule="evenodd" clip-rule="evenodd" d="M1007.24 474.244C1008.86 469.572 1010.59 464.932 1012.06 460.212C1013.58 455.509 1015.13 450.814 1016.48 446.062C1017.44 442.81 1019.35 440.173 1021.65 438.498C1023.91 436.817 1026.6 436.109 1029.17 436.811C1031.74 437.514 1033.71 439.504 1034.8 442.187C1035.85 444.855 1035.98 448.206 1034.99 451.575C1033.59 456.495 1031.98 461.36 1030.4 466.233C1028.88 471.123 1027.1 475.933 1025.41 480.775" fill="white"/><path id="Stroke 117 (Stroke)" fill-rule="evenodd" clip-rule="evenodd" d="M1030.64 440.741C1028.78 440.234 1026.72 440.708 1024.85 442.103L1024.83 442.117C1022.9 443.518 1021.24 445.775 1020.4 448.619C1019.22 452.767 1017.89 456.872 1016.57 460.936C1016.37 461.564 1016.17 462.191 1015.96 462.818C1014.9 466.22 1013.71 469.6 1012.53 472.936C1012.05 474.265 1011.59 475.587 1011.13 476.901C1010.77 477.945 1009.63 478.497 1008.58 478.134C1007.54 477.772 1006.99 476.633 1007.35 475.589C1007.83 474.223 1008.3 472.871 1008.78 471.525C1009.95 468.215 1011.11 464.946 1012.15 461.618L1012.15 461.597C1012.36 460.961 1012.57 460.327 1012.77 459.693C1014.09 455.622 1015.4 451.59 1016.56 447.516L1016.56 447.498C1017.64 443.847 1019.8 440.834 1022.47 438.888C1025.11 436.925 1028.42 435.987 1031.7 436.882L1031.7 436.883C1034.99 437.783 1037.38 440.303 1038.65 443.435L1038.66 443.457C1039.89 446.584 1040.01 450.392 1038.91 454.131C1037.67 458.486 1036.27 462.798 1034.88 467.069C1034.69 467.66 1034.5 468.25 1034.31 468.84C1033.2 472.393 1031.95 475.921 1030.72 479.407C1030.24 480.756 1029.77 482.097 1029.3 483.432C1028.94 484.475 1027.8 485.027 1026.76 484.665C1025.71 484.302 1025.16 483.162 1025.52 482.119C1026 480.736 1026.49 479.365 1026.97 478.001C1028.2 474.539 1029.41 471.118 1030.49 467.639L1030.5 467.618C1030.69 467.022 1030.89 466.426 1031.08 465.831C1032.47 461.55 1033.85 457.31 1035.06 453.028L1035.07 453.01C1035.95 450.021 1035.81 447.135 1034.94 444.93C1034.03 442.703 1032.49 441.246 1030.65 440.741" fill="black"/></g><path id="Fill 119" fill-rule="evenodd" clip-rule="evenodd" d="M719.848 685.79C719.848 685.79 693.386 703.38 657.909 709.42C645.248 711.575 658.695 723.907 654.534 736.694C650.412 749.477 650.129 764.681 654.826 779.886C659.523 795.101 670.413 806.78 683.939 812.73C697.434 818.711 713.558 818.921 727.97 812.037C745.337 803.737 762.208 794.706 778.661 784.954L719.848 685.79Z" fill="black"/></g><g id="torso"><path id="Fill 120" fill-rule="evenodd" clip-rule="evenodd" d="M729.125 975.008C729.959 983.942 722.929 991.659 713.955 991.659H472.043C464.139 991.659 457.455 985.807 456.41 977.972L468.931 758.977C465.433 732.736 485.849 709.42 512.323 709.42H670.544C672.558 709.42 674.655 709.556 676.806 709.82C708.65 713.721 731.497 742.508 729.051 774.495L729.125 975.008Z" fill="#ff830f"/><path id="Fill 121" fill-rule="evenodd" clip-rule="evenodd" d="M657.911 709.42C657.911 688.877 633.308 668.748 602.958 668.748C572.608 668.748 554.76 688.877 554.76 709.42C554.76 730.273 577.929 747.673 586.466 754.598C588.185 755.993 590.678 755.858 592.243 754.292L603.585 742.951L614.89 731.647L625.009 741.476L636.885 753.012C638.97 755.036 642.413 754.475 643.744 751.892C648.54 742.582 657.911 725.773 657.911 709.42" fill="#ff830f"/><path id="Fill 122" fill-rule="evenodd" clip-rule="evenodd" d="M610.762 760.264L599.146 748.649L615.306 732.491L631.465 748.649L619.817 760.297L631.163 794.705L657.911 709.42H554.76L606.262 795.295L610.747 760.324C610.751 760.303 610.759 760.285 610.762 760.264" fill="#ff830f"/><path id="Fill 123" fill-rule="evenodd" clip-rule="evenodd" d="M633.41 898.974L619.817 760.297L631.466 748.649L615.306 732.491L599.146 748.649L610.762 760.264C610.759 760.285 610.751 760.303 610.748 760.324L592.148 899.563C592.148 899.563 611.054 924.716 614.413 924.502C618.033 924.271 633.41 898.974 633.41 898.974" fill="black"/><path id="Stroke 124 (Stroke)" fill-rule="evenodd" clip-rule="evenodd" d="M556.26 709.42C557.088 709.42 557.76 710.091 557.76 710.92C557.76 720.8 563.263 730.016 570.039 737.743C576.056 744.605 582.909 750.108 587.377 753.698C587.927 754.139 588.44 754.551 588.911 754.933C590.031 755.842 591.658 755.756 592.682 754.732L604.024 743.39L615.33 732.086C615.91 731.507 616.847 731.5 617.436 732.071L627.554 741.9L639.43 753.436C640.793 754.76 643.042 754.391 643.911 752.705C644.237 752.071 644.583 751.405 644.945 750.71C649.955 741.068 657.911 725.761 657.911 710.92C657.911 710.091 658.583 709.42 659.411 709.42C660.24 709.42 660.911 710.091 660.911 710.92C660.911 726.538 652.613 742.478 647.642 752.028C647.266 752.749 646.91 753.433 646.578 754.079C644.785 757.558 640.146 758.313 637.34 755.588L616.406 735.253L606.146 745.512L594.804 756.853C594.803 756.853 594.804 756.853 594.804 756.853C592.698 758.959 589.34 759.144 587.021 757.263C586.559 756.889 586.052 756.481 585.506 756.043C581.047 752.463 573.986 746.794 567.784 739.721C560.841 731.804 554.76 721.893 554.76 710.92C554.76 710.091 555.431 709.42 556.26 709.42Z" fill="black"/><path id="Stroke 125 (Stroke)" fill-rule="evenodd" clip-rule="evenodd" d="M642.367 787.781H706.888V827.207C706.888 838.45 697.774 847.563 686.53 847.563H662.726C651.482 847.563 642.367 838.45 642.367 827.207V787.781ZM645.367 790.781V827.207C645.367 836.793 653.139 844.563 662.726 844.563H686.53C696.118 844.563 703.888 836.793 703.888 827.207V790.781H645.367Z" fill="black"/><path id="Stroke 126 (Stroke)" fill-rule="evenodd" clip-rule="evenodd" d="M614.004 991.659V924.502H617.004V991.659H614.004Z" fill="black"/></g><g id="right"><g id="Group 129"><path id="Fill 127" fill-rule="evenodd" clip-rule="evenodd" d="M999.526 972.676L999.712 899.813C999.705 892.881 994.497 887.147 988.078 887.015C968.596 886.785 949.073 885.051 929.577 883.041C924.708 882.422 919.842 881.728 914.973 881.08C910.107 880.406 905.231 879.841 900.382 878.931L885.816 876.447L882.174 875.829L878.546 875.086L871.29 873.6C865.171 872.327 859.033 871.19 852.953 869.653L843.812 867.485L839.241 866.404C837.716 866.048 836.191 865.693 834.679 865.266L816.491 860.385L814.217 859.772L811.958 859.097L807.438 857.745L798.397 855.046C774.329 847.664 750.501 839.234 726.993 829.837C703.482 820.446 680.296 810.071 657.505 798.829C634.705 787.608 612.306 775.492 590.391 762.62L551.109 829.502C548.917 833.222 550.693 838.417 555.16 840.953C601.499 867.597 649.659 891.049 699.528 910.874C724.491 920.718 749.899 929.577 775.688 937.405L785.377 940.296L790.221 941.74C791.835 942.222 793.476 942.629 795.103 943.077L814.666 948.325C827.821 951.47 840.941 954.744 854.266 957.301C888.171 964.193 922.664 968.966 957.483 971.18L967.97 971.811L973.213 972.124L978.474 972.247L973.213 972.124L967.97 971.811L957.483 971.18C957.132 976.639 959.235 980.909 962.949 983.905C964.804 985.402 967.058 986.58 969.591 987.427C970.859 987.838 972.19 988.219 973.587 988.419C974.983 988.624 976.434 988.744 977.922 988.777C983.877 988.905 989.308 987.615 993.217 984.926C997.131 982.236 999.517 978.145 999.526 972.676" fill="white"/><path id="Stroke 128 (Stroke)" fill-rule="evenodd" clip-rule="evenodd" d="M591.899 762.684C592.412 762.551 592.958 762.627 593.415 762.895C615.289 775.744 637.645 787.836 660.4 799.034L660.402 799.035C683.148 810.255 706.286 820.609 729.746 829.98C753.203 839.356 776.976 847.767 800.987 855.132C800.989 855.133 800.992 855.133 800.994 855.134L810.021 857.828L810.022 857.829L816.776 859.848L819.02 860.453L819.022 860.454L837.208 865.335L837.233 865.342C838.685 865.751 840.155 866.094 841.678 866.45L841.712 866.458L846.283 867.539L846.284 867.539L855.425 869.707L855.454 869.714C859.947 870.85 864.456 871.762 869.019 872.685C870.575 872.999 872.137 873.315 873.707 873.642C873.707 873.642 873.708 873.642 873.708 873.642L884.553 875.863L888.162 876.475L888.164 876.475L902.729 878.96L902.762 878.966C906.388 879.646 910.014 880.128 913.7 880.619C914.877 880.776 916.061 880.933 917.253 881.098C919.131 881.348 920.999 881.604 922.863 881.858C925.85 882.267 928.826 882.674 931.817 883.054C951.294 885.062 970.734 886.786 990.113 887.015L990.13 887.015C997.775 887.172 1003.72 893.936 1003.72 901.811V901.818L1003.54 974.679C1003.54 974.68 1003.54 974.68 1003.54 974.681M591.899 762.684C591.386 762.817 590.946 763.149 590.678 763.607ZM593.115 767.356L554.843 832.518C553.359 835.036 554.403 839.082 558.158 841.213L558.168 841.219C604.427 867.817 652.5 891.226 702.275 911.014C727.186 920.837 752.541 929.679 778.276 937.49C778.278 937.49 778.279 937.491 778.28 937.491L787.959 940.38L792.803 941.823C793.827 942.129 794.835 942.396 795.874 942.672C796.449 942.825 797.035 942.98 797.64 943.147C797.641 943.147 797.643 943.148 797.645 943.148L817.169 948.386C819.169 948.864 821.166 949.345 823.162 949.825C834.311 952.508 845.408 955.179 856.655 957.337L856.676 957.341C890.497 964.216 924.899 968.976 959.618 971.184C959.619 971.184 959.62 971.184 959.621 971.185L970.1 971.815L970.101 971.815L975.307 972.125L980.533 972.248C981.637 972.274 982.511 973.19 982.485 974.294C982.459 975.398 981.543 976.272 980.439 976.247L975.178 976.123C975.154 976.122 975.13 976.121 975.106 976.12L969.862 975.808L969.861 975.808L961.487 975.304C961.732 979.13 963.459 982.124 966.216 984.348C967.854 985.67 969.885 986.743 972.229 987.528C973.456 987.925 974.657 988.264 975.882 988.439L975.889 988.44C977.199 988.633 978.566 988.746 979.976 988.777C985.655 988.899 990.633 987.66 994.095 985.278C997.476 982.954 999.528 979.475 999.538 974.676C999.538 974.674 999.538 974.673 999.538 974.672M957.469 975.053C923.201 972.781 889.259 968.046 855.891 961.263C844.548 959.087 833.351 956.392 822.208 953.71C820.208 953.229 818.21 952.748 816.213 952.27C816.205 952.269 816.198 952.267 816.19 952.265C816.18 952.262 816.17 952.26 816.16 952.257L796.596 947.008L796.584 947.005C796.052 946.858 795.498 946.711 794.935 946.562C793.854 946.274 792.736 945.978 791.66 945.657L786.817 944.213L777.128 941.321L777.119 941.319C751.277 933.475 725.818 924.598 700.806 914.734L700.801 914.732C650.841 894.871 602.596 871.378 556.179 844.689C551.003 841.748 548.498 835.406 551.397 830.488C551.397 830.487 551.397 830.488 551.397 830.488L590.678 763.607M957.469 975.053C957.661 980.247 959.966 984.446 963.705 987.462C965.775 989.132 968.249 990.414 970.968 991.324L970.986 991.33C972.29 991.752 973.746 992.173 975.31 992.398C975.309 992.398 975.308 992.398 975.307 992.398L975.598 990.419L975.314 992.399C975.313 992.399 975.311 992.398 975.31 992.398C976.792 992.616 978.324 992.742 979.889 992.776C986.121 992.91 992.005 991.57 996.361 988.574M593.115 767.356C614.519 779.875 636.384 791.674 658.632 802.622C681.468 813.887 704.701 824.283 728.262 833.694C751.82 843.111 775.699 851.56 799.821 858.958L799.836 858.963L808.876 861.661L808.877 861.661L813.396 863.013L815.656 863.688C815.673 863.694 815.691 863.699 815.708 863.703L817.982 864.316L817.984 864.317L836.147 869.191C836.151 869.192 836.155 869.193 836.159 869.195C837.695 869.628 839.237 869.988 840.728 870.335L840.792 870.35L845.361 871.431L845.362 871.432L854.474 873.592C854.479 873.593 854.483 873.594 854.488 873.595C859.078 874.755 863.717 875.693 868.301 876.621C869.839 876.932 871.372 877.242 872.894 877.558L880.156 879.046L883.784 879.788C883.806 879.793 883.828 879.797 883.851 879.801L887.491 880.418L887.493 880.418L902.024 882.897C902.029 882.898 902.035 882.899 902.04 882.9C905.776 883.6 909.543 884.101 913.248 884.594C914.409 884.749 915.564 884.902 916.71 885.061L916.72 885.063C918.568 885.308 920.426 885.562 922.287 885.817C925.301 886.229 928.325 886.643 931.336 887.026C931.345 887.027 931.354 887.028 931.363 887.029L931.384 887.031C950.887 889.041 970.482 890.783 990.056 891.015C995.244 891.126 999.715 895.827 999.723 901.81C999.723 901.812 999.723 901.813 999.723 901.815L999.538 974.671" fill="black"/></g><path id="Fill 130" fill-rule="evenodd" clip-rule="evenodd" d="M621.709 765.097C603.527 755.083 585.637 744.522 568.17 733.47C553.721 724.321 497.913 685.79 466.493 732.49C435.073 779.191 490.203 820.565 506.423 830.835C525.991 843.217 545.861 854.944 566.069 866.075L621.709 765.097Z" fill="black"/></g></g></g></g><g id="Hairstyle" transform="translate(558.438 548.605) scale(0.8179931071267199 0.8179271643241627)"><g id="Hairstyle/Long Hair Beanie"><path id="hair" fill-rule="evenodd" clip-rule="evenodd" d="M124.04 174.703H37.4135C20.3745 174.703 6.5625 160.891 6.5625 143.852V63.4809H124.04V174.703Z" fill="black"/><g id="head"><path id="Fill 3" fill-rule="evenodd" clip-rule="evenodd" d="M131.789 107.268C131.789 115.681 124.969 122.501 116.557 122.501C108.144 122.501 101.324 115.681 101.324 107.268C101.324 98.8549 108.144 92.0349 116.557 92.0349C124.969 92.0349 131.789 98.8549 131.789 107.268" fill="white"/><path id="Fill 5" fill-rule="evenodd" clip-rule="evenodd" d="M116.557 94.035C109.26 94.035 103.324 99.971 103.324 107.268C103.324 114.565 109.26 120.501 116.557 120.501C123.853 120.501 129.789 114.565 129.789 107.268C129.789 99.971 123.853 94.035 116.557 94.035M116.557 124.501C107.055 124.501 99.3242 116.77 99.3242 107.268C99.3242 97.766 107.055 90.035 116.557 90.035C126.059 90.035 133.789 97.766 133.789 107.268C133.789 116.77 126.059 124.501 116.557 124.501" fill="black"/><path id="Fill 7" fill-rule="evenodd" clip-rule="evenodd" d="M65.4545 206.763V206.763C46.4975 206.763 29.0195 192.225 29.0195 174.868L45.1305 115.205C45.1305 97.848 40.4975 83.777 59.4535 83.777H79.4545C98.4115 83.777 93.7785 97.848 93.7785 115.205V175.335C93.7785 192.692 84.4115 206.763 65.4545 206.763" fill="white"/><path id="Fill 9" fill-rule="evenodd" clip-rule="evenodd" d="M31.0215 175.128C31.1945 190.945 47.2105 204.763 65.4545 204.763V204.763C84.8635 204.763 91.7785 189.562 91.7785 175.335V115.205C91.7785 112.157 91.9165 109.261 92.0505 106.459C92.4175 98.7527 92.7355 92.0977 89.5555 88.7627C87.6395 86.7537 84.3355 85.7777 79.4545 85.7777H59.4545C54.5725 85.7777 51.2695 86.7537 49.3535 88.7627C46.1735 92.0977 46.4915 98.7527 46.8585 106.459C46.9925 109.261 47.1305 112.157 47.1305 115.205V115.471L31.0215 175.128ZM65.4545 208.763C44.9795 208.763 27.0205 192.924 27.0205 174.868V174.603L43.1295 114.941C43.1225 112.083 42.9905 109.322 42.8635 106.65C42.4515 98.0257 42.0965 90.5777 46.4585 86.0027C49.1695 83.1597 53.4195 81.7777 59.4545 81.7777H79.4545C85.4885 81.7777 89.7395 83.1597 92.4505 86.0027C96.8125 90.5777 96.4575 98.0257 96.0455 106.65C95.9145 109.404 95.7785 112.253 95.7785 115.205V175.335C95.7785 195.642 83.8755 208.763 65.4545 208.763V208.763Z" fill="black"/><path id="Fill 11" fill-rule="evenodd" clip-rule="evenodd" d="M77.0531 154.695C59.5851 154.695 43.8231 144.336 36.8971 128.303L36.2461 126.798C26.6851 104.667 36.9111 78.8826 59.0421 69.3216C64.5661 66.9346 70.3931 65.7246 76.3621 65.7246C93.8291 65.7246 109.592 76.0846 116.519 92.1166L117.169 93.6216C126.731 115.753 116.504 141.537 94.3731 151.099C88.8501 153.485 83.0231 154.695 77.0531 154.695" fill="white"/><path id="Fill 13" fill-rule="evenodd" clip-rule="evenodd" d="M76.3625 63.7252H76.3615C70.1175 63.7252 64.0235 64.9902 58.2485 67.4852C47.0375 72.3292 38.3835 81.2482 33.8815 92.6012C29.3785 103.954 29.5665 116.38 34.4105 127.591L35.0605 129.096C42.3035 145.861 58.7865 156.695 77.0525 156.695C83.2965 156.695 89.3905 155.43 95.1665 152.934C106.378 148.09 115.031 139.171 119.534 127.818C124.036 116.466 123.849 104.039 119.005 92.8292L118.355 91.3242C111.112 74.5582 94.6285 63.7252 76.3625 63.7252M76.3625 67.7252C92.5045 67.7252 107.873 77.1492 114.683 92.9102L115.333 94.4152C124.472 115.567 114.733 140.123 93.5795 149.262V149.262C88.1885 151.592 82.5745 152.695 77.0525 152.695C60.9095 152.695 45.5415 143.27 38.7325 127.509L38.0825 126.004C28.9435 104.852 38.6825 80.2962 59.8345 71.1572H59.8355C65.2265 68.8282 70.8395 67.7252 76.3625 67.7252" fill="black"/><path id="Fill 15" fill-rule="evenodd" clip-rule="evenodd" d="M36.1012 122.5C27.6882 122.5 20.8682 115.681 20.8682 107.267C20.8682 98.8545 27.6882 92.0345 36.1012 92.0345C37.1522 92.0345 38.1792 92.1415 39.1712 92.3445" fill="white"/><path id="Fill 17" fill-rule="evenodd" clip-rule="evenodd" d="M36.1012 124.5C26.5992 124.5 18.8682 116.771 18.8682 107.267C18.8682 97.7655 26.5992 90.0345 36.1012 90.0345C37.2692 90.0345 38.4372 90.1525 39.5722 90.3845C40.6542 90.6065 41.3512 91.6625 41.1302 92.7455C40.9092 93.8275 39.8522 94.5245 38.7702 94.3035C37.8982 94.1255 37.0002 94.0345 36.1012 94.0345C28.8042 94.0345 22.8682 99.9715 22.8682 107.267C22.8682 114.564 28.8042 120.5 36.1012 120.5C37.2052 120.5 38.1012 121.396 38.1012 122.5C38.1012 123.604 37.2052 124.5 36.1012 124.5" fill="black"/></g><g id="beanie"><path id="Fill 19" fill-rule="evenodd" clip-rule="evenodd" d="M124.05 80.6436H5.73902C1.46502 80.6436 -2.00098 77.1786 -2.00098 72.9036V57.9806C-2.00098 45.3976 8.20002 35.1966 20.783 35.1966H110.415C122.22 35.1966 131.789 44.7666 131.789 56.5706V72.9036C131.789 77.1786 128.324 80.6436 124.05 80.6436" fill="black"/><path id="Fill 22" fill-rule="evenodd" clip-rule="evenodd" d="M111.168 48.0611H23.5355C19.4535 48.0611 16.1445 44.7521 16.1445 40.6701V32.1911C16.1445 6.6801 36.8245 -14.0009 62.3355 -14.0009H73.7765C98.5095 -14.0009 118.56 6.0491 118.56 30.7821V40.6701C118.56 44.7521 115.25 48.0611 111.168 48.0611" fill="black"/></g><circle id="Oval" cx="46" cy="82" r="14" fill="black"/><path id="Fill 9" fill-rule="evenodd" clip-rule="evenodd" d="M83.1474 123.992H90.7084C92.7934 123.992 94.3374 120.961 93.8714 117.782L90.6874 96.0426C89.9484 90.9976 85.4234 90.7156 84.4294 95.6516L80.0524 117.391C79.3944 120.662 80.9554 123.992 83.1474 123.992" fill="#ff830f"/></g></g><g id="Face" transform="translate(574.797 622.219) scale(0.8179931015264793 0.8179271609284157)"><g id="Face/Beard"><path id="Shape" fill-rule="evenodd" clip-rule="evenodd" d="M98.064 -1C101.129 -1 103.626 1.4261 103.741 4.46306L103.745 4.681V29.803C103.745 30.2429 103.697 30.6715 103.605 31.0837L103.502 31.8657C102.208 41.1969 94.8052 79.0512 59.8721 79.0512C23.2145 79.0512 16.8734 38.9149 16.0936 32.4954C16.0319 32.2189 16 31.9302 16 31.634V4.681C16 1.543 18.543 -1 21.681 -1C24.818 -1 27.362 1.543 27.362 4.681L27.3621 27.2232C27.3621 32.3865 30.9111 39.6403 36.4787 46.1029C35.6908 40.0185 35.7974 33.4382 38.7065 29.3812C40.6075 26.7292 43.4885 25.3282 47.0365 25.3282C53.2005 25.3282 56.8958 26.7787 59.7845 28.1509L61.8563 29.1554C64.8933 30.5961 67.0955 31.1529 73.1571 28.373L73.5255 28.2022C80.4795 24.9442 84.7005 24.4522 87.6405 26.5602C91.4431 29.2855 91.0457 34.8129 90.2061 42.4468C92.322 37.6277 92.546 33.3852 92.4875 31.2559C92.436 30.9968 92.403 30.7309 92.3897 30.4598L92.383 30.187V4.681C92.383 1.543 94.927 -1 98.064 -1ZM76.4056 33.48L76.0715 33.6352C67.1705 37.8072 63.2465 36.5232 58.2755 34.0872L57.7853 33.8477C55.1601 32.571 52.3127 31.3282 47.0365 31.3282C44.9605 31.3282 44.1005 32.1552 43.5825 32.8762C40.936 36.5648 42.1116 45.8406 43.9674 53.2452C46.7978 55.4428 49.8637 57.3178 53.0606 58.6735L59.7194 52.0144C61.7544 49.9794 65.0554 49.9794 67.0904 52.0144L73.7251 58.6492C77.6606 56.6821 80.7795 54.4618 83.249 52.1482C83.4081 49.5593 83.6582 47.0838 83.9099 44.7841L84.3382 40.8816C84.7373 37.0489 85.0939 32.37 84.2155 31.4959L84.1321 31.4285C83.9783 31.3463 82.4489 30.6967 76.4056 33.48V33.48Z" fill="black"/></g></g><g id="Expression" transform="translate(597.701 614.857) scale(0.8179930623372396 0.8179271817207336)"><g id="Expression/Relaxed"><g id="Group"><path id="Fill 1" fill-rule="evenodd" clip-rule="evenodd" d="M28.964 19.648C27.859 19.648 26.964 18.753 26.964 17.648C26.964 16.213 25.254 14 22.982 14C20.71 14 19 16.213 19 17.648C19 18.753 18.104 19.648 17 19.648C15.895 19.648 15 18.753 15 17.648C15 14.111 18.486 10 22.982 10C27.477 10 30.964 14.111 30.964 17.648C30.964 18.753 30.069 19.648 28.964 19.648" fill="black"/><path id="Fill 3" fill-rule="evenodd" clip-rule="evenodd" d="M57.8712 19.648C56.7662 19.648 55.8712 18.753 55.8712 17.648C55.8712 16.213 54.1612 14 51.8892 14C49.6162 14 47.9072 16.213 47.9072 17.648C47.9072 18.753 47.0112 19.648 45.9072 19.648C44.8022 19.648 43.9072 18.753 43.9072 17.648C43.9072 14.111 47.3932 10 51.8892 10C56.3842 10 59.8712 14.111 59.8712 17.648C59.8712 18.753 58.9762 19.648 57.8712 19.648" fill="black"/></g><path id="Fill 6" fill-rule="evenodd" clip-rule="evenodd" d="M37.0177 54.3827C31.7907 54.3827 26.5648 52.3937 22.5857 48.4137C21.8047 47.6327 21.8047 46.3668 22.5857 45.5857C23.3668 44.8047 24.6327 44.8047 25.4137 45.5857C31.8117 51.9837 42.2238 51.9837 48.6217 45.5857C49.4027 44.8047 50.6688 44.8047 51.4498 45.5857C52.2318 46.3668 52.2318 47.6327 51.4498 48.4137C47.4718 52.3928 42.2437 54.3827 37.0177 54.3827" fill="black"/></g></g><g id="Glasses" transform="translate(582.16 604.224) scale(0.8179930914015997 0.8179272067162299)"><g id="Glasses/Squared Glasses"><path id="Shape" fill-rule="evenodd" clip-rule="evenodd" d="M53.3679 15C54.4729 15 55.3679 15.895 55.3679 17L55.367 22.5848C55.9811 22.2769 56.6711 22.0474 57.4386 21.9512C58.8569 21.7735 59.9981 22.0814 61.1493 22.8695L61.1494 17C61.1494 15.895 62.0444 15 63.1494 15H87.7664C88.8704 15 89.7664 15.895 89.7664 17V27.658C89.7664 33.476 85.0324 38.21 79.2134 38.21H69.0344C64.6864 38.21 61.1494 34.673 61.1494 30.325L61.1495 27.3952C60.1609 26.498 59.0178 25.7906 57.9496 25.9182C56.7124 26.0652 55.767 27.3073 55.3668 27.9285L55.3679 30.325C55.3679 34.673 51.8309 38.21 47.4829 38.21H36.2519C30.4329 38.21 25.6989 33.476 25.6989 27.658L25.698 24.532L12.4394 27.5185C12.2914 27.5515 12.1444 27.5675 11.9984 27.5675C11.0834 27.5675 10.2584 26.9365 10.0494 26.0065C9.80641 24.9285 10.4834 23.8585 11.5604 23.6155L25.698 20.431L25.6989 17C25.6989 15.895 26.5939 15 27.6989 15H53.3679ZM51.3679 19H29.6989V27.658C29.6989 31.271 32.6379 34.21 36.2519 34.21H47.4829C49.6249 34.21 51.3679 32.467 51.3679 30.325V19ZM85.7664 19H65.1494V30.325C65.1494 32.467 66.8924 34.21 69.0344 34.21H79.2134C82.8264 34.21 85.7664 31.271 85.7664 27.658V19Z" fill="black"/></g></g></g></g></svg>