<svg viewBox="253.46249999999998 -47.79545454545456 506.925 730.9893048128342" fill="none" xmlns="http://www.w3.org/2000/svg" xmlns:xlink="http://www.w3.org/1999/xlink" overflow="visible" width="506.925px" height="730.9893048128342px"><g id="Master/Character/Standing"><g id="Head" transform="translate(273 280.5) scale(1 1)"><g id="Head/Long Wavy 2"><g id="Group 11"><path id="Fill 7" fill-rule="evenodd" clip-rule="evenodd" d="M114.634 63.572C115.167 63.418 118.784 64.414 121.05 61.176C123.382 57.843 121.079 55.271 119.966 53.343C119.184 51.988 118.088 49.104 120.494 48.437C122.435 47.9 123.058 52.705 124.595 52.427C125.969 52.179 125.552 48.338 125.378 47.141C125.114 45.33 124.779 43.496 124.759 41.609C124.743 40.018 124.769 38.085 125.384 36.732C126.195 34.95 127.607 33.832 129.003 32.598C133.179 33.848 135.669 36.847 136.214 39.342C137.13 43.541 133.755 47.947 135.599 50.916C137.355 53.744 140.468 53.455 140.433 55.289C140.411 56.314 138.821 57.33 135.511 57.457C135.14 59.629 136.779 64.457 135.132 66.558C133.143 69.099 126.884 66.953 126.593 72.478H111.06C115.571 68.665 114.634 63.572 114.634 63.572" fill="black"/><path id="Fill 9" fill-rule="evenodd" clip-rule="evenodd" d="M18.8905 70.1198C24.3065 63.8698 28.0065 71.5258 34.9725 61.9948C41.3055 53.3268 45.8655 62.5868 52.3485 55.9948C59.7645 48.4538 63.9865 59.6398 71.8485 51.9948C79.4325 44.6198 81.6685 50.2078 87.1825 48.3698C92.8065 46.4948 91.5565 39.7448 100.849 39.8698C112.681 40.0288 107.739 37.5418 117.365 33.5418L117.346 33.5788C117.951 33.3028 118.589 33.0548 119.28 32.8508C123.142 31.7148 126.398 31.8178 129.003 32.5988C127.607 33.8318 126.195 34.9498 125.384 36.7318C124.769 38.0848 124.744 40.0178 124.759 41.6088C124.779 43.4958 125.115 45.3298 125.378 47.1408C125.552 48.3378 125.969 52.1798 124.595 52.4278C123.058 52.7048 122.435 47.8998 120.495 48.4368C118.088 49.1038 119.184 51.9878 119.966 53.3428C121.079 55.2708 123.382 57.8428 121.05 61.1768C119.183 63.8448 116.402 63.6378 115.181 63.5678C114.88 67.3618 113.75 70.8088 111.341 72.9268C105.841 77.7598 100.716 77.3428 94.9655 75.2178C88.6605 72.8878 85.8485 79.7448 78.4725 77.4948C70.9105 75.1878 70.5765 79.3888 63.6385 81.6618C56.2625 84.0778 56.4595 78.3998 45.8885 82.0368C35.4715 85.6208 34.9265 75.5918 27.8895 78.4528C20.5895 81.4198 15.6525 73.8558 18.8905 70.1198" fill="#FF3333"/></g></g></g><g id="Full Body" transform="translate(198 0) scale(1 1)"><g id="Full Body/Holding Peace Flag"><g id="Group 486"><path id="Fill 432" fill-rule="evenodd" clip-rule="evenodd" d="M161.402 489.116C146.35 504.201 106.068 540.903 105.966 556.145C105.845 574.269 163.851 609.698 168.986 616.05C177.888 627.065 165.486 630.186 166.652 641.175C181.652 628.727 184.325 617.508 184.325 617.508L188.068 620.429L191.734 607.366C191.734 607.366 167.402 578.553 145.402 558.729C147.732 555.455 183.353 523.199 188.381 517.96C213.403 491.882 184.402 466.065 161.402 489.116" fill="black"/><path id="Fill 434" fill-rule="evenodd" clip-rule="evenodd" d="M190.552 623.175C188.916 623.175 187.578 621.966 187.553 620.454L185.551 497.979C185.527 496.454 186.849 495.198 188.506 495.175H188.552C190.188 495.175 191.526 496.384 191.551 497.896L193.553 620.371C193.577 621.896 192.255 623.152 190.598 623.175H190.552Z" fill="black"/><path id="Fill 436" fill-rule="evenodd" clip-rule="evenodd" d="M189.977 567C167.69 567 146.606 579.46 137.512 598.005C128.416 616.552 133.208 637.609 150.659 655.776C161.483 667.044 175.116 673 190.084 673C213.244 673.001 236.742 658.313 245.957 638.075C250.856 627.316 255.618 606.039 232.464 584.418C220.262 573.023 205.571 567 189.977 567M190.612 679H190.611C173.733 679 158.42 672.344 146.329 659.752C127.106 639.73 121.926 616.326 132.116 595.537C142.243 574.88 165.707 561 190.504 561C207.877 561 224.171 567.644 237.625 580.213C256.464 597.813 261.88 619.744 252.486 640.383C242.302 662.758 216.279 679 190.612 679" fill="black"/><path id="Fill 438" fill-rule="evenodd" clip-rule="evenodd" d="M191.891 621.538C201.896 611.816 211.902 602.096 221.908 592.375C223.52 590.808 221.479 589.274 219.896 590.812C209.891 600.533 199.885 610.253 189.879 619.976C188.266 621.542 190.308 623.075 191.891 621.538" fill="black"/><path id="Fill 440" fill-rule="evenodd" clip-rule="evenodd" d="M189.879 619.903C179.631 631.892 169.383 643.884 159.134 655.874C157.693 657.56 159.693 659.146 161.146 657.446C171.394 645.457 181.642 633.466 191.891 621.475C193.331 619.79 191.331 618.204 189.879 619.903" fill="black"/><path id="Fill 442" fill-rule="evenodd" clip-rule="evenodd" d="M144.809 638.029C155.256 634.316 165.703 630.605 176.15 626.893C177.872 626.281 177.905 623.514 175.63 624.321C165.183 628.033 154.737 631.744 144.289 635.457C142.567 636.068 142.535 638.836 144.809 638.029" fill="black"/><path id="Fill 444" fill-rule="evenodd" clip-rule="evenodd" d="M189.68 622.107C199.901 632.697 210.122 643.286 220.344 653.875C221.479 655.051 223.938 652.469 222.754 651.243C212.534 640.653 202.312 630.064 192.09 619.474C190.955 618.299 188.496 620.881 189.68 622.107" fill="black"/><path id="Fill 446" fill-rule="evenodd" clip-rule="evenodd" d="M187.669 621.455C191.891 638.766 196.112 656.076 200.335 673.388C200.794 675.273 203.79 673.367 203.431 671.895C199.209 654.583 194.987 637.273 190.765 619.962C190.306 618.077 187.31 619.984 187.669 621.455" fill="black"/><path id="Fill 448" fill-rule="evenodd" clip-rule="evenodd" d="M200.84 625.152C215.444 630.798 230.049 636.447 244.654 642.093C246.19 642.687 248.213 639.881 246.444 639.197C231.839 633.551 217.235 627.904 202.629 622.257C201.094 621.663 199.07 624.469 200.84 625.152" fill="black"/><path id="Fill 450" fill-rule="evenodd" clip-rule="evenodd" d="M190.741 623.059L239.998 605.339C241.53 604.787 242.408 601.525 240.281 602.291L191.024 620.011C189.492 620.561 188.614 623.824 190.741 623.059" fill="black"/><path id="Fill 452" fill-rule="evenodd" clip-rule="evenodd" d="M142.016 617C153.082 617.941 164.151 618.928 175.176 620.166C176.807 620.35 178.345 617.582 176.243 617.346C165.217 616.107 154.149 615.12 143.082 614.18C141.445 614.041 139.909 616.822 142.016 617" fill="black"/><path id="Fill 454" fill-rule="evenodd" clip-rule="evenodd" d="M141.988 594.258C146.599 595.751 150.391 598.469 154.342 601.07C158.682 603.927 163.376 606.302 167.852 608.964C174.137 612.698 183.213 615.81 187.453 621.696C188.534 623.194 191.247 620.814 190.312 619.515C185.819 613.279 176.776 610.279 170.262 606.266C165.827 603.531 161.155 601.16 156.753 598.372C152.529 595.697 148.646 592.811 143.777 591.235C142.188 590.719 140.186 593.675 141.988 594.258" fill="black"/><path id="Fill 456" fill-rule="evenodd" clip-rule="evenodd" d="M188.406 620.615C183.757 637.986 179.108 655.357 174.459 672.728C173.874 674.914 176.971 674.379 177.412 672.735C182.061 655.364 186.71 637.993 191.359 620.622C191.944 618.435 188.846 618.97 188.406 620.615" fill="black"/><path id="Fill 458" fill-rule="evenodd" clip-rule="evenodd" d="M204.663 573.595C199.577 589.647 194.492 605.698 189.406 621.748C188.721 623.911 191.848 623.368 192.359 621.755C197.445 605.703 202.53 589.652 207.616 573.602C208.302 571.438 205.175 571.981 204.663 573.595" fill="black"/><path id="Fill 460" fill-rule="evenodd" clip-rule="evenodd" d="M212.74 455.175C170.913 466.635 105.519 459.079 92.8723 477.981C82.7403 493.125 131.906 549.437 141.281 561.258C152.02 574.799 158.281 580.768 156.781 588.687C155.559 595.135 149.656 601.885 151.068 606.175C167.031 593.163 168.828 582.49 168.828 582.49L172.413 585.504L178.881 579.017C171.491 566.571 153.74 518.526 134.74 500.163C134.74 500.163 171.749 502.891 190.139 502.895C208.914 502.898 221.74 485.168 212.74 455.175" fill="#3333FF"/><path id="Fill 474" fill-rule="evenodd" clip-rule="evenodd" d="M297.775 480.501C311.468 489.7 323.97 508.03 321.978 510.862C320.015 513.657 313.943 503.647 312.494 501.917C315.301 510.661 312.258 514.603 310.399 514.052C307.963 513.327 311.554 508.062 307.531 504.194C309.65 509.56 306.505 513.774 305.058 513.403C302.733 512.806 306.32 508.708 302.48 504.44C303.775 509.144 302.205 512.526 300.837 512.173C298.978 511.694 301.333 508.872 297.754 504.206C295.697 501.524 290.425 495.101 289.136 493.478C297.654 491.411 300.449 486.097 297.775 480.501" fill="black"/><path id="Fill 476" fill-rule="evenodd" clip-rule="evenodd" d="M166.06 455.739C158.714 448.778 156.362 437.483 154.102 428.038C151.035 415.21 148.724 402.225 145.178 389.512C141.663 376.907 136.66 365.116 129.927 353.901C122.987 342.341 115.105 331.109 111.742 317.862C107.748 302.132 104.752 285.128 104.526 268.891C104.429 261.95 105.175 251.739 112.848 248.713C119.506 246.086 124.604 254.355 126.692 259.236C130.983 269.27 132.579 280.61 135.484 291.094C138.458 301.827 142.263 312.676 147.49 322.518C152.528 332.004 159.945 339.528 168.737 345.587C178.85 352.557 189.057 354.801 201.096 356.11C213.883 357.501 225.769 359.727 234.671 369.759C242.08 378.106 246.358 389.229 250.137 399.563C253.611 409.059 256.282 418.899 260.61 428.063C266.504 440.546 275.994 451.112 284.511 461.827C288.058 466.288 291.516 470.827 294.458 475.714C295.964 478.218 297.071 480.878 297.507 483.772C298.37 489.489 292.896 491.477 288.455 491.104C277.275 490.165 268.924 479.091 261.665 471.841C247.283 457.479 234.297 440.53 226.79 421.516C226.113 419.801 223.316 422.28 223.931 423.839C233.019 446.854 249.632 465.005 266.803 482.253C273.083 488.561 281.135 495.235 290.68 494.448C299.859 493.688 301.976 484.118 299.13 476.94C297.179 472.018 293.567 467.555 290.392 463.38C286.032 457.643 281.391 452.122 276.959 446.44C269.331 436.659 263.174 426.452 259.027 414.745C252.387 396.003 247.117 372.444 229.828 360.378C220.19 353.651 207.422 353.469 196.198 352.096C183.107 350.495 172.363 344.779 162.588 336.03C145.535 320.764 140.106 295.793 134.723 274.5C132.453 265.517 130.702 254.238 123.349 247.848C115.837 241.321 107.05 247.442 103.784 255.051C98.4165 267.552 102.004 284.069 104.245 296.95C106.667 310.882 109.011 324.433 115.636 337.047C121.064 347.383 127.966 356.86 133.249 367.282C139.056 378.737 142.419 391.46 145.331 403.909C147.963 415.161 149.964 426.567 153.075 437.706C155.162 445.178 157.883 453.147 163.65 458.612C164.921 459.815 167.353 456.964 166.06 455.739" fill="black"/><path id="Fill 478" fill-rule="evenodd" clip-rule="evenodd" d="M220.798 402.098C219.27 415.55 218.712 429.248 215.593 442.466C214.808 445.788 213.84 449.073 212.528 452.228C212.215 452.982 212.633 453.854 213.472 453.898C214.431 453.949 215.158 453.012 215.482 452.236C217.946 446.307 219.257 439.933 220.277 433.618C221.401 426.664 222.09 419.649 222.768 412.641C223.135 408.845 223.494 405.049 223.925 401.26C224.024 400.393 223.303 399.886 222.503 400.067C221.61 400.269 220.899 401.22 220.798 402.098" fill="black"/><path id="Fill 480" fill-rule="evenodd" clip-rule="evenodd" d="M117.929 233.81C116.895 232.16 114.902 228.134 113.281 226.928C111.34 225.488 109.998 226 109.764 228.424C109.705 229.028 109.808 229.706 109.998 230.422C107.162 227.553 104.563 230.536 104.621 232.512C101.263 231.512 99.9939 234.178 100.741 237.595C98.5019 236.845 96.7109 239.428 97.9799 242.928C99.4619 247.018 105.415 253.913 106.936 255.762C110.295 259.845 117.237 257.345 118.132 253.262C119.225 248.281 119.327 243.215 119.536 240.928C119.78 238.252 119.352 236.076 117.929 233.81" fill="black"/></g><g id="Flag"><g id="Group 8"><g id="Group 3"><mask id="mask0a6a5e75c-fe5d-40fe-b257-093a93ae0cc7" mask-type="alpha" maskUnits="userSpaceOnUse" x="145" y="-13" width="383" height="292" fill="#ffffff"><path id="Clip 2" fill-rule="evenodd" clip-rule="evenodd" d="M145.373 -12.7236H527.389V278.079H145.373V-12.7236Z" fill="#ffffff"/></mask><g mask="url(#mask0a6a5e75c-fe5d-40fe-b257-093a93ae0cc7)"><path id="Fill 1" fill-rule="evenodd" clip-rule="evenodd" d="M145.373 166.903C323.418 99.0145 268.361 278.079 451.352 278.079L527.389 93.0145C393.231 147.903 407.898 -71.4285 224.349 2.77449L145.373 166.903Z" fill="#FA7ED6"/></g></g><path id="Fill 4" fill-rule="evenodd" clip-rule="evenodd" d="M220.616 3.25949C204.744 36.5765 188.871 69.8925 173 103.209C145.946 159.996 118.893 216.782 91.84 273.569C82.755 292.64 73.669 311.713 64.583 330.785C63.173 333.744 66.826 334.447 68.022 331.935C83.894 298.619 99.766 265.302 115.638 231.985C142.692 175.199 169.744 118.413 196.799 61.6265C205.884 42.5545 214.97 23.4825 224.055 4.41049C225.466 1.45149 221.812 0.747493 220.616 3.25949" fill="black"/><path id="Fill 6" fill-rule="evenodd" clip-rule="evenodd" d="M379.674 159.741C375.298 162.427 370.579 164.323 365.671 165.559C365.75 164.97 365.719 164.382 365.539 163.813C359.639 145.134 350.078 127.942 343.341 109.585C343.008 108.678 342.483 108.147 341.849 107.902C350.49 93.5784 359.069 79.2134 368.269 65.2404C383.757 74.0384 397.05 87.2674 402.106 104.398C408.152 124.888 397.583 148.751 379.674 159.741M315.278 159.697C313.546 158.939 311.846 158.098 310.166 157.216C319.02 144.846 327.155 132.02 335.078 119.058C341.274 135.308 349.681 150.691 355.144 167.215C341.528 168.173 327.294 164.954 315.278 159.697M275.051 119.238C274.416 117.63 273.885 115.993 273.439 114.34C291.475 113.464 309.618 113.401 327.569 115.407C319.776 128.184 311.766 140.821 303.006 152.974C290.643 144.741 280.507 133.055 275.051 119.238M355.343 46.8464C350.273 45.1984 343.945 55.1884 349.67 57.0504C353.403 58.2634 357.141 59.7254 360.815 61.4194C351.359 75.7244 342.605 90.4794 333.763 105.177C313.264 102.632 292.493 102.876 271.898 104.034C271.581 94.6384 274.198 85.2554 279.857 77.4234C292.794 59.5194 315.662 50.8184 337.29 52.9074C342.485 53.4084 347.351 42.9904 340.671 42.3454C297.232 38.1504 249.613 77.6534 264.877 123.479C278.013 162.919 326.214 185.377 365.528 175.534C393.194 168.608 413.962 140.765 413.761 112.374C413.531 79.9914 383.722 56.0724 355.343 46.8464" fill="white"/></g><path id="Fill 238" fill-rule="evenodd" clip-rule="evenodd" d="M220.631 2.5791C204.774 35.9094 188.916 69.2407 173.059 102.572C146.03 159.383 119.001 216.195 91.9741 273.006C82.8964 292.085 73.8188 311.167 64.7411 330.246C62.629 334.687 68.103 335.743 69.8964 331.974C85.7538 298.643 101.611 265.312 117.469 231.981C144.497 175.169 171.526 118.358 198.553 61.5464C207.631 42.4672 216.709 23.386 225.786 4.30684C227.898 -0.13407 222.424 -1.19052 220.631 2.5791" fill="black"/><g id="SCALABLE"><rect id="Rectangle" x="64.2637" y="-45.7236" width="490" height="380" fill="black" fill-opacity="0.01"/></g></g></g></g></g></svg>