<svg viewBox="28.950000000000045 34.818181818181756 1114.575 725.3787878787881" fill="none" xmlns="http://www.w3.org/2000/svg" xmlns:xlink="http://www.w3.org/1999/xlink" overflow="visible" width="1114.575px" height="725.3787878787881px"><g id="Master/Scene/Together"><g id="Background" transform="translate(29 47) scale(1 1)"><g id="Background/Purple"><g id="Group 24"><path id="Fill 1" fill-rule="evenodd" clip-rule="evenodd" d="M169 507.607H209.934C209.934 507.607 275.885 417.17 353.205 509.868L393 511L389.587 443.171L172.407 433L169 507.607Z" fill="#E2CDFF"/><path id="Fill 3" fill-rule="evenodd" clip-rule="evenodd" d="M59.4193 407L50.6829 432.491L58.767 432.477L49.4828 457.197L58.064 454.951L49 489.1L60.6476 482.055L52.8402 513.42L66.5745 507.349L69.6551 542L74.6558 541.546L71.5131 506.124L89 508.011L70.1888 480.516L86.3288 483.065L67.5995 453.412L78.9336 452.442L65.5325 432.246L75.9688 430.987L59.4193 407Z" fill="#D3B3FF"/><path id="Fill 5" fill-rule="evenodd" clip-rule="evenodd" d="M996.979 50C1033.5 50 1009.9 24.3464 988.667 26.74C987.054 2.08882 957.832 -5.83252 943.189 12.015C927.826 -9.95162 893.404 0.956791 887.295 22.6238C873.553 6.99142 843.656 10.0937 832.232 29.4131C792.267 23.2143 774.281 50 783.271 50H996.979Z" fill="#E2CDFF"/><path id="Fill 7" fill-rule="evenodd" clip-rule="evenodd" d="M972.461 131C961.777 131 977.909 110.305 992.602 117.991C995.585 102.583 1024.1 96.6438 1036.27 111.831C1047.43 103.798 1060.37 106.601 1066.17 118.395C1085.01 112.778 1097 131 1085.49 131H972.461Z" fill="#E2CDFF"/><path id="Fill 9" fill-rule="evenodd" clip-rule="evenodd" d="M784 551L916.048 545.744L975 220L829.979 225.256L784 551Z" fill="#E2CDFF"/><path id="Fill 11" fill-rule="evenodd" clip-rule="evenodd" d="M885 520.508L932.501 348.492L1015 346L971.248 523L885 520.508Z" fill="#D3B3FF"/><path id="Fill 13" fill-rule="evenodd" clip-rule="evenodd" d="M104 526.515L145.064 310.243L211 309L167.457 529L104 526.515Z" fill="#D3B3FF"/><path id="Fill 15" fill-rule="evenodd" clip-rule="evenodd" d="M1019.57 535.457C1020.39 523.867 1023.37 513.322 1020.71 501.792C1018.15 490.675 1008.9 481.331 1007.24 470.331C1005.68 459.975 1012.15 457.517 1015.69 449.798C1019.43 441.659 1015.25 432.83 1019.42 424.679C1023.35 417.015 1034.14 408.798 1043.62 411.539C1054.52 414.689 1052.49 426.479 1050.15 436.298C1048.09 444.969 1041.25 450.883 1039 458.418C1036.87 465.525 1041.24 470.131 1042.23 477.895C1044.16 493.127 1036.73 494.921 1029.59 506.298C1023.92 515.307 1025.24 529.063 1024.53 540" fill="#D3B3FF"/><path id="Fill 17" fill-rule="evenodd" clip-rule="evenodd" d="M1064.21 558.061C1066.38 548.94 1064.92 538.432 1069.53 530.213C1074.07 522.102 1080.1 521.18 1079.7 510.749C1079.24 498.896 1078.02 495.724 1082.49 484.522C1085.19 477.756 1089.05 465.544 1081.98 459.603C1075.41 454.087 1066.49 458.235 1062.84 463.717C1057.32 471.978 1062.33 481.239 1059.98 489.952C1057.59 498.827 1050.39 502.344 1049.22 512.496C1048.21 521.232 1050.76 526.384 1055.17 533.624C1061.7 544.358 1062.96 547.807 1060.45 560.69C1060.44 561.43 1061.29 560.559 1062.58 560.964" fill="#D3B3FF"/><path id="Fill 19" fill-rule="evenodd" clip-rule="evenodd" d="M223.471 166C240.308 166 225.962 147.845 209.245 154.568C203.539 135.57 177.701 135.202 170.359 153.177C154.695 143.511 139.755 166 153.273 166H223.471Z" fill="#E2CDFF"/><g id="Group 23"><mask id="mask047be8ebc-8038-4943-ae7b-97156bc96cbf" mask-type="alpha" maskUnits="userSpaceOnUse" x="0" y="497" width="1100" height="137" fill="#ffffff"><path id="Clip 22" fill-rule="evenodd" clip-rule="evenodd" d="M0 497.548H1099.65V634H0V497.548Z" fill="#ffffff"/></mask><g mask="url(#mask047be8ebc-8038-4943-ae7b-97156bc96cbf)"><path id="Fill 21" fill-rule="evenodd" clip-rule="evenodd" d="M0 632.845C13.3343 580.021 66.9371 525.007 120 508.689C182.623 489.429 365.969 499.787 505.017 505.495C573.691 508.312 806.246 501.414 875.714 498.7C929.629 496.588 1037.38 509.514 1074.81 565.838C1093.28 593.629 1099.65 622.282 1099.65 622.282C1099.65 622.282 694.991 623.347 589.511 629.138C443.651 637.15 0 632.845 0 632.845" fill="#D3B3FF"/></g></g></g></g></g><g id="Master/Character/Sitting On Wheelchair" transform="translate(524 46) scale(1 1)"><g id="Master/Character/Sitting On Wheelchair"><g id="Head" transform="translate(232.7 335.6) scale(1 1)"><g id="Head/Slick 2"><path id="Fill 26" fill-rule="evenodd" clip-rule="evenodd" d="M146.276 26.3845C146.276 16.3845 137.115 16.3845 133.868 18.2885C130.917 20.0195 129.694 22.6855 130.583 24.5515C131.426 26.3225 134.579 24.2625 135.594 26.1975C136.251 27.4465 134.772 28.2175 133.235 28.7065C131.669 29.2065 122.774 30.9525 117.465 33.5245C107.097 38.1435 108.856 52.8635 109.463 59.6635C109.818 63.6695 109.783 68.2485 109.742 72.3585H126.587C126.879 66.8315 133.137 69.0995 135.126 66.5595C136.774 64.4565 135.137 59.6285 135.506 57.4565C138.815 57.3305 140.407 56.3145 140.426 55.2885C140.463 53.4545 137.35 53.7435 135.594 50.9155C133.751 47.9465 137.126 43.5405 136.21 39.3425C136.156 39.0975 136.082 38.8465 135.991 38.5945C140.325 37.5975 146.276 33.4625 146.276 26.3845" fill="black"/></g></g><g id="Sitting Pose" transform="translate(0 264) scale(1 1)"><g id="Sitting Pose/Wheelchair with Pink Flag"><g id="Group 58"><path id="Fill 8" fill-rule="evenodd" clip-rule="evenodd" d="M227.334 0.236816C172 128.237 110.666 16.2368 0 110.903L106.666 236.904C137.334 160.237 249.334 244.236 308 124.237L227.334 0.236816Z" fill="#FA7ED6"/><path id="Combined Shape" fill-rule="evenodd" clip-rule="evenodd" d="M500.005 379.338C500.726 380.505 501.491 381.595 502.318 382.565C505.905 386.772 510.646 386.552 515.257 386.339C518.948 386.168 522.557 386 525.424 388.109C515.158 392.447 505.267 394.912 494.547 393.355L496.016 397.99L486.848 401.236C483.75 395.854 480.65 390.29 477.631 384.61C476.023 382.137 474.32 379.497 472.663 376.929C468.705 370.793 465.01 365.067 463.509 362.992C459.007 356.769 454.69 350.482 451.267 343.674C447.115 335.416 434.541 309.387 432.598 304.606C429.171 303.992 418.618 303.025 407.964 302.048C398.245 301.157 388.442 300.259 383.887 299.613C372.356 297.979 361.735 291.929 353.754 283.662C347.596 277.284 344.624 267.965 342.992 259.658C345.086 260.885 347.135 262.278 349.191 263.674C355.83 268.185 362.528 272.736 370.954 271.881C372.88 271.687 374.652 271.096 376.411 270.509C378.68 269.752 380.927 269.003 383.453 269.119C384.837 269.183 386.233 269.297 387.637 269.411C390.84 269.671 394.079 269.935 397.289 269.618C400.587 269.294 402.505 267.604 404.677 265.692C405.281 265.16 405.904 264.611 406.582 264.069C410.178 261.196 413.435 255.362 416.038 250.7C417.054 248.88 417.97 247.238 418.768 246.02C419.043 245.601 419.095 245.166 419.139 244.793C419.18 244.446 419.215 244.153 419.418 243.978C419.655 243.774 420.442 243.833 420.808 243.86C420.871 243.864 420.922 243.868 420.955 243.869C423.976 244.111 426.958 244.312 429.915 244.512C439.783 245.179 449.379 245.827 459.274 247.881C460.065 248.045 460.881 248.211 461.717 248.38C472.753 250.617 487.317 253.568 493.173 263.837C498.299 272.824 505.645 316.294 506.51 327.301C506.536 327.625 506.535 328.356 506.515 329.394L506.705 329.369C507.599 337.86 508.076 344.727 508.466 350.345C509.168 360.443 509.589 366.506 511.645 370.707C514.077 375.671 518.725 376.635 523.245 377.572C526.864 378.322 530.401 379.055 532.655 381.809C522.926 383.27 510.937 384.136 500.005 379.338ZM437.055 266.337C432.233 265.863 427.468 265.394 423.227 264.228C421.414 263.73 423.394 260.564 425.016 261.009C429.996 262.378 435.081 262.953 440.168 263.528C444.037 263.965 447.907 264.402 451.734 265.189C458.109 266.499 463.373 268.347 467.13 273.936C472.262 281.568 474.606 290.885 476.845 299.781C477.038 300.552 477.231 301.319 477.425 302.081C482.542 322.203 489.086 341.733 496.301 361.208C496.882 362.777 494.079 365.248 493.442 363.529C486.363 344.419 479.765 325.234 474.775 305.469C474.446 304.165 474.124 302.842 473.799 301.508C471.864 293.551 469.836 285.218 465.601 278.325C459.596 268.554 448.174 267.431 437.055 266.337Z" fill="#3333FF"/><path id="Fill 14" fill-rule="evenodd" clip-rule="evenodd" d="M366.563 288.628C350.975 288.628 336.29 295.175 324.092 307.562C300.947 331.066 305.707 354.196 310.604 365.892C319.816 387.89 343.305 403.857 366.457 403.857C381.419 403.857 395.047 397.383 405.867 385.134C423.311 365.385 428.101 342.494 419.009 322.332C409.918 302.173 388.841 288.628 366.563 288.628M366.457 410.137C340.883 410.137 314.959 392.549 304.812 368.316C295.453 345.966 300.849 322.215 319.618 303.155C333.022 289.543 349.255 282.348 366.563 282.348C391.268 282.348 414.645 297.379 424.734 319.75C434.886 342.263 429.725 367.609 410.574 389.292C398.528 402.929 383.272 410.137 366.457 410.137" fill="black"/><path id="Fill 16" fill-rule="evenodd" clip-rule="evenodd" d="M367.94 344.961C357.24 334.518 345.197 325.732 333.662 316.266C332.293 315.142 329.886 318.018 331.252 319.139C342.787 328.606 354.83 337.391 365.53 347.834C366.779 349.053 369.215 346.207 367.94 344.961" fill="black"/><path id="Fill 18" fill-rule="evenodd" clip-rule="evenodd" d="M365.304 347.559C375.912 361.215 386.521 374.873 397.128 388.53C398.316 390.059 401 387.512 399.988 386.209C389.379 372.551 378.771 358.895 368.163 345.237C366.976 343.707 364.291 346.254 365.304 347.559" fill="black"/><path id="Fill 20" fill-rule="evenodd" clip-rule="evenodd" d="M413.351 363.093C401.802 358.483 390.253 353.871 378.704 349.26C377.147 348.639 375.131 351.767 376.914 352.479C388.463 357.09 400.012 361.701 411.562 366.312C413.118 366.934 415.134 363.805 413.351 363.093" fill="black"/><path id="Fill 22" fill-rule="evenodd" clip-rule="evenodd" d="M365.728 345.554C355.302 357.434 344.876 369.313 334.451 381.193C332.915 382.943 334.935 384.618 336.46 382.88C346.887 371 357.313 359.121 367.74 347.241C369.275 345.492 367.253 343.816 365.728 345.554" fill="black"/><path id="Fill 24" fill-rule="evenodd" clip-rule="evenodd" d="M365.171 346.816C361.301 365.806 357.43 384.797 353.559 403.788C353.106 406.012 356.359 404.55 356.686 402.95C360.556 383.959 364.427 364.968 368.298 345.978C368.751 343.753 365.497 345.216 365.171 346.816" fill="black"/><path id="Fill 26" fill-rule="evenodd" clip-rule="evenodd" d="M350.199 350.507C336.282 354.507 322.365 358.507 308.449 362.507C306.842 362.969 305.951 366.368 308.166 365.732C322.083 361.732 336 357.732 349.916 353.732C351.523 353.27 352.414 349.87 350.199 350.507" fill="black"/><path id="Fill 28" fill-rule="evenodd" clip-rule="evenodd" d="M366.954 345.26C349.288 340.594 331.621 335.926 313.954 331.26C312.328 330.83 310.351 334 312.165 334.479C329.831 339.145 347.498 343.813 365.165 348.479C366.791 348.908 368.767 345.739 366.954 345.26" fill="black"/><path id="Fill 30" fill-rule="evenodd" clip-rule="evenodd" d="M426.591 338.953C406.817 340.879 387.041 342.805 367.267 344.731C365.656 344.889 364.16 348.262 366.2 348.063C385.975 346.137 405.75 344.211 425.525 342.285C427.135 342.129 428.631 338.754 426.591 338.953" fill="black"/><path id="Fill 32" fill-rule="evenodd" clip-rule="evenodd" d="M408.298 318.666C394.357 327.426 380.415 336.185 366.474 344.943C364.959 345.895 364.916 349.156 366.993 347.852L408.818 321.572C410.332 320.621 410.375 317.36 408.298 318.666" fill="black"/><path id="Fill 34" fill-rule="evenodd" clip-rule="evenodd" d="M365.187 347.212C369.965 366.275 374.744 385.338 379.522 404.4C380.036 406.449 383.018 404.368 382.618 402.772C377.839 383.709 373.061 364.647 368.283 345.583C367.769 343.533 364.787 345.615 365.187 347.212" fill="black"/><path id="Fill 36" fill-rule="evenodd" clip-rule="evenodd" d="M351.095 296.382C354.749 308.67 358.404 320.957 362.059 333.245C362.662 335.278 365.624 333.194 365.155 331.616C361.5 319.328 357.846 307.041 354.191 294.753C353.586 292.721 350.625 294.805 351.095 296.382" fill="black"/><path id="Fill 38" fill-rule="evenodd" clip-rule="evenodd" d="M379.312 306.615C374.819 319.699 370.326 332.782 365.832 345.865C365.033 348.193 368.195 347.59 368.785 345.873C373.278 332.789 377.771 319.706 382.265 306.623C383.064 304.295 379.902 304.898 379.312 306.615" fill="black"/><path id="Fill 40" fill-rule="evenodd" clip-rule="evenodd" d="M316.243 244.955C320.641 258.971 327.779 271.891 332.028 285.955C332.846 288.66 336.792 285.883 336.157 283.783C331.905 269.711 324.769 256.795 320.372 242.783C319.524 240.085 315.587 242.863 316.243 244.955" fill="black"/><path id="Fill 42" fill-rule="evenodd" clip-rule="evenodd" d="M273.704 188.701C281.274 188.621 289.175 187.341 296.471 189.921C299.64 191.041 303.649 184.756 300.051 183.483C292.251 180.726 283.925 181.951 275.837 182.037C272.56 182.072 269.525 188.745 273.704 188.701" fill="black"/><path id="Fill 44" fill-rule="evenodd" clip-rule="evenodd" d="M468.675 395.821C459.815 378.701 450.534 362.533 437.2 348.454C435.614 346.779 432.349 350.555 433.986 352.284C447.105 366.134 456.153 382.086 464.862 398.917C466.025 401.16 469.706 397.814 468.675 395.821" fill="black"/><path id="Fill 46" fill-rule="evenodd" clip-rule="evenodd" d="M408.517 267.131C415.728 256.417 421.943 244.46 422.373 231.296C422.807 218.074 413.436 206.268 408.371 194.605C405.484 187.954 403.121 181.098 401.166 174.119C400.019 170.022 399.346 165.828 397.61 161.923C394.744 155.475 389.203 150.865 383.047 147.708C372.313 142.203 359.21 141.631 347.415 141.92C337.461 142.164 327.284 143.902 318.421 148.611C303.984 156.281 299.429 171.309 298.308 186.604C297.344 199.752 298.809 213.463 303.554 225.801C308.197 237.876 318.267 246.006 328.726 252.977C334.185 256.615 339.867 259.908 345.429 263.383C349.824 266.127 353.656 268.787 358.648 270.357C365.972 272.659 378.456 275.191 384.609 269.047C386.266 267.392 384.212 265.747 382.597 267.36C379.529 270.425 372.498 269.326 368.675 268.889C363.389 268.283 357.589 266.844 353.077 263.933C343.383 257.68 333.253 252.005 324.008 245.086C313.731 237.393 307.165 228.056 303.908 215.615C300.662 203.221 300.467 189.852 302.384 177.234C303.535 169.651 306.287 162.574 311.624 156.961C318.537 149.694 329.119 146.951 338.726 145.788C357.419 143.526 386.085 144.752 395.034 164.88C397.913 171.357 398.828 178.858 401.123 185.588C404.096 194.302 407.942 202.679 412.122 210.871C414.429 215.393 417.052 219.639 418.386 224.582C419.615 229.137 419.357 233.936 418.634 238.544C417.055 248.607 411.536 257.949 405.937 266.268C404.551 268.326 407.388 268.808 408.517 267.131" fill="#3333FF"/><path id="Fill 48" fill-rule="evenodd" clip-rule="evenodd" d="M336.012 180.181C341.088 196.735 332.597 220.822 349.283 232.24C361.491 240.594 382.074 240.743 389.923 254.655C390.861 256.317 393.609 253.797 392.783 252.334C385.706 239.792 367.951 237.492 356.009 231.796C347.24 227.615 343.365 221.174 341.995 211.571C340.426 200.553 342.421 189.355 339.108 178.552C338.487 176.525 335.53 178.608 336.012 180.181" fill="#3333FF"/><path id="Fill 50" fill-rule="evenodd" clip-rule="evenodd" d="M376.346 177.848C378.762 190.684 380.857 203.774 385.32 216.1C389.564 227.826 396.923 238.242 399.679 250.514C400.14 252.571 403.135 250.491 402.775 248.885C400.206 237.444 393.787 227.594 389.34 216.87C384.014 204.03 381.997 189.796 379.442 176.219C379.054 174.159 376.042 176.235 376.346 177.848" fill="#3333FF"/><path id="Fill 52" fill-rule="evenodd" clip-rule="evenodd" d="M390.873 256.869C395.026 255.244 399.114 255.883 403.116 257.626C406.524 259.112 409.499 262.304 410.691 266.119C411.571 268.932 410.953 269.712 408.623 270.619C407.476 271.066 407.146 270.463 406.318 271.37C405.606 272.149 405.849 273.419 405.435 274.375C404.329 276.927 403.464 276.269 401.386 276.05C398.644 275.759 399.362 276.888 397.067 277.813C394.274 278.94 390.683 275.465 388.373 274.063C386.442 272.892 384.017 271.324 382.929 269.313C380.382 264.609 387.046 258.366 390.873 256.869" fill="black"/><path id="Fill 54" fill-rule="evenodd" clip-rule="evenodd" d="M396.121 256.869C399.084 251.173 410.882 253.363 413.627 258.382C415.177 261.217 414.521 265.963 411.114 267.069C408.575 267.894 403.198 267.059 401.121 265.369" fill="black"/><path id="Fill 56" fill-rule="evenodd" clip-rule="evenodd" d="M225.403 3.78121C245.883 34.4812 266.364 65.1812 286.843 95.8812C321.751 148.208 356.659 200.535 391.566 252.861L426.737 305.584C428.164 307.721 431.785 304.341 430.549 302.488C410.069 271.789 389.589 241.088 369.109 210.388C334.202 158.061 299.294 105.734 264.386 53.4072C252.663 35.8342 240.939 18.2602 229.216 0.685205C227.789 -1.45179 224.168 1.92821 225.403 3.78121" fill="black"/></g></g></g></g></g><g id="Master/Character/Couple Standing" transform="translate(132 47) scale(1 1)"><g id="Master/Character/Couple Standing"><g id="Couple Pose" transform="translate(-35 38) scale(1 1)"><g id="Couple Pose/Love 2"><g id="Group 370"><g id="Group 301"><path id="Fill 273" fill-rule="evenodd" clip-rule="evenodd" d="M623.601 623.478C622.382 623.553 621.016 625.061 621.638 626.305L622.579 628.183C622.642 628.311 622.704 628.404 622.76 628.476C622.622 628.492 622.439 628.544 622.198 628.663C620.082 629.697 618.067 630.97 616.055 632.191C614.836 632.93 610.013 625.664 609.044 624.404C600.77 613.636 592.688 602.887 583.74 592.648C573.045 580.412 561.738 568.854 551.557 556.177C544.408 547.276 537.364 538.281 530.016 529.541C520.292 517.976 510.114 506.734 501.192 494.527C486.225 474.048 468.34 442.51 485.735 418.587C489.422 420.343 493.119 421.978 497.004 423.287C497.319 423.392 497.672 423.345 498 423.211C503.251 425.191 506.712 425.157 512.168 423.047C518.169 420.729 523.766 417.165 530.017 415.539C530.607 416.142 531.099 416.858 531.608 417.526C532.272 418.398 532.908 419.291 533.539 420.186C536.836 424.856 539.938 429.678 543.077 434.456C549.166 443.721 555.067 453.113 560.716 462.653C568.145 475.196 575.19 488.08 580.716 501.588C584.672 511.257 589.308 524.228 586.403 535.048C577.998 519.365 569.554 503.704 561.112 488.042C555.118 476.923 549.145 465.791 543.058 454.723C542.14 453.055 539.388 455.572 540.199 457.045C554.759 483.518 568.955 510.197 583.22 536.83C590.611 550.626 597.996 564.426 605.297 578.27C611.48 589.99 616.415 604.144 626.67 612.82C629.634 615.327 633.209 615.421 636.887 614.979C639.599 614.654 642.243 613.959 644.963 613.654C646.379 613.51 647.78 613.631 649.163 614.016C649.623 614.124 650.188 613.91 650.474 613.772C650.38 613.828 650.249 613.909 650.073 614.023C642.178 619.12 633.036 622.893 623.601 623.478M522.524 587.242C520.846 583.837 519.048 580.491 517.281 577.133C514.797 572.415 512.294 567.707 509.796 562.997C517.135 554.793 525.239 546.728 531.858 537.904C539.878 547.646 547.841 557.444 555.845 567.404C545.39 575.24 534.502 582.458 523.855 590.028C523.378 589.015 522.934 588.073 522.524 587.242M535.17 612.82C538.134 615.327 541.709 615.421 545.387 614.979C548.099 614.654 550.743 613.959 553.463 613.654C554.879 613.51 556.28 613.631 557.663 614.016C558.123 614.124 558.688 613.91 558.974 613.772C558.88 613.828 558.749 613.909 558.573 614.023C550.678 619.12 541.536 622.893 532.101 623.478C530.882 623.553 529.516 625.061 530.138 626.305L531.079 628.183C531.142 628.311 531.204 628.404 531.26 628.476C531.122 628.492 530.939 628.544 530.698 628.663C528.582 629.697 526.567 630.97 524.555 632.191C523.336 632.93 518.513 625.664 517.544 624.404C509.27 613.636 501.188 602.887 492.24 592.648C481.545 580.412 470.238 568.854 460.057 556.177C452.908 547.276 445.864 538.281 438.516 529.541C428.792 517.976 418.614 506.734 409.692 494.527C394.725 474.048 376.84 442.51 394.235 418.587C397.922 420.343 401.619 421.978 405.504 423.287C405.815 423.391 406.164 423.345 406.489 423.216C410.608 424.788 413.856 425.334 418.316 424.357C423.68 423.182 428.779 420.812 433.979 419.093C435.451 418.607 437.464 418.558 438.572 417.367C440.125 415.695 441.618 419.166 442.06 420.16C443.324 423 445.789 425.728 447.522 428.323C449.54 431.344 451.534 434.382 453.517 437.426C464.918 454.923 475.9 472.854 484.87 491.739C490.528 503.651 498.817 521.044 494.92 535.082C486.51 519.388 478.06 503.715 469.612 488.042C463.618 476.923 457.645 465.791 451.558 454.723C450.64 453.055 447.888 455.572 448.699 457.045C463.259 483.518 477.455 510.197 491.72 536.83C499.111 550.626 506.496 564.426 513.797 578.27C519.98 589.99 524.915 604.144 535.17 612.82M494.086 616.89C493.253 621.292 495.207 625.255 496.216 629.458C496.421 630.313 496.269 634.457 495.997 634.101C494.884 632.645 493.883 631.107 492.887 629.571C491.174 626.931 489.745 624.118 488.439 621.26C486.609 617.253 485.309 612.952 484.696 608.587C484.573 607.711 483.54 607.555 482.888 607.949C481.689 608.671 480.694 610.104 479.827 608.828C478.672 607.13 477.518 605.432 476.364 603.734C474.739 601.344 475.303 601.675 477.339 599.419C480.017 596.453 482.681 593.475 485.345 590.496C490.422 596.14 495.374 601.897 500.174 607.778C497.445 610.262 494.785 613.2 494.086 616.89M418.997 599.773C414.012 603.482 408.473 606.98 404.772 612.07C399.559 619.24 405.159 625.891 405.055 633.559C404.383 634.57 403.828 634.241 403.388 632.57C402.348 631.132 401.416 629.62 400.49 628.108C398.905 625.524 397.591 622.782 396.398 619.999C394.841 616.37 393.746 612.499 393.196 608.587C393.073 607.711 392.04 607.555 391.388 607.949C390.189 608.671 389.194 610.104 388.327 608.828C387.172 607.13 386.018 605.432 384.864 603.734C383.606 601.884 383.291 602.239 384.716 600.664C386.142 599.086 387.564 597.505 388.985 595.923C396.223 587.867 403.419 579.772 410.605 571.667C417.654 563.718 424.686 555.754 431.685 547.761C434.516 544.527 437.694 541.349 440.366 537.914C448.384 547.653 456.344 557.448 464.346 567.405C454.544 574.748 444.355 581.524 434.356 588.591C429.184 592.248 424.077 595.993 418.997 599.773M652.857 611.855C650.432 607.878 639.608 611.449 636.371 611.837C624.979 613.206 617.973 595.253 614.024 587.242C612.346 583.837 610.548 580.491 608.781 577.133C601.951 564.156 595.054 551.213 588.131 538.284C588.279 538.115 588.4 537.928 588.483 537.724C593.134 526.252 588.571 512.122 584.381 501.292C579.022 487.437 571.76 474.31 564.273 461.515C558.441 451.55 552.257 441.793 545.936 432.133C542.74 427.249 539.554 422.334 536.187 417.565C534.956 415.823 533.54 413.167 531.683 412.021C531.224 411.738 530.695 411.715 530.217 412.004C530.179 412.028 530.14 412.051 530.102 412.074C529.888 412.204 529.69 412.359 529.514 412.534C525.093 413.804 520.944 415.983 516.793 417.912C513.965 419.225 511.11 420.457 508.1 421.286C504.864 422.177 502.027 420.914 499.043 419.719C498.735 419.596 498.373 419.651 498.038 419.794C494.083 418.412 490.305 416.719 486.528 414.899C485.891 414.592 484.997 415.196 484.627 415.665C459.779 447.228 490.349 488.438 511.153 513.057C517.569 520.65 523.872 528.226 530.14 535.826C523.678 544.521 515.75 552.471 508.489 560.526C504.549 553.105 500.597 545.691 496.631 538.284C496.779 538.115 496.9 537.928 496.983 537.724C502.872 523.201 494.788 504.855 488.862 491.851C480.067 472.55 468.812 454.352 457.325 436.568C453.288 430.317 449.152 424.129 444.974 417.972C443.78 416.212 442.783 413.062 440.019 413.479C438.61 413.692 437.88 414.869 436.612 415.176C434.061 415.795 431.583 416.772 429.122 417.667C423.834 419.593 417.325 422.883 411.627 421.207C410.237 420.796 408.888 420.257 407.543 419.719C407.235 419.596 406.873 419.651 406.539 419.794C402.583 418.412 398.805 416.719 395.028 414.899C394.391 414.592 393.497 415.196 393.127 415.665C368.279 447.228 398.849 488.438 419.653 513.057C426.075 520.657 432.382 528.239 438.656 535.844C435.179 540.478 430.874 544.707 427.09 549.021C418.768 558.508 410.401 567.957 402.016 577.389C397.919 581.999 393.815 586.601 389.701 591.196C387.011 594.2 382.223 597.862 380.634 601.582C379.4 604.474 383.599 608.402 385.079 610.579C386.87 613.211 388.243 612.961 390.355 611.776C392.066 621.409 396.94 630.273 402.823 637.974C404.191 639.765 407.007 638.392 407.472 636.493C408.809 631.028 407.442 626.669 405.964 621.409C404.25 615.309 408.28 611.377 412.793 607.812C418.911 602.98 425.284 598.432 431.606 593.874C443.02 585.642 454.801 577.946 466.052 569.489C471.376 575.937 477.492 581.826 483.118 588.003C483.275 588.176 483.427 588.353 483.584 588.526C479.935 592.608 476.283 596.686 472.605 600.743C471.139 602.361 472.048 603.914 473.048 605.385C474.543 607.583 476.038 609.783 477.533 611.982C478.616 613.575 480.397 612.767 481.867 611.851C482.529 615.449 483.674 618.923 485.039 622.321C486.384 625.666 488.146 628.825 490.028 631.892C491.008 633.491 493.545 639.084 496.005 638.862C500.652 638.442 499.83 630.849 499.313 627.83C498.87 625.246 497.77 622.794 497.189 620.238C496.193 615.853 498.819 612.603 501.857 609.832C504.312 612.879 506.737 615.951 509.1 619.071C512.14 623.084 515.005 627.194 518.178 631.105C519.17 632.328 521.261 636.228 523.282 635.826C525.022 635.48 526.543 634.207 528.055 633.321C529.522 632.46 531.873 631.788 533.097 630.632C534.66 629.157 534.705 627.906 534.19 626.498C543.247 625.317 551.901 621.574 559.544 616.637C561.332 615.483 562.597 613.889 561.357 611.855C558.932 607.878 548.108 611.449 544.871 611.837C535.58 612.954 529.207 601.219 525.03 592.506C535.854 584.806 546.931 577.474 557.552 569.489C562.877 575.937 568.992 581.826 574.618 588.003C583.71 597.989 592.445 608.304 600.6 619.071C603.64 623.084 606.505 627.194 609.678 631.105C610.67 632.328 612.761 636.228 614.782 635.826C616.522 635.48 618.043 634.207 619.555 633.321C621.022 632.46 623.373 631.788 624.597 630.632C626.16 629.157 626.205 627.906 625.69 626.498C634.747 625.317 643.401 621.574 651.044 616.637C652.832 615.483 654.097 613.889 652.857 611.855" fill="black"/><path id="Fill 275" fill-rule="evenodd" clip-rule="evenodd" d="M545.021 402.666C534.818 412.99 533.49 419.373 535.796 423.326C542.63 435.033 555.18 435.092 555.796 432.619C556.652 429.189 546.853 427.545 544.144 424.939C546.9 422.574 552.978 419.586 553.439 415.104C553.439 415.104 550.146 414.619 547.863 412.35C546.132 410.629 543.716 408.596 545.021 402.666" fill="black"/><path id="Fill 277" fill-rule="evenodd" clip-rule="evenodd" d="M545.797 426.093C547.297 427.823 549.902 428.329 551.803 428.669C552.838 428.853 556.815 428.677 555.246 425.755C554.58 424.513 551.617 424.308 550.524 424.019C549.797 423.827 541.847 422.593 542.422 424.406" fill="black"/><path id="Fill 279" fill-rule="evenodd" clip-rule="evenodd" d="M545.162 393.13C546.707 382.907 547.212 372.765 547.567 362.469C552.974 364.54 556.642 369.842 559.109 375.092C555.25 380.059 551.361 384.931 548.085 390.337C546.888 392.312 545.626 394.546 544.595 396.899C544.788 395.645 544.972 394.388 545.162 393.13M589.353 359.067C585.842 353.46 581.895 348.276 577.539 343.302C569.767 334.423 562.414 323.376 552.084 317.316C547.554 314.659 542.485 313.468 537.35 312.679C534.065 312.175 530.731 311.984 527.416 311.817C525.674 311.73 523.929 311.698 522.184 311.663C520.472 311.63 517.068 312.317 515.521 311.677C509.636 309.241 503.75 306.804 497.863 304.368C488.835 300.63 477.247 301.871 467.879 303.461C457.564 305.211 447.698 308.915 437.379 310.687C423.422 313.085 410.063 309.547 396.146 309.841C371.49 310.366 357.711 330.704 341.383 346.155C334.166 352.985 328.117 361.685 323.81 370.61C319.66 379.212 319.226 387.614 324.743 395.741C330.641 404.431 341.205 406.47 349.334 412.275C355.433 416.63 363.363 423.452 371.435 420.808C378.836 418.384 383.956 406.392 381.137 399.31C379.006 393.956 374.368 391.46 369.831 388.359C365.85 385.638 362.571 382.107 359.163 378.734C363.257 376.085 365.572 371.736 368.738 367.919C372.269 363.663 377.456 360.381 382.386 357.617C380.919 367.058 381.298 376.659 381.729 386.179C382.096 394.273 383.303 402.388 386.749 409.784C393.25 423.739 411.144 426.958 425.079 426.722C441.69 426.441 451.357 411.972 455.715 397.474C457.805 390.519 458.675 383.241 459.986 376.118C461.392 368.47 462.894 360.837 464.475 353.221C464.798 354.593 465.121 355.965 465.443 357.337C470.031 375.032 467.968 395.083 477.085 411.396C483.821 423.448 499.592 426.886 512.326 427.064C524.479 427.232 536.366 421.784 541.302 410.058C541.748 408.997 542.12 407.921 542.459 406.837C542.554 408.148 542.836 409.441 543.356 410.694C546.523 418.321 556.829 418.415 563.226 415.929C566.939 414.487 570.068 412.04 572.82 409.212C576.747 405.175 577.852 400.2 580.165 395.29C584.273 386.566 593.915 382.884 594.616 372.261C594.923 367.62 591.683 362.788 589.353 359.067" fill="#3333FF"/><path id="Fill 281" fill-rule="evenodd" clip-rule="evenodd" d="M421.497 374.72C417.384 376.172 413.14 376.788 408.842 377.286C408.932 366.838 409.827 356.414 409.882 345.964C409.907 341.325 403.647 344.247 403.63 347.64C403.569 359.001 402.504 370.327 402.575 381.691C402.582 382.863 403.153 384.351 404.635 384.185C410.146 383.574 415.674 383.027 420.933 381.169C424.043 380.072 425.809 373.199 421.497 374.72" fill="white"/><path id="Fill 283" fill-rule="evenodd" clip-rule="evenodd" d="M441.282 374.55C431.811 375.849 429.114 354.286 437.162 353.98C438.986 353.911 440.732 351.788 441.195 349.956C448.035 350.3 447.803 373.655 441.282 374.55M443.139 343.275C441.271 343.298 439.487 345.478 439.069 347.338C422.22 348.287 421.828 382.073 439.149 381.214C448.273 380.763 451.438 369.696 452.064 362.277C452.576 356.208 451.764 343.165 443.139 343.275" fill="white"/><path id="Fill 285" fill-rule="evenodd" clip-rule="evenodd" d="M500.014 350.504C499.177 354.541 498.591 358.629 497.826 362.68C497.335 365.275 496.752 367.848 496.076 370.4C496.014 370.636 495.939 370.867 495.872 371.101C492.327 362.777 489.586 353.682 483.952 346.705C481.518 343.692 476.168 348.789 478.235 351.348C484.991 359.715 487.581 371.135 492.397 380.609C493.009 381.813 494.754 381.859 495.776 381.195C500.34 378.221 501.581 372.272 502.763 367.297C504.081 361.75 504.765 356.092 505.92 350.518C506.914 345.719 500.768 346.869 500.014 350.504" fill="white"/><path id="Fill 287" fill-rule="evenodd" clip-rule="evenodd" d="M537.297 375.039C532.896 376.792 527.377 376.443 522.512 376.157C522.59 373.382 522.563 370.608 522.468 367.836C525.007 367.92 527.55 367.927 530.076 367.932C533.357 367.937 536.397 361.273 532.209 361.268C528.874 361.262 525.51 361.253 522.164 361.063C521.992 357.794 521.814 354.524 521.723 351.252C525.641 351.023 529.607 351.133 533.432 351.877C536.719 352.516 540.622 346.141 537.012 345.439C531.271 344.322 525.403 344.297 519.604 344.955C518.308 345.102 517.169 345.773 516.392 346.77C516.378 346.787 516.366 346.805 516.353 346.821C516.29 346.903 516.225 346.982 516.168 347.068C515.711 347.685 515.409 348.392 515.411 349.125C515.418 352.93 515.599 356.731 515.797 360.531C512.816 360.94 510.408 366.645 514.324 367.189C514.927 367.273 515.53 367.346 516.136 367.411C516.318 371.676 516.411 375.94 516.182 380.211C516.109 381.566 516.819 382.639 518.241 382.705C524.932 383.019 532.008 383.373 538.336 380.853C541.785 379.48 541.85 373.227 537.297 375.039" fill="white"/><path id="Fill 289" fill-rule="evenodd" clip-rule="evenodd" d="M497.385 311.83C488.275 311.672 479.238 310.918 472.495 318.164C469.853 321.004 468.591 325.537 467.391 329.1C464.981 336.254 463.339 343.684 461.735 351.051C461.213 353.447 464.293 352.869 464.688 351.059C466.774 341.482 468.724 331.359 472.937 322.441C477.12 313.584 488.244 315.021 496.319 315.162C497.96 315.189 499.484 311.865 497.385 311.83M546.731 346.598C546.9 344.934 550.09 343.465 549.858 345.76C549.386 350.418 549.156 355.088 548.992 359.764C548.933 361.453 545.784 362.918 545.865 360.601C546.031 355.926 546.26 351.256 546.731 346.598" fill="black"/><path id="Fill 291" fill-rule="evenodd" clip-rule="evenodd" d="M516.195 313.445C516.486 307.918 522.746 310.186 524.734 307.646C526.383 305.543 524.744 300.715 525.113 298.543C528.424 298.417 530.014 297.401 530.035 296.375C530.07 294.541 526.736 294.416 525.884 293.055C524.849 291.403 525.521 288.571 526.113 285.293C537.736 284.334 549.97 280.129 549.101 277.21C548.32 274.584 536.195 280.75 526.369 280.727C525.195 276.75 518.932 270.979 508.883 273.938C496.5 277.583 498.43 293.576 499.07 300.75C499.425 304.756 499.39 308.891 499.349 313" fill="black"/><path id="Fill 293" fill-rule="evenodd" clip-rule="evenodd" d="M564.211 327.765C566.58 326.88 574.619 327.814 576.797 329.638C579.668 332.04 580.264 335.617 581.658 338.937C582.875 341.833 584.072 342.113 584.209 345.761C584.32 348.765 585.746 355.722 583.004 356.179C579.217 356.812 578.672 345.513 578.672 345.513C578.672 345.513 577.52 350.831 575.504 349.679C573.172 348.347 572.629 342.013 572.629 342.013C572.629 342.013 571.951 345.474 569.918 344.982C566.254 344.095 571.297 334.888 564.211 327.765" fill="black"/><path id="Fill 295" fill-rule="evenodd" clip-rule="evenodd" d="M344.646 340.98C344.457 336.994 345.05 333.418 347.271 330.367C349.574 327.203 352.386 321.232 356.427 320.328C359.789 319.576 365.525 321.718 367.943 324.08C371.971 328.015 365.744 328.197 363.314 329.623C368.312 332.402 361.055 333.369 359.123 333.669C363.197 337.625 356.876 339.168 354.144 339.933C352.593 340.365 344.81 344.447 344.646 340.98" fill="black"/><path id="Fill 297" fill-rule="evenodd" clip-rule="evenodd" d="M380.871 404.408C391.359 410.088 394.123 415.107 393.338 419.221C390.795 432.537 378.98 436.773 377.576 434.646C375.627 431.697 384.318 426.883 386.004 423.523C382.617 422.211 375.891 421.42 373.963 417.346C373.963 417.346 376.908 415.791 378.304 412.892C379.363 410.693 380.871 404.408 380.871 404.408" fill="black"/><path id="Fill 299" fill-rule="evenodd" clip-rule="evenodd" d="M384.83 425.162C383.992 427.293 381.705 428.639 380.027 429.592C379.111 430.109 375.303 431.269 375.808 427.99C376.023 426.599 378.748 425.418 379.683 424.781C380.304 424.357 387.389 420.545 387.449 422.447" fill="black"/></g></g></g></g><g id="Head" transform="translate(272 280) scale(1 1)"><g id="Head/Tall Hat 2"><g id="Group 53"><path id="Fill 49" fill-rule="evenodd" clip-rule="evenodd" d="M126.562 72.7848C126.853 67.2588 133.112 69.1518 135.1 66.6118C136.749 64.5088 135.111 59.6808 135.48 57.5088C138.79 57.3828 140.381 56.3668 140.402 55.3408C140.437 53.5068 137.326 53.7958 135.567 50.9678C133.723 47.9988 137.098 43.5928 136.182 39.3948C135.297 35.3438 129.299 29.9448 119.249 32.9038C110.927 35.3538 108.598 33.3118 108.598 46.7288C108.598 50.2318 109.228 57.3638 109.437 59.7158C109.792 63.7218 109.757 68.6758 109.715 72.7848" fill="black"/><path id="Fill 51" fill-rule="evenodd" clip-rule="evenodd" d="M108.229 41.6867C108.229 41.6867 101.693 42.2507 97.8499 42.4427C96.1449 42.5277 93.4929 41.9987 92.8439 43.9307C91.9809 46.5037 95.0319 47.2187 96.7939 47.4927C100.688 48.0967 144.774 45.4057 148.163 44.9997C151.288 44.6247 152.531 43.6667 152.6 42.2487C152.656 41.1067 151.872 40.5557 151.098 40.1877C149.404 39.3797 136.225 40.3747 136.225 40.3747C136.225 40.3747 136.682 13.5197 121.329 13.5197C107.016 13.5197 108.229 41.6867 108.229 41.6867" fill="#FF3333"/></g></g></g></g></g><g id="Master/Character/Standing" transform="translate(-108 47) scale(1 1)"><g id="Master/Character/Standing"><g id="Head" transform="translate(273 280.5) scale(1 1)"><g id="Head/Dread 1"><path id="Fill 95" fill-rule="evenodd" clip-rule="evenodd" d="M140.46 55.2629C140.497 53.4289 137.384 53.7179 135.627 50.8899C133.784 47.9209 137.159 43.5149 136.243 39.3169C135.358 35.2659 129.359 29.8669 119.309 32.8259C117.706 33.2969 116.349 33.9789 115.191 34.8189L115.142 34.4699C114.472 24.9369 98.9013 25.3319 98.4803 35.4139C92.7473 29.6039 83.7063 33.3779 84.3763 42.0689C81.7203 36.9529 68.5843 37.7489 71.3403 48.9959C66.8213 41.9199 57.9813 45.6199 58.4283 52.1009C55.7963 46.4889 49.4403 45.5699 46.0133 52.2739C46.7593 47.7299 40.2783 41.0259 34.3193 47.5069C35.4783 42.2999 26.2903 39.9839 24.3743 44.8169L24.2643 45.2489C23.4573 49.5669 29.3623 52.1459 33.1273 49.8159C33.2763 57.1909 42.5133 58.9779 45.2713 54.2839C45.4933 63.1499 57.3133 62.8259 58.8763 55.5269C64.4633 61.8589 71.6893 58.8049 72.0853 50.8589C77.5223 57.1909 87.2883 53.2639 85.7903 44.6019C88.3313 49.6139 98.5553 48.5249 99.3003 40.0329C101.866 44.2179 106.261 45.0269 109.794 43.6259C108.433 49.3129 109.151 55.7619 109.497 59.6379C109.852 63.6439 109.816 68.2219 109.775 72.3319H126.622C126.915 66.8059 133.172 69.0739 135.16 66.5339C136.808 64.4309 135.169 59.6029 135.54 57.4309C138.849 57.3049 140.44 56.2879 140.46 55.2629" fill="black"/></g></g><g id="Full Body" transform="translate(198 0) scale(1 1)"><g id="Full Body/Heart Up"><g id="Group 165"><path id="Fill 151" fill-rule="evenodd" clip-rule="evenodd" d="M298.096 480.514C311.789 489.712 324.291 508.042 322.299 510.875C320.336 513.669 314.264 503.66 312.815 501.929C315.622 510.673 312.579 514.615 310.72 514.064C308.284 513.34 311.875 508.075 307.852 504.207C309.971 509.572 306.826 513.786 305.379 513.415C303.054 512.818 306.641 508.72 302.801 504.453C304.096 509.156 302.526 512.539 301.158 512.186C299.299 511.706 301.654 508.885 298.075 504.218C296.018 501.536 290.746 495.113 289.457 493.49C297.975 491.424 300.77 486.109 298.096 480.514" fill="black"/><path id="Fill 153" fill-rule="evenodd" clip-rule="evenodd" d="M298.096 480.483C311.789 489.681 324.291 508.011 322.299 510.844C320.336 513.638 314.264 503.629 312.815 501.898C315.622 510.642 312.579 514.584 310.72 514.033C308.284 513.309 311.875 508.044 307.852 504.176C309.971 509.541 306.826 513.755 305.379 513.384C303.054 512.787 306.641 508.689 302.801 504.422C304.096 509.125 302.526 512.508 301.158 512.155C299.299 511.675 301.654 508.854 298.075 504.187C296.018 501.505 290.746 495.082 289.457 493.459C297.975 491.393 300.77 486.078 298.096 480.483" fill="black"/><path id="Fill 155" fill-rule="evenodd" clip-rule="evenodd" d="M157.817 451.66C131.817 469.16 134.817 514.16 134.817 514.16C135.505 534.977 134.272 557.892 135.354 578.676C136.348 597.777 139.319 617.467 138.354 636.566C137.977 644.023 138.43 653.743 135.827 660.541C132.268 669.834 120.393 666.853 115.895 673.479C127.02 674.142 137.167 673.164 146.754 668.117L146.919 672.979H156.641C159.764 656.033 162.454 637.779 163.354 620.066C164.212 603.209 165.213 586.062 166.88 569.066C167.717 560.52 179.817 506.66 179.817 506.66C179.817 506.66 200.958 559.4 203.854 568.541C209.917 587.674 213.051 606.605 220.745 624.953C224.133 633.031 227.452 641.016 230.243 649.178C232.54 655.89 238.354 675.439 238.354 675.439H248.778L249.329 667.741C254.036 677.303 271.823 680.474 280.778 680.99C280.526 677.621 270.483 674.229 267.479 671.939C262.79 668.361 259.594 663.744 257.368 658.551C252.35 646.841 252.352 633.54 250.38 620.564C247.868 604.019 244.454 587.107 241.329 570.59C239.719 562.086 233.706 526.474 231.354 517.064C231.354 517.064 223.317 469.66 210.817 458.66C210.817 458.66 200.817 469.66 182.317 466.16C163.817 462.66 157.817 451.66 157.817 451.66" fill="black"/><path id="Fill 157" fill-rule="evenodd" clip-rule="evenodd" d="M220.769 402.079C219.295 415.275 218.605 428.625 215.723 441.62C213.027 453.78 207.582 464.055 194.021 465.085C171.874 466.767 150.475 447.5 146.725 426.484C145.007 416.851 145.658 406.908 144.973 397.179C144.176 385.85 141.048 375.135 136.081 364.943C130.277 353.035 122.152 342.428 116.341 330.514C113.224 324.122 111.63 317.549 110.259 310.62C108.623 302.343 106.971 294.074 105.796 285.716C104.655 277.598 104.225 269.418 104.763 261.235C105.313 252.873 112.967 244.912 120.91 250.703C125.192 253.824 127.073 259.83 128.511 264.653C130.206 270.335 131.6 276.107 133.046 281.856C138.142 302.125 144.416 324.208 160.15 338.885C168.652 346.815 178.872 352.678 190.34 354.715C202.876 356.942 216.217 356.213 227.388 363.232C236.602 369.02 241.993 379.9 246.184 389.538C250.364 399.149 253.316 409.226 256.864 419.074C262.368 434.351 272.373 446.705 282.419 459.221C286.943 464.856 291.533 470.539 295.082 476.857C297.524 481.204 299.291 487.315 293.921 490.419C290.692 492.286 286.18 490.773 283.028 489.555C276.851 487.167 272.498 482.691 267.953 478.124C263.088 473.238 258.11 468.462 253.524 463.309C242.582 451.016 232.822 436.847 226.762 421.499C226.084 419.784 223.288 422.262 223.903 423.821C232.991 446.836 249.604 464.986 266.775 482.235C273.054 488.544 281.107 495.218 290.652 494.429C299.83 493.671 301.948 484.099 299.103 476.923C297.151 471.999 293.539 467.537 290.364 463.361C286.003 457.625 281.363 452.104 276.931 446.423C269.303 436.641 263.146 426.434 258.998 414.727C252.359 395.985 247.088 372.427 229.799 360.359C220.162 353.633 207.394 353.451 196.169 352.079C183.079 350.477 172.334 344.761 162.56 336.012C145.506 320.746 140.078 295.775 134.695 274.482C132.423 265.499 130.673 254.22 123.321 247.83C115.809 241.303 107.021 247.424 103.755 255.033C98.388 267.535 101.976 284.051 104.216 296.933C106.639 310.864 108.983 324.415 115.608 337.03C121.522 348.29 129.176 358.53 134.566 370.085C139.372 380.385 141.506 391.229 142.105 402.51C142.598 411.798 142.218 421.14 144.043 430.309C145.871 439.484 150.666 447.337 157.399 453.738C169.921 465.642 192.302 474.946 207.787 463.058C215.08 457.46 217.738 446.823 219.387 438.292C221.752 426.057 222.514 413.607 223.896 401.241C224.152 398.952 220.955 400.42 220.769 402.079" fill="black"/><path id="Fill 159" fill-rule="evenodd" clip-rule="evenodd" d="M119.623 255.41C118.884 256.781 115.732 257.41 112.419 256.368C110.023 255.615 107.863 252.799 106.832 250.653C105.967 248.856 106.137 247.002 105.471 245.188C104.961 243.799 104.035 242.794 102.779 241.766C101.748 240.921 101.12 240.265 101.49 239.054C102.301 239.061 102.506 238.588 103.051 238.124C104.35 237.018 105.432 236.345 107.123 235.755C108.876 235.144 112.648 233.588 114.699 234.153C117.234 234.853 117.194 239.815 117.285 241.582C117.423 244.219 117.346 246.775 117.781 249.378C118.041 250.922 121.017 252.827 119.623 255.41" fill="black"/><path id="Fill 161" fill-rule="evenodd" clip-rule="evenodd" d="M113.913 198.038C112.798 189.007 106.677 177.837 95.3825 179.967C85.0525 181.914 81.5085 193.09 81.8655 201.934C82.3535 214.1 90.5715 224.304 95.2665 235.202C99.9325 246.026 103.539 242.211 112.495 237.262C125.84 229.888 146.958 220.695 143.343 205.268C139.574 189.177 122.77 188.01 113.913 198.038" fill="#FF3333"/><path id="Fill 163" fill-rule="evenodd" clip-rule="evenodd" d="M119.985 254.535C119.974 251.853 119.825 250.098 120.669 247.435C121.356 245.266 121.834 243.197 122.067 240.91C122.339 238.234 121.861 236.057 120.273 233.792C119.118 232.141 116.893 228.116 115.083 226.91C112.917 225.47 111.419 225.982 111.157 228.406C110.878 230.998 113.812 234.959 114.405 237.41C115.612 242.402 111.761 246.853 113.569 251.94C114.452 254.431 118.12 257.762 119.985 254.535" fill="black"/></g></g></g></g></g></g></svg>