<svg viewBox="88.02500000000009 227.1993006993007 829.9500000000002 401.67832167832165" xmlns="http://www.w3.org/2000/svg" overflow="visible" xmlns:xlink="http://www.w3.org/1999/xlink" width="829.9500000000002px" height="401.67832167832165px"><g id="Master/404/Person Sitting with Plants" stroke="none" stroke-width="1" fill="none" fill-rule="evenodd"><path d="M374.745546,610 L725,610 C672.593839,360 625.098029,235 582.512569,235 C518.634379,235 495.24945,312.83422 460.209964,342.893959 C425.170478,372.953698 404.798006,386.22608 347.507484,364.560019 C290.216962,342.893959 171,352.08123 171,424.687947 C171,473.092425 187.754059,534.78432 221.262177,609.763633 L374.745546,610 Z" id="BG" fill="#FBF9FF"/><g id="Rock/Medium" transform="translate(35.000000, 359.000000) scale(1 1)"><g id="Rock/Medium/Color 4" stroke="none" stroke-width="1" fill="none" fill-rule="evenodd"><path d="M81.7287371,248 C76.8246018,180.584636 96.6727496,135.486726 141.27318,112.706268 C208.173827,78.5355819 221.149183,129.25887 322.552481,137.2204 C390.15468,142.528087 419.43784,179.454621 410.40196,248 L81.7287371,248 Z" id="Path-9" fill="#00F5B1"/></g></g><g id="Rock/Big" transform="translate(643.000000, 448.000000) scale(-1, 1) translate(-643.000000, -448.000000) translate(310.000000, 286.000000) scale(1 1)"><g id="Rock/Big/Magenta 1" stroke="none" stroke-width="1" fill="none" fill-rule="evenodd"><path d="M151.371588,324 C71,225.362563 50.9071031,154.25686 91.0928969,110.682892 C151.371588,45.3219389 212.860932,0 292.306891,0 C371.752851,0 575.193432,111.550984 591.846267,182.654029 C602.948157,230.056058 571.1297,277.171382 496.390897,324 L151.371588,324 Z" id="Path-7" fill="#F20FD7"/></g></g><g id="Spots" transform="translate(94.000000, 323.000000) scale(1 1)"><g id="Spots/Texture 3" stroke="none" stroke-width="1" fill="none" fill-rule="evenodd"><g id="Group-Copy" style="mix-blend-mode:multiply" transform="translate(43.000000, 31.000000)" fill="#CEC6DD"><g id="Group-67"><path d="M107.368421,61.5652037 C107.928166,57.3927895 108.292172,53.1788416 109.106034,49.0548835 C109.770516,45.6871863 112.806188,43.0601748 115.642686,43.1207449 C118.753906,43.1865067 121.094189,44.9534229 122.053997,47.8088702 C123.729797,52.8015764 125.446806,57.8565834 126.324197,63.0292694 C127.529538,70.1384678 128.036055,77.3757287 128.715991,84.5697252 C129.231093,90.052184 128.223209,91.9921576 124.674152,93.1187613 C120.728466,94.371697 116.664306,92.7916828 114.23989,89.0778708 C109.849499,82.3580515 108.594365,74.7106446 107.845749,66.931714 C107.6792,65.1821036 107.821711,63.4030734 107.821711,61.6396184 C107.670615,61.6136598 107.519518,61.5911623 107.368421,61.5652037" id="Fill-3"/><path d="M144,109.1134 C142.295948,122.217586 139.618899,134.87591 136.175984,147.367034 C134.780019,152.433498 130.20049,154.380665 127.084808,151.341483 C125.861163,150.148452 125.088335,147.929588 125.069188,146.167036 C125.013489,140.680834 125.067448,135.145866 125.721915,129.70843 C126.71754,121.44081 128.136133,113.21499 129.599981,105.013553 C130.482467,100.062037 132.884501,98.4928095 137.57717,98.5886003 C139.892174,98.6373665 141.336876,99.4402679 141.973937,101.573791 C142.720656,104.067836 143.329867,106.598456 144,109.1134" id="Fill-5"/><path d="M97.3085062,162.3585 C97.3754535,165.281747 97.1771378,167.254528 95.0739799,168.537782 C92.9657693,169.826078 90.8638746,169.693719 89.8318746,167.485211 C86.4440851,160.23193 83.2078746,152.875282 85.2870325,144.522789 C85.8605062,142.224782 86.7624009,140.16124 89.2571378,139.242289 C91.9691378,138.243923 94.8794535,139.659535 95.5704009,142.428993 C95.7245062,143.04919 95.7447167,143.703423 95.7990325,144.343789 C96.282822,150.103303 96.7602956,155.864078 97.2415588,161.623592 C97.283243,162.135381 97.3350325,162.647169 97.3085062,162.3585" id="Fill-9"/><path d="M56.367403,154.716049 C56.367403,150.097162 56.3578806,145.480095 56.3788299,140.861208 C56.3826388,140.125971 56.415015,139.361617 56.6302215,138.666418 C57.3863009,136.176805 59.0051107,134.218601 61.7285202,133.912859 C64.3167114,133.621676 66.2497608,135.319636 66.9715595,137.519886 C68.1180577,141.017719 69.5730821,144.682982 69.4683356,148.239052 C69.2226574,156.523202 68.2247087,164.792793 67.3200797,173.047824 C67.0363119,175.66119 64.2538635,177.881458 61.9380132,177.996112 C59.7288139,178.107125 56.9920731,175.8268 56.7254456,172.980488 C56.1579099,166.914787 55.9388945,160.818148 55.5789474,154.734247 C55.8417659,154.728788 56.1045844,154.721508 56.367403,154.716049" id="Fill-11"/><path d="M77.0526316,104.392669 C77.8442467,94.3398032 80.5843183,84.5719383 83.6808788,74.8542937 C84.7119006,71.6238675 86.5240526,70.6897683 90.1972863,70.8743282 C93.2064721,71.0249894 94.9207644,72.5039797 95.4991851,75.3790968 C96.7923312,81.8110726 95.3209407,88.1300525 94.0260471,94.4565655 C92.7853259,100.524444 91.5306248,106.591066 90.2444687,112.653922 C90.0609818,113.512691 89.9631221,114.504543 89.2990741,115.159919 C87.7927337,116.651465 85.7097201,117.812811 82.9696485,117.413559 C80.4742261,117.049461 78.9661382,115.583026 78.5764469,113.889344 C77.8564791,110.749314 77.5384351,107.56032 77.0526316,104.392669" id="Fill-36"/><path d="M97.7969612,31.3149784 C97.2389068,35.3847725 96.8748836,39.4933748 96.0592656,43.5125495 C95.3964687,46.7960567 92.3606527,49.3573948 89.5240193,49.3000262 C86.4109342,49.2359084 84.072257,47.5131639 83.1124034,44.7291008 C81.434806,39.8595213 79.7194326,34.9325732 78.8419994,29.8892006 C77.6366018,22.9560398 77.1283431,15.9013926 76.4500923,8.88724082 C75.9332481,3.54183962 76.9411802,1.65036401 80.4921233,0.551924558 C84.4379972,-0.669688594 88.5006333,0.870826335 90.9268822,4.4901084 C95.3174825,11.0419369 96.5709586,18.4981642 97.31961,26.0843144 C97.4878849,27.7884985 97.3436493,29.5230542 97.3436493,31.2441114 C97.4947533,31.2677337 97.6458572,31.2913561 97.7969612,31.3149784" id="Fill-39"/><path d="M53.0623499,80.9366197 C48.8405429,80.3075445 47.4226212,77.4465447 46.6236737,73.9978336 C45.1283803,67.5588607 45.225936,61.0664595 46.1476692,54.5826757 C47.0811763,48.0023763 48.144197,41.4375883 49.2980455,34.8934823 C49.5301608,33.573286 50.419936,32.3720108 51.2861634,30.5140845 C53.3180131,30.8036315 55.8662353,30.4382508 57.4069426,31.5447338 C60.3151117,33.6370553 63.1862768,36.3998159 63.1576829,40.4741553 C63.122361,45.3740482 62.8381039,50.311858 62.155214,55.1583226 C61.3243086,61.0699064 59.7718273,66.8729101 58.912328,72.781047 C58.3471777,76.6537376 56.6534089,79.314812 53.0623499,80.9366197" id="Fill-43"/><path d="M39.1578947,108.508445 C40.2307171,103.176107 41.2220812,97.8247422 42.4162244,92.5200769 C42.873777,90.4947221 43.4578499,88.3275406 46.4146108,88.5108776 C49.151261,88.6803779 51.4268923,89.7959661 52.1288197,92.3851686 C52.8550112,95.0573916 53.1461811,97.9510026 53.0265935,100.723542 C52.728491,107.574465 51.986701,114.406362 51.6348708,121.255554 C51.5014179,123.83265 49.9415792,125.387555 48.0091125,125.856275 C46.0610473,126.331913 43.8200791,125.598565 42.6657985,123.415818 C40.2133856,118.775316 39.3572075,113.809652 39.1578947,108.508445" id="Fill-55"/><path d="M35.3323674,33.1095639 C35.3323674,36.1936785 35.4321316,38.3525588 35.2997522,40.4941987 C35.2057438,42.0400872 35.0215638,43.6434437 34.4939652,45.080143 C33.521265,47.7370791 31.2343645,48.7772494 28.5886969,49.300208 C25.8125686,49.8519006 24.0417555,48.4803316 22.7755186,46.3367761 C22.0004282,45.0226751 21.2944052,43.5457481 21.0449949,42.0611588 C19.7730025,34.4543145 19.8650924,26.862795 21.9486276,19.3900427 C22.8138895,16.2944345 25.5420543,13.8060712 28.1128988,14.160457 C31.0271621,14.5608172 32.9936663,16.3748896 33.4138268,19.5375438 C34.0527008,24.3629381 34.7740721,29.1768388 35.3323674,33.1095639" id="Fill-59"/><path d="M28.3590316,134.360935 C23.3405053,135.295012 21.8297684,134.134033 22.2289263,129.655251 C22.5838737,125.702125 22.9640842,121.691012 23.9796632,117.877808 C24.6466105,115.381892 26.2394526,113.022118 27.8398737,110.922019 C29.1093474,109.258075 30.6415579,109.690449 31.0659789,111.795589 C31.6116632,114.514625 32.1472421,117.373582 31.8731368,120.091357 C31.3754526,125.051674 29.7169263,129.793913 28.3590316,134.360935" id="Fill-61"/><path d="M30.3157895,76.3707561 C29.9657815,80.2533804 29.5529516,84.5229833 29.2029436,88.7980883 C28.9651177,91.6720006 27.0310993,93.388645 23.6499326,93.5353668 C20.3854352,93.6765865 18.6959737,91.624316 18.0610233,89.3666351 C17.1972216,86.2983165 16.3738054,83.1236246 16.4231655,80.0021194 C16.5106675,74.4156888 17.1411306,68.8237562 17.7738373,63.2501637 C18.1597435,59.8517212 20.2597913,58.1754252 23.7307037,58.2487861 C27.5089948,58.327649 28.6599825,60.6000021 28.9875541,63.1437904 C29.5394898,67.3987212 29.8580867,71.6774942 30.3157895,76.3707561" id="Fill-63"/><path d="M65.9279264,19.2710976 C65.7308738,20.1030886 65.4984527,21.0180035 65.3014001,21.9340974 C65.1675053,22.5499357 64.0786632,22.9177881 62.1750843,22.9492285 C60.3371895,22.9794899 59.3860317,22.5397176 59.028558,22.0559288 C58.5422422,21.398432 58.0786632,20.7181409 58.1064527,20.0492469 C58.1557159,18.8521546 58.5106632,17.6538834 58.8668738,16.4595421 C59.0841369,15.7313044 60.2664527,15.3720982 62.220558,15.3878183 C64.3477159,15.4047175 64.9957159,15.8916504 65.1801369,16.4367478 C65.4908738,17.3485187 65.6702422,18.2653987 65.9279264,19.2710976" id="Fill-63-Copy"/><path d="M7.82266323,64.6513793 C7.6256106,65.4833703 7.39318955,66.3982852 7.19613692,67.3143791 C7.06224218,67.9302174 5.97340007,68.2980698 4.06982113,68.3295102 C2.23192639,68.3597715 1.2807685,67.9199993 0.923294811,67.4362105 C0.436979021,66.7787137 -0.026599926,66.0984226 0.00118954765,65.4295286 C0.0504527055,64.2324363 0.405400074,63.0341651 0.7616106,61.8398238 C0.978873758,61.1115861 2.16118955,60.7523798 4.11529481,60.7681 C6.24245271,60.7849992 6.89045271,61.271932 7.07487376,61.8170295 C7.3856106,62.7288004 7.56497902,63.6456803 7.82266323,64.6513793" id="Fill-63-Copy-2"/><path d="M76.0331895,64.6513793 C75.8361369,65.4833703 75.6037159,66.3982852 75.4066632,67.3143791 C75.2727685,67.9302174 74.1839264,68.2980698 72.2803474,68.3295102 C70.4424527,68.3597715 69.4912948,67.9199993 69.1338211,67.4362105 C68.6475053,66.7787137 68.1839264,66.0984226 68.2117159,65.4295286 C68.260979,64.2324363 68.6159264,63.0341651 68.9721369,61.8398238 C69.1894001,61.1115861 70.3717159,60.7523798 72.3258211,60.7681 C74.452979,60.7849992 75.100979,61.271932 75.2854001,61.8170295 C75.5961369,62.7288004 75.7755053,63.6456803 76.0331895,64.6513793" id="Fill-63-Copy-3"/><path d="M122.526316,23.1548713 C122.144489,24.8188532 121.694129,26.648683 121.312302,28.4808708 C121.052856,29.7125475 118.943017,30.4482523 115.254472,30.511133 C111.693202,30.5716558 109.850153,29.6921113 109.15748,28.7245337 C108.215151,27.4095401 107.316879,26.0489578 107.370726,24.7111699 C107.466183,22.3169854 108.153961,19.9204428 108.844186,17.5317603 C109.265175,16.0752849 111.556136,15.3568724 115.342586,15.3883127 C119.464358,15.4221111 120.719981,16.3959768 121.077332,17.4861718 C121.679443,19.3097135 122.027004,21.1434734 122.526316,23.1548713" id="Fill-63-Copy-4"/><path d="M65.9279264,121.376731 C65.7308738,122.208722 65.4984527,123.123637 65.3014001,124.039731 C65.1675053,124.65557 64.0786632,125.023422 62.1750843,125.054862 C60.3371895,125.085124 59.3860317,124.645351 59.028558,124.161563 C58.5422422,123.504066 58.0786632,122.823775 58.1064527,122.154881 C58.1557159,120.957788 58.5106632,119.759517 58.8668738,118.565176 C59.0841369,117.836938 60.2664527,117.477732 62.220558,117.493452 C64.3477159,117.510351 64.9957159,117.997284 65.1801369,118.542382 C65.4908738,119.454153 65.6702422,120.371032 65.9279264,121.376731" id="Fill-63-Copy-5"/><path d="M43.1910843,149.109126 C42.9940317,149.941117 42.7616106,150.856032 42.564558,151.772126 C42.4306632,152.387964 41.3418211,152.755816 39.4382422,152.787257 C37.6003474,152.817518 36.6491895,152.377746 36.2917159,151.893957 C35.8054001,151.23646 35.3418211,150.556169 35.3696106,149.887275 C35.4188738,148.690183 35.7738211,147.491912 36.1300317,146.29757 C36.3472948,145.569333 37.5296106,145.210126 39.4837159,145.225847 C41.6108738,145.242746 42.2588738,145.729679 42.4432948,146.274776 C42.7540317,147.186547 42.9334001,148.103427 43.1910843,149.109126" id="Fill-63-Copy-6"/><path d="M115.191084,130.200675 C114.994032,131.032666 114.761611,131.947581 114.564558,132.863675 C114.430663,133.479513 113.341821,133.847366 111.438242,133.878806 C109.600347,133.909067 108.64919,133.469295 108.291716,132.985506 C107.8054,132.328009 107.341821,131.647718 107.369611,130.978824 C107.418874,129.781732 107.773821,128.583461 108.130032,127.38912 C108.347295,126.660882 109.529611,126.301676 111.483716,126.317396 C113.610874,126.334295 114.258874,126.821228 114.443295,127.366325 C114.754032,128.278096 114.9334,129.194976 115.191084,130.200675" id="Fill-63-Copy-7"/></g></g></g></g><g id="Pot Plant" transform="translate(73.000000, 434.000000) scale(1.0224719101123596 1)"><g id="Pot Plant/Long Plant 3" stroke="none" stroke-width="1" fill="none" fill-rule="evenodd"><g id="Group-8" transform="translate(27.000000, 0.000000)"><path d="M30.3557192,129 L86,99.6105788 C86,99.6105788 70.6836053,57.0986612 61.5277545,43.5912565 C52.1838474,29.8080514 49.1689042,21.5052444 37.4014118,11.8135849 C25.6331641,2.12192545 19.6523687,2.15905244 13.4540624,3.87144008 C7.25575615,5.58382773 -0.691700552,18.0297036 1.31725458,28.0683868 C3.32620971,38.1070699 8.83119991,66.5023971 8.83119991,66.5023971 L30.3557192,129 Z" id="Fill-1" fill="#FFF"/><path d="M95,122.588879 C95,122.588879 124.073519,142.242626 133.912129,138.53423 C138.367648,126.297275 152.428187,101.145623 155.956132,86.2488531 C159.55566,71.04819 165.11206,59.5326045 164.99828,51.2440006 C164.795585,36.5759023 164.173184,34.3689176 158.99354,30.6537516 C153.813897,26.9385856 134.457672,39.957087 128.350455,47.0519333 C108.322851,70.3170417 95,122.588879 95,122.588879" id="Fill-3" fill="#FFF"/><g id="Group-7" fill="#000"><path d="M46.3035081,136.13069 C55.0540059,147.591681 66.3004357,156.612478 76.3514176,166.802457 C66.9162955,156.010539 56.8592683,145.826595 46.3035081,136.13069 M143.455191,113.371638 C142.873336,113.319591 142.38216,113.240388 141.890228,113.236616 C137.300372,113.198147 132.710517,113.187586 128.121418,113.137047 C125.282418,113.106121 122.443418,112.999009 119.603662,112.974871 C119.026341,112.970345 118.27673,112.731983 117.870187,113.612263 C125.84916,114.946638 133.737454,116.265172 141.653707,117.588987 C142.189467,116.434892 142.649662,115.461832 143.09021,114.480474 C143.212626,114.208922 143.279124,113.912478 143.455191,113.371638 M118.244237,64.381444 C122.096571,71.007306 125.873341,77.5019181 129.81182,84.2748707 C130.550852,82.8643103 131.152354,81.7154957 131.661667,80.7409267 C127.859205,74.0117241 124.141377,67.4333836 120.328336,60.6860776 C119.587793,61.9993319 118.943219,63.1421121 118.244237,64.381444 M124.777639,147.818728 C117.437952,148.769914 111.382879,151.931228 105.491029,155.496099 C100.906463,158.270453 91.4917434,166.628966 90.0695986,169.202672 C90.3605262,169.098578 90.5864674,169.04125 90.7912502,168.941681 C98.6614086,165.125625 106.562549,161.372177 114.379056,157.450517 C117.233924,156.018836 119.845472,154.124763 122.138888,151.861832 C123.203608,150.811078 124.217698,149.70903 124.777639,147.818728 M11.4420692,4.4831681 C9.31943122,5.65310345 7.91693348,7.08327586 6.57942217,9.26775862 C4.19910543,13.1547198 3.1064267,17.4459914 2.56462127,21.9107543 C2.43691538,22.9637716 2.36663937,24.0228233 2.27067104,25.0750862 C8.63707376,24.6390948 14.8024719,24.2159267 21.1688747,23.7799353 C18.1915896,17.3019181 15.463671,10.634569 11.4420692,4.4831681 M51.9784855,29.4274569 C49.725119,25.988556 47.5427842,22.6348922 44.9176348,19.6764871 C44.6743136,19.7647414 44.6017706,19.7692672 44.5639878,19.8084914 C39.1489561,25.2840302 34.6845398,31.4935129 30.4989606,37.9217457 C30.0546348,38.6059052 30.0387661,39.1980388 30.3561416,39.9440517 C31.3936575,42.3819828 32.3563633,44.8515948 33.3606303,47.3046121 C33.5049606,47.6583836 33.7142774,47.9865086 33.9099923,48.3561207 C39.9559968,42.022931 45.9030104,35.7923276 51.9784855,29.4274569 M140.788481,119.438556 C132.729409,118.169052 124.773105,116.916897 116.627888,115.634569 C114.215834,119.848901 111.691943,124.257091 109.109866,128.766358 C110.668029,129.471638 111.976069,130.078103 113.294689,130.658168 C118.482268,132.941466 123.647933,135.274547 129.277571,136.334353 C132.727897,136.98306 133.141241,136.829181 134.555074,133.676164 C136.475952,129.390927 138.377938,125.098147 140.28068,120.804612 C140.47035,120.376164 140.608635,119.924332 140.788481,119.438556 M13.2276846,3.60590517 C13.5012321,4.09846983 13.7317072,4.51032328 13.9599154,4.92443966 C15.4727389,7.66786638 17.1487842,10.3366164 18.4666484,13.1713147 C21.7960692,20.3312284 24.9622683,27.565819 28.1987434,34.7687284 C28.4571778,35.3427586 28.7488611,35.9024569 29.0715262,36.5647414 C31.495671,33.2457759 33.6772502,30.059569 36.0696575,27.0400647 C38.4575308,24.0273491 41.0569878,21.1813362 43.5748339,18.2500862 C43.4743317,18.0713147 43.4108566,17.9000862 43.2997751,17.7688362 C39.8025986,13.6503017 35.8883,9.99642241 31.30449,7.09685345 C27.8466077,4.90935345 24.1348249,3.35698276 20.045214,2.84028017 C17.757843,2.550625 15.4961643,2.6524569 13.2276846,3.60590517 M46.5196258,78.7110776 C48.7548566,83.9263793 50.9296348,89.000625 53.159576,94.2031034 C60.606567,87.1978233 67.9243407,80.3147414 75.2791416,73.3962069 C72.9464312,67.3986853 70.3001235,61.6259483 67.1135217,55.8796121 C60.2634991,63.7055819 53.0054222,70.8489009 46.5196258,78.7110776 M83.4417389,99.9894181 C83.3329244,96.5829526 77.7032864,78.359569 75.8179244,75.3181897 C68.2991462,81.9606466 61.3274629,89.131875 53.8819833,95.9712069 C55.9562593,101.000194 58.0055986,105.969591 60.0821416,111.004612 C68.0036846,107.269267 75.6917299,103.644806 83.4417389,99.9894181 M54.7577887,104.109461 C43.0572095,102.486185 31.5024719,100.532522 19.9840059,97.8230388 C20.7887796,102.591034 28.6778294,124.809246 30.2095443,126.805151 C39.4232593,121.858384 48.630929,116.913879 57.9186982,111.927888 C56.8494448,109.283276 55.8376213,106.780474 54.7577887,104.109461 M157.545155,32.0954526 C157.207377,31.9196983 157.009395,31.7763793 156.787988,31.7077371 C153.546979,30.7007328 150.466169,31.2212069 147.498707,32.7117241 C143.588187,34.6759483 140.122748,37.2843534 136.815241,40.1152802 C135.416522,41.3123707 135.415766,41.3289655 136.14044,42.9824138 C138.07492,47.3958836 140.023001,51.8040733 141.956725,56.2175431 C142.261255,56.9130172 142.871069,57.8151724 141.856223,58.2489009 C140.855734,58.6758405 140.594277,57.5873707 140.289748,56.9228233 C138.333354,52.6519181 136.410965,48.3651724 134.47044,44.0874784 C134.309486,43.731444 134.097146,43.3995474 133.840979,42.9341379 C128.847603,47.700625 124.942372,53.0750862 121.55401,58.6999784 C125.161513,65.4797198 128.735766,72.0542888 132.63344,78.631875 C140.985707,63.0289655 149.228404,47.6327371 157.545155,32.0954526 M45.6294629,76.619375 C52.6275941,69.1011638 59.4745941,61.7466379 66.3820466,54.3264871 C62.0498701,46.4831681 57.8151733,38.6692672 52.9094538,30.8410345 C46.6495986,37.5483621 40.6141733,44.0150647 34.598395,50.4606466 C38.1182412,59.4090302 41.7121416,68.0526724 45.6294629,76.619375 M37.1880285,63.3223922 C36.9439516,62.5839224 36.8041552,62.0725 36.6084403,61.5837069 C35.8029109,59.5712069 34.9792457,57.5670043 34.1654041,55.5582759 C30.3901462,46.2395259 26.5990195,36.9275647 22.8638113,27.5937284 C22.3696122,26.3589224 21.6970783,25.7977155 20.3300964,25.8640948 C16.3538339,26.056444 12.3700149,26.0941595 8.39601946,26.3219612 C6.37161674,26.438125 4.36308281,26.8326293 2.39686561,27.094375 C1.64876606,32.5985776 5.19052624,52.087694 8.12171629,58.7844612 C17.6460059,60.6393103 27.2662638,62.1931897 37.1880285,63.3223922 M106.878413,127.86722 C107.332562,127.12347 107.671852,126.567543 108.010386,126.010862 C115.499694,113.689203 121.930327,100.813125 128.135775,87.8171121 C128.579345,86.888556 128.529472,86.1862931 128.03225,85.3203448 C124.644644,79.4156034 121.301621,73.4867241 117.93744,67.5684052 C117.772707,67.27875 117.543743,67.0253017 117.181029,66.5312284 C107.928775,84.5532112 101.007721,103.220129 94.9934538,122.420345 C99.0573724,124.282737 102.919531,126.053103 106.878413,127.86722 M19.0817525,95.5910345 C30.6259109,98.0561207 41.9690647,100.600409 53.7701462,101.965711 C53.493576,101.22347 53.3122186,100.67056 53.0840104,100.138017 C48.364938,89.1235776 43.6095941,78.1249784 38.9555081,67.0841379 C38.347205,65.6418966 37.5031371,64.9977155 36.0364086,64.9675431 C35.9155036,64.9652802 35.7945986,64.9517026 35.6759606,64.9343534 C28.3317389,63.8888793 20.9860059,62.8524569 13.6448068,61.7873707 C12.0594403,61.557306 10.4884312,61.2254095 8.60155792,60.8844612 C11.8508792,72.7203448 15.6117796,84.0659267 19.0817525,95.5910345 M119.467644,110.859784 C127.800264,111.127565 135.993843,111.390065 144.227472,111.654828 C144.440567,111.249763 144.658952,110.894483 144.819906,110.515065 C146.63197,106.245668 148.583074,102.029073 150.210001,97.6902802 C153.25454,89.5716379 156.194798,81.4122629 159.017929,73.2151724 C161.729979,65.3371552 163.923648,57.3263793 164.210798,48.915819 C164.338504,45.1676509 164.36344,41.4390948 162.972277,37.8704526 C162.246848,36.009569 161.179861,34.3976078 159.395001,33.1967457 C145.658685,58.8983621 131.983576,84.4279957 119.467644,110.859784 M60.8544222,113.392004 C68.4124946,132.547716 75.9305172,151.601595 83.40849,170.555905 C83.628386,170.617759 83.6790149,170.646422 83.72511,170.641142 C83.7825398,170.634353 83.865662,170.613233 83.8860647,170.5725 C90.7753814,156.836509 98.0599063,143.31097 105.778178,129.859353 C105.183476,129.556875 104.719504,129.304935 104.242685,129.080151 C101.458092,127.770668 98.6697208,126.46722 95.8836167,125.161509 C95.7196394,125.084569 95.5601959,124.997069 95.3954629,124.922392 C94.7614674,124.635754 93.7254629,124.485647 93.5750873,124.039095 C93.268291,123.127134 93.2509109,122.016789 93.4504041,121.057306 C93.8773498,118.99653 94.4025308,116.94028 95.0901778,114.951918 C97.7274176,107.319806 100.213526,99.6228233 103.186277,92.1196983 C107.938599,80.1246552 113.120133,68.3023491 119.793332,57.2094612 C124.878897,48.7566595 131.087368,41.2459914 139.112436,35.3910345 C141.588721,33.5844612 144.204802,31.9053664 146.93801,30.5234698 C151.217291,28.3585991 155.651481,28.0840302 159.911114,30.6992241 C163.745314,33.0526724 165.546798,36.7276724 166.161902,41.0242241 C167.034685,47.1235776 166.42487,53.1754095 165.304988,59.1880172 C164.154124,65.3665733 162.182617,71.3218534 160.174083,77.2567672 C157.180929,86.1025647 154.078961,94.9136638 150.3634,103.489418 C147.057404,111.120022 143.650906,118.706121 140.282947,126.309569 C138.965083,129.284569 137.635128,132.253534 136.299128,135.220237 C136.076965,135.71431 135.805685,136.186509 135.544983,136.663233 C134.567164,138.453211 133.008246,139.331983 131.034472,138.97444 C128.312599,138.481121 125.537074,138.005151 122.961798,137.048685 C118.384789,135.349224 113.940019,133.294483 109.440087,131.388341 C108.99954,131.202026 108.559748,131.014957 107.921219,130.744159 C101.107467,142.821422 94.2786032,154.836832 88.205395,167.261078 L88.4857434,167.525841 C88.9406484,167.114741 89.40311,166.710431 89.8504584,166.291034 C92.6259833,163.691681 95.2828701,160.949763 98.1966801,158.514095 C104.37039,153.355366 111.303535,149.478211 119.008205,147.067435 C120.438662,146.619375 121.954508,146.42778 123.443151,146.19319 C123.960775,146.11097 124.538852,146.171315 125.046653,146.316142 C126.180893,146.642759 126.783151,147.584892 126.341848,148.681659 C125.855961,149.88931 125.206852,151.089418 124.385454,152.094159 C121.980956,155.034461 118.871431,157.172931 115.572237,158.947069 C110.578861,161.633168 105.494807,164.155582 100.394884,166.637263 C95.7294629,168.906228 90.9862095,171.016034 86.2943407,173.231444 C85.726843,173.499978 85.2114855,173.938987 84.7656484,174.390819 C84.1800149,174.984461 83.604205,175.219052 82.8470376,174.752888 C82.2319335,174.37347 81.5397525,174.089095 80.9979471,173.626703 C77.7388023,170.846315 74.4199606,168.126272 71.2968339,165.198039 C65.8364629,160.077026 60.3224403,154.991466 55.1703769,149.568728 C50.5223362,144.677026 46.3223995,139.361401 41.9494176,134.211724 C41.447662,133.621099 41.0562321,132.921853 40.7010738,132.228642 C40.3240014,131.490172 40.2151869,130.695884 40.9738656,130.09847 C41.6819154,129.54028 42.3778747,129.861616 42.9559516,130.337586 C44.306309,131.44944 45.6324855,132.59222 46.9397706,133.755366 C55.2021145,141.103103 62.7911688,149.131228 70.4754357,157.060539 C73.0363543,159.702888 75.4499199,162.488556 77.9367842,165.203319 C78.2057977,165.495991 78.5148611,165.752457 79.0037706,165.898039 C72.2746529,148.778966 65.5447796,131.659892 58.7741009,114.434461 C58.2534538,114.653966 57.8068611,114.80181 57.3995624,115.02056 C48.5198475,119.790819 39.6439109,124.569375 30.7679742,129.345668 C30.449843,129.516897 30.1339787,129.697177 29.803757,129.843513 C29.0541462,130.173901 28.5365217,129.975517 28.2463498,129.176703 C25.5531914,121.758815 22.5781733,114.43069 20.2084357,106.911724 C14.5379923,88.9221767 8.77838145,70.95375 3.92102398,52.7190517 C1.86866199,45.0152802 0.279517195,37.2270259 0.0271280543,29.2230388 C-0.163297285,23.188556 0.630141629,17.3132328 2.98854434,11.7087069 C3.97845385,9.35752155 5.30387466,7.20849138 7.02601493,5.31064655 C10.4196665,1.57153017 14.7321959,0.277887931 19.6318701,0.682952586 C24.6932548,1.10084052 29.2067887,3.0680819 33.4067253,5.81301724 C37.4237932,8.43801724 40.900567,11.6792888 44.1763362,15.1702371 C47.2798158,18.4778879 49.9208339,22.1272414 52.5044222,25.8301509 C57.2333181,32.6091379 61.1876665,39.8527802 65.1949109,47.0579526 C68.0943633,52.2717457 70.9023814,57.5489009 73.4602774,62.9361853 C77.234024,70.8858621 80.4720104,79.0618319 82.7616484,87.5817672 C83.7764946,91.3608621 84.7943633,95.1392026 85.8129878,98.9175431 C86.1537887,100.182522 85.8689063,101.095237 84.5835353,101.727349 C81.1755262,103.402672 77.8362819,105.216034 74.4229833,106.881552 C70.3552864,108.867651 66.2392276,110.75569 62.1458385,112.69125 C61.8224176,112.844375 61.51411,113.032198 60.8544222,113.392004" id="Fill-5"/></g></g></g></g><g id="Pot Plant" transform="translate(587.000000, 432.000000) scale(1 1)"><g id="Pot Plant/Long Plant 1" stroke="none" stroke-width="1" fill="none" fill-rule="evenodd"><g id="Group-3" transform="translate(33.000000, -35.000000)" fill="#000"><path d="M135.2499,98.289 C137.1159,97 138.5529,96.032 139.9659,95.028 C144.9519,91.487 148.8239,87.038 151.0979,81.297 C151.9339,79.185 152.3489,76.997 151.9899,74.737 C151.5939,72.24 150.2839,71.484 147.9179,72.325 C145.1029,73.327 143.0129,75.284 141.3069,77.642 C136.9819,83.617 135.4929,90.451 135.2499,98.289 M105.7279,120.697 C106.1829,120.081 106.4099,119.87 106.5209,119.609 C108.9229,113.96 111.3369,108.316 113.6949,102.649 C115.5989,98.073 116.4089,93.319 115.6759,88.375 C115.3309,86.051 114.0069,85.157 111.7799,85.821 C110.9849,86.058 110.0899,86.558 109.6329,87.213 C108.5019,88.831 107.3429,90.511 106.6489,92.339 C103.8599,99.687 103.9029,107.322 104.7709,114.995 C104.9719,116.767 105.3559,118.518 105.7279,120.697 M90.8449,157.137 C92.8089,157.658 94.3979,158.368 96.0239,158.461 C102.7359,158.843 109.2429,157.897 115.2339,154.635 C117.2769,153.523 119.0649,152.06 120.0389,149.811 C121.1419,147.267 120.5399,145.538 117.8539,144.831 C116.1299,144.377 114.1869,144.178 112.4409,144.469 C104.5519,145.781 97.9889,149.699 92.3549,155.27 C91.9129,155.707 91.5639,156.24 90.8449,157.137 M37.6459,86.172 C37.0619,85.421 36.8239,85.031 36.5069,84.724 C34.3879,82.666 32.2489,80.629 30.1189,78.582 C25.5629,74.204 20.8459,70.03 15.3049,66.9 C12.7199,65.44 10.0419,64.178 7.0559,63.873 C4.1099,63.574 2.6229,65.143 3.1459,68.026 C3.3819,69.334 3.8589,70.655 4.4979,71.822 C6.7189,75.879 10.1979,78.628 14.2089,80.778 C19.9399,83.851 26.1259,85.248 32.5509,85.768 C34.0939,85.892 35.6369,86.013 37.6459,86.172 M54.5889,105.868 C55.6959,105.189 56.3829,104.819 57.0159,104.371 C59.0339,102.943 61.1059,101.578 63.0239,100.023 C67.0639,96.747 70.8509,93.193 73.7479,88.824 C75.5069,86.172 76.5349,83.25 76.2259,80.008 C75.7289,74.836 71.5129,72.545 66.9199,74.925 C63.9109,76.484 61.7179,78.915 60.1099,81.81 C56.0519,89.118 55.0009,97.144 54.5889,105.868 M22.2099,38.726 C23.8999,36.696 25.5579,34.866 27.0329,32.899 C29.5679,29.519 32.2659,26.216 34.3899,22.585 C37.0799,17.988 38.1979,12.954 36.5009,7.627 C35.1019,3.236 32.1059,1.954 27.9359,3.983 C25.0949,5.366 23.0509,7.561 21.6269,10.332 C19.9939,13.507 19.1299,16.904 19.1009,20.476 C19.0539,26.189 20.1509,31.746 21.5669,37.249 C21.6809,37.692 21.9339,38.1 22.2099,38.726 M53.9999,109.919 C63.9939,138.077 69.8189,167.199 76.5669,196.078 C76.7499,196.061 76.9319,196.044 77.1139,196.027 C77.6459,192.768 78.2129,189.514 78.7059,186.249 C80.5159,174.289 83.0699,162.55 88.1749,151.473 C92.0369,143.092 96.3539,135.009 102.4269,127.996 C103.5619,126.685 103.6929,125.55 103.2279,123.903 C100.7629,115.178 100.0629,106.313 101.6889,97.343 C102.4229,93.3 103.7119,89.46 106.2479,86.134 C108.0909,83.719 110.4949,82.592 113.5369,82.832 C116.1779,83.041 117.8479,84.372 118.4389,86.978 C119.5089,91.693 119.2439,96.403 117.5539,100.898 C115.6149,106.052 113.3439,111.081 111.2199,116.165 C110.9229,116.876 110.6389,117.592 110.6199,118.48 C110.9699,118.211 111.3619,117.982 111.6639,117.666 C117.4299,111.64 123.9259,106.446 130.4349,101.275 C131.5509,100.388 131.9909,99.478 132.0829,98.077 C132.4609,92.315 133.2939,86.635 135.7749,81.328 C137.9519,76.672 140.7749,72.6 145.5399,70.206 C150.5629,67.684 154.7079,70.134 154.9939,75.779 C155.2069,79.965 153.6169,83.586 151.6049,87.091 C148.5329,92.442 143.8509,96.134 138.8819,99.576 C125.0619,109.147 112.8509,120.44 102.6269,133.821 C99.0719,138.475 96.1579,143.52 93.6439,148.801 C93.5849,148.925 93.6369,149.101 93.6369,149.523 C94.2439,149.177 94.7669,148.925 95.2409,148.602 C99.8999,145.434 104.8229,142.831 110.3889,141.649 C112.8169,141.133 115.2749,140.701 117.7459,141.376 C118.7389,141.647 119.7519,141.959 120.6519,142.445 C123.7989,144.141 124.8359,147.354 123.3239,150.614 C121.9989,153.471 119.8289,155.546 117.1069,157.068 C113.2879,159.204 109.1489,160.379 104.8489,161 C103.1119,161.251 101.3519,161.381 99.5979,161.461 C96.6969,161.594 93.8569,161.282 91.1529,160.106 C90.5099,159.826 89.7979,159.705 89.0049,159.477 C86.9839,164.635 85.4039,169.814 84.4059,175.155 C82.6459,184.576 80.9369,194.007 79.2709,203.445 C79.0229,204.842 79.1129,206.301 79.0739,207.733 C79.0589,208.29 79.2899,208.923 79.0949,209.391 C78.8519,209.976 78.3389,210.765 77.8439,210.843 C77.3299,210.925 76.6379,210.331 76.1439,209.897 C75.8959,209.679 75.8959,209.164 75.8109,208.776 C72.8699,195.526 70.0349,182.251 66.9619,169.032 C64.5939,158.843 62.0669,148.686 59.3619,138.582 C55.0439,122.445 49.6129,106.668 43.3779,91.17 C43.2019,90.734 42.9799,90.317 42.7349,89.792 C40.4839,89.714 38.2579,89.69 36.0389,89.549 C29.5569,89.138 23.1459,88.331 17.0789,85.806 C11.5409,83.5 6.4869,80.526 2.9729,75.463 C1.4009,73.199 0.2209,70.765 0.0279,67.969 C-0.3141,62.963 2.4609,60.244 7.4469,60.73 C11.1979,61.096 14.4559,62.806 17.6749,64.617 C23.7379,68.03 28.6559,72.829 33.5719,77.638 C35.6179,79.639 37.6979,81.605 40.1449,83.372 C39.4289,81.645 38.7279,79.912 37.9929,78.193 C33.7519,68.278 29.7339,58.258 24.5529,48.775 C23.0349,45.997 21.3139,43.318 19.7759,40.567 C18.4859,38.262 17.9469,35.475 17.4039,32.833 C16.7629,29.71 16.3139,26.527 16.0639,23.349 C15.5679,17.016 16.8239,11.071 20.8369,5.974 C23.1159,3.078 26.0439,1.016 29.7189,0.227 C33.8579,-0.662 37.3579,1.092 39.1269,4.983 C41.0249,9.163 41.0869,13.487 39.9019,17.87 C38.6889,22.352 36.3209,26.239 33.5039,29.846 C30.4079,33.809 27.1629,37.655 23.9369,41.606 C25.6969,44.714 27.5729,47.77 29.2039,50.952 C35.1159,62.482 39.9899,74.479 44.9889,86.417 C46.8099,90.764 48.4579,95.184 50.1909,99.567 C50.4729,100.278 50.7919,100.974 51.5229,101.626 C51.7609,99.529 51.9459,97.425 52.2449,95.336 C53.1399,89.094 54.9289,83.138 58.6369,77.96 C61.0319,74.616 63.9019,71.722 68.1409,70.695 C73.4959,69.398 78.4119,72.567 79.3339,77.98 C80.0829,82.377 78.9229,86.385 76.5999,90.087 C74.4579,93.5 71.6539,96.357 68.7009,99.063 C64.2709,103.123 59.4849,106.716 53.9999,109.919" id="Fill-1"/></g></g></g><g transform="translate(244.000000, 42.000000) scale(1 1)" id="Master/Character/Sitting On Floor"><g id="Master/Character/Sitting On Floor" stroke="none" stroke-width="1" fill="none" fill-rule="evenodd"><g id="Sitting Body/On Floor" transform="translate(14.000000, 367.000000) scale(1 1)"><g id="Sitting Body/On Floor/Sitting reading" stroke="none" stroke-width="1" fill="none" fill-rule="evenodd"><g id="Group-40" transform="translate(104.000000, 16.000000)"><g id="Group-3" transform="translate(0.000000, 0.721000)" fill="#000"><path d="M144.845,8.3868 L144.902,8.1558 L140.906,8.1558 C140.907,8.2328 140.908,8.3098 140.909,8.3868 L144.845,8.3868 Z M153.337,35.7958 C153.15,35.8428 152.963,35.8888 152.777,35.9358 C152.777,37.5848 152.755,39.2348 152.788,40.8828 C152.801,41.5178 152.879,42.2398 153.799,42.1428 C154.63,42.0548 154.808,41.4388 154.639,40.7478 C154.233,39.0908 153.774,37.4458 153.337,35.7958 L153.337,35.7958 Z M171.033,56.4838 C170.885,56.4338 170.715,56.3078 170.591,56.3428 C167.981,57.0768 165.351,57.7498 162.784,58.6128 C161.511,59.0398 161.52,59.8408 162.685,61.5928 C165.201,60.7798 167.794,60.0108 170.332,59.0908 C171.696,58.5968 171.7,58.2978 171.033,56.4838 L171.033,56.4838 Z M51.574,182.0638 C51.649,182.2098 51.724,182.3568 51.799,182.5028 C56.107,181.9708 59.947,179.9978 63.993,178.2938 C62.47,177.1468 60.936,176.2208 59.354,175.3878 C58.548,174.9628 58.077,175.5398 57.587,176.1478 C56.491,177.5038 55.369,178.8498 54.147,180.0908 C53.395,180.8528 52.439,181.4128 51.574,182.0638 L51.574,182.0638 Z M134.585,175.8128 C134.636,175.8098 134.686,175.8078 134.737,175.8058 C134.824,179.1468 134.891,182.4878 135.013,185.8258 C135.043,186.6388 134.707,187.8938 135.883,187.9938 C137.137,188.1028 136.903,186.7678 137.012,185.9968 C137.644,181.5018 138.22,176.9998 138.767,172.4938 C138.862,171.7138 138.811,170.8938 138.685,170.1148 C138.514,169.0538 137.692,168.7608 136.728,168.758794 C135.673,168.7568 135.107,169.2788 135.025,170.3388 C134.886,172.1638 134.733,173.9878 134.585,175.8128 L134.585,175.8128 Z M45.44,181.8108 C49.148,180.4348 52.409,178.7008 54.712,175.5508 C55.944,173.8658 55.858,173.3768 54.171,172.2978 C51.552,170.6208 48.912,168.9778 46.262,167.3498 C45.909,167.1338 45.447,167.0958 45.013,166.9688 C44.425,170.7918 44.638,179.8838 45.44,181.8108 L45.44,181.8108 Z M167.498,41.1478 L166.837,41.3908 C166.459,40.6678 165.968,39.9808 165.723,39.2158 C164.896,36.6338 164.21,34.0078 163.367,31.4318 C162.694,29.3748 161.87,27.3668 161.114,25.3378 C160.94,25.3938 160.767,25.4488 160.594,25.5058 C160.59,27.0828 161.204,28.5378 161.639,30.0408 C162.723,33.7918 163.768,37.5558 164.771,41.3298 C164.977,42.1058 165.288,43.0188 164.15,43.8918 C163.198,42.4598 162.311,41.1268 161.19,39.4418 C160.978,41.7558 162.655,43.6348 161.274,45.5688 C160.052,45.1288 159.645,44.1858 159.258,43.2168 C158.881,42.2738 158.484,41.3378 158.095,40.3988 C158.157,43.6628 160.763,54.0958 161.726,55.6988 C164.624,54.9078 167.612,54.1098 170.587,53.2688 C171.574,52.9898 171.875,52.1998 171.926,51.2348 C172.062,48.6908 172.262,46.1508 172.386,43.6068 C172.447,42.3618 172.396,41.1108 172.396,39.8648 C169.629,39.8898 169.196,39.5378 168.381,37.0458 C168.012,35.9168 167.922,34.6468 166.849,33.2538 C166.642,36.2588 168.166,38.6438 167.498,41.1478 L167.498,41.1478 Z M121.829,188.2778 C124.499,188.3068 126.787,188.3718 129.074,188.3458 C131.289,188.3208 131.578,188.1068 131.605,185.8658 C131.667,180.6948 131.609,175.5218 131.598,170.3498 C131.598,170.1908 131.579,170.0318 131.569,169.8728 C131.507,168.9588 131.074,168.3878 130.119,168.2798 C128.696,168.1158 127.277,167.8658 125.849,167.7918 C122.832,167.6358 122.554,167.9418 122.509,170.9078 C122.472,173.3758 122.45,175.8438 122.349,178.3098 C122.221,181.4788 122.022,184.6448 121.829,188.2778 L121.829,188.2778 Z M150.981,166.7658 C150.527,166.5858 150.225,166.3418 149.971,166.3838 C147.622,166.7728 145.269,167.1558 142.944,167.6578 C141.921,167.8798 141.803,168.8258 141.714,169.7508 C141.462,172.3648 141.153,174.9718 140.854,177.5808 C140.528,180.4278 140.165,183.2708 139.863,186.1198 C139.66,188.0308 139.977,188.6098 141.46,189.1158 C145.081,190.3538 148.703,191.5908 152.346,192.7618 C153.584,193.1598 154.885,193.3638 156.157,193.6558 C146.973,186.0168 144.608,177.2828 150.981,166.7658 L150.981,166.7658 Z M162.705,192.8658 C162.921,191.0598 163.281,189.5048 163.261,187.9558 C163.171,181.0178 162.973,174.0798 162.814,167.1418 C162.812,167.0618 162.812,166.9818 162.805,166.9028 C162.66,165.2038 162.202,164.8018 160.514,165.0138 C155.96,165.5868 152.754,168.1498 151.221,172.3158 C148.986,178.3938 150.405,184.9098 155.881,189.3658 C157.796,190.9248 159.855,192.2338 162.705,192.8658 L162.705,192.8658 Z M160.617,83.4458 C161.255,83.3058 161.524,83.3188 161.703,83.1988 C166.819,79.7568 172.284,76.9678 177.917,74.4908 C178.945,74.0378 179.048,73.3018 178.679,72.3298 C177.775,69.9458 176.91,67.5448 176.035,65.1498 C174.858,61.9278 173.941,61.1778 170.207,62.0128 C167.727,62.5668 165.337,63.5398 162.932,64.3968 C161.672,64.8448 160.769,65.7488 160.357,67.0528 C160.046,68.0388 159.749,69.0338 159.518,70.0408 C158.482,74.5728 160.199,78.8418 160.617,83.4458 L160.617,83.4458 Z M153.012,28.5618 C154.251,28.6508 154.684,28.1138 155.117,27.3458 C155.609,26.4778 156.318,25.7298 156.95,24.9448 C157.194,24.6408 157.621,24.4238 157.736,24.0888 C158.425,22.0928 159.914,21.7318 161.762,21.9818 C162.152,22.0338 162.558,22.0168 162.953,21.9848 C165.615,21.7638 166.631,22.3858 167.38,24.8538 C168.006,26.9128 168.531,29.0018 169.133,31.0698 C169.445,32.1398 169.768,33.2158 170.209,34.2378 C170.365,34.5988 170.992,35.0998 171.214,35.0188 C171.648,34.8598 172.131,34.3898 172.262,33.9498 C172.461,33.2828 172.407,32.5308 172.408,31.8138 C172.419,25.6658 172.394,19.5188 172.437,13.3708 C172.449,11.7018 172.662,10.0348 172.763,8.3658 C172.848,6.9648 173.16,5.5378 172.415,4.0628 C171.831,4.1658 171.266,4.1708 170.778,4.3668 C165.37,6.5408 159.982,8.7638 154.569,10.9258 C153.277,11.4418 152.729,12.2638 152.742,13.6548 C152.785,18.1248 152.747,22.5958 152.762,27.0678 C152.763,27.5268 152.911,27.9858 153.012,28.5618 L153.012,28.5618 Z M127.682,31.4918 C127.719,31.4928 127.755,31.4948 127.791,31.4958 C127.791,32.2948 127.79,33.0938 127.791,33.8928 C127.795,36.3678 127.738,38.8458 127.824,41.3198 C127.895,43.3548 128.544,43.8298 130.517,43.6758 C131.71,43.5818 132.908,43.5188 134.104,43.5128 C138.579,43.4908 143.055,43.5288 147.531,43.4808 C149.562,43.4578 149.883,42.9848 149.701,41.0058 C149.548,39.3418 149.377,37.6658 149.407,35.9988 C149.468,32.6538 149.788,29.3088 149.768,25.9648 C149.742,21.5028 149.498,17.0418 149.339,12.5798 C149.295,11.3608 148.533,10.9418 147.428,10.9228 C145.512,10.8898 143.594,10.8698 141.677,10.8098 C138.01,10.6948 134.344,10.4968 130.676,10.4458 C128.655,10.4158 128.348,10.8008 128.28,12.8378 C128.07,19.0558 127.88,25.2748 127.682,31.4918 L127.682,31.4918 Z M70.075,113.9598 C70.722,114.6808 71.199,115.2878 71.752,115.8148 C74.526,118.4558 77.314,121.0828 80.108,123.7028 C85.233,128.5078 90.363,133.3058 95.494,138.1038 C97.063,139.5708 97.313,139.6718 98.929,138.3528 C102.821,135.1748 106.664,131.9348 110.472,128.6568 C112.768,126.6788 114.974,124.5948 117.198,122.5328 C119.832,120.0928 122.445,117.6298 125.051,115.1598 C125.194,115.0248 125.195,114.7388 125.277,114.4728 C125.05,114.3368 124.864,114.1348 124.662,114.1188 C122.039,113.9148 119.414,113.7228 116.788,113.5568 C113.603,113.3558 110.384,113.4068 107.239,112.9448 C102.491,112.2478 97.828,112.9458 93.177,113.4688 C85.784,114.2998 78.427,115.2548 71.013,113.7868 C70.813,113.7468 70.583,113.8608 70.075,113.9598 L70.075,113.9598 Z M99.676,141.4628 C100.182,142.0738 100.466,142.5618 100.877,142.8888 C105.75,146.7628 110.626,150.6328 115.54,154.4548 C117.115,155.6798 118.78,156.7938 120.445,157.8968 C121.897,158.8578 122.729,160.0628 122.532,161.8838 C122.455,162.5908 122.489,163.3318 122.614,164.0328 C122.806,165.1088 124.414,165.9078 124.951,165.1208 C125.957,163.6488 127.048,164.3528 128.033,164.6458 C131.213,165.5938 134.452,165.8808 137.737,165.7808 C138.516,165.7568 139.358,165.6248 140.051,165.2928 C143.285,163.7438 146.611,162.3248 149.657,160.4558 C155.782,156.6988 161.837,152.8098 167.751,148.7288 C173.603,144.6898 179.116,140.1848 184.143,135.1348 C186.508,132.7608 188.863,130.3568 191.001,127.7828 C194.109,124.0418 197.2,120.2628 199.969,116.2728 C204.877,109.1968 206.001,101.2708 204.416,92.9128 C203.86,89.9768 202.928,87.0748 200.673,85.0188 C197.314,81.9528 193.817,78.9928 189.619,77.0868 C186.427,75.6378 182.928,75.4588 179.794,76.6818 C175.574,78.3268 171.508,80.4758 167.593,82.7768 C159.428,87.5768 152.36,93.8458 145.326,100.1208 C141.158,103.8398 137.09,107.6708 133.008,111.4848 C127.408,116.7168 121.874,122.0208 116.24,127.2148 C112.897,130.2958 109.432,133.2468 105.99,136.2188 C103.954,137.9758 101.853,139.6578 99.676,141.4628 L99.676,141.4628 Z M119.777,171.5508 C119.724,171.5488 119.671,171.5458 119.618,171.5438 C119.618,168.6658 119.572,165.7868 119.637,162.9098 C119.672,161.4038 119.164,160.3458 117.87,159.5158 C116.124,158.3938 114.44,157.1648 112.795,155.8978 C105.959,150.6348 99.145,145.3538 92.871,139.4018 C87.66,134.4578 82.242,129.7338 76.967,124.8558 C71.69,119.9768 66.551,114.9468 61.213,110.1368 C57.241,106.5598 53.136,103.1158 48.931,99.8158 C43.583,95.6168 38.052,91.6508 31.795,88.8578 C25.817,86.1898 20.011,86.2248 14.545,90.1928 C12.606,91.5998 10.692,93.0488 8.838,94.5668 C6.229,96.7018 4.423,99.3718 3.671,102.7148 C2.675,107.1428 2.716,111.6148 3.304,116.0578 C3.758,119.4808 5.017,122.6648 6.835,125.6628 C9.496,130.0538 12.525,134.1258 15.978,137.9348 C21.137,143.6258 26.427,149.1878 32.48,153.9208 C37.258,157.6578 42.241,161.1428 47.243,164.5798 C53.108,168.6098 59.151,172.3458 65.539,175.5378 C71.414,178.4758 77.373,181.1418 83.621,183.1898 C87.96,184.6108 92.286,186.0268 96.811,186.7268 C100.286,187.2648 103.757,187.8348 107.243,188.2878 C110.409,188.6988 113.587,189.0598 116.772,189.2718 C118.683,189.3998 119.033,188.9648 119.117,187.0998 C119.353,181.9168 119.559,176.7348 119.777,171.5508 L119.777,171.5508 Z M155.331,45.3268 C153.686,45.6298 152.449,46.0258 151.204,46.0528 C148.65,46.1108 146.092,45.9328 143.536,45.9198 C138.258,45.8958 132.979,45.9438 127.701,45.9058 C125.618,45.8908 124.983,45.3728 124.951,43.4348 C124.88,39.0408 124.902,34.6448 124.977,30.2508 C125.044,26.3438 125.248,22.4388 125.361,18.5318 C125.389,17.5698 125.38,16.6008 124.163,16.2038 C122.77,15.7488 122.037,15.9588 120.969,17.0698 C119.868,18.2128 118.791,19.4268 117.512,20.3418 C114.386,22.5768 110.843,24.0138 106.984,23.6908 C101.777,23.2538 97.021,21.4028 93.138,17.7508 C92.042,16.7198 90.999,16.6438 89.657,17.2188 C87.383,18.1958 85.061,19.0718 82.728,19.8988 C76.248,22.1978 69.737,24.4058 63.272,26.7418 C60.949,27.5808 58.676,28.5668 57.024,30.5968 C56.234,31.5688 55.169,32.3128 54.26,33.1908 C52.831,34.5698 51.04,35.7518 50.086,37.4098 C47.137,42.5368 44.602,47.8968 42.854,53.5698 C40.221,62.1168 37.664,70.6888 35.109,79.2588 C34.608,80.9408 34.234,82.6608 33.852,84.3738 C33.537,85.7928 34.012,86.8178 35.366,87.5248 C36.847,88.2988 38.236,89.2488 39.672,90.1108 C46.407,94.1518 52.58,98.9508 58.548,104.0318 C59.672,104.9888 60.865,105.8638 62.306,106.9958 C62.559,105.3688 62.857,104.1298 62.928,102.8788 C63.335,95.7628 64.728,88.7968 65.937,81.7948 C66.535,78.3278 67.92,74.8168 66.406,71.2238 C66.346,71.0838 66.37,70.9078 66.368,70.7478 C66.35,69.3688 66.87,68.4538 67.847,68.3318 C69.393,68.1408 68.954,69.5468 69.35,70.3518 C69.574,70.2308 69.766,70.1078 69.973,70.0178 C71.36,69.4158 72.21,69.9368 71.985,71.3658 C71.867,72.1168 71.525,72.9388 71.027,73.4998 C70.123,74.5188 69.777,75.6578 69.573,76.9558 C69.101,79.9518 68.444,82.9208 68.002,85.9218 C67.096,92.0778 66.258,98.2458 65.457,104.4178 C65.337,105.3458 65.526,106.3248 65.648,107.2708 C65.814,108.5688 66.498,109.5478 67.793,109.8838 C70.181,110.5048 72.572,111.3898 74.999,111.5348 C81.872,111.9488 88.705,111.2678 95.554,110.5298 C100.451,110.0008 105.458,110.0988 110.39,110.3738 C116.129,110.6958 121.85,111.2728 127.611,111.1458 C128.889,111.1168 129.9,110.7008 130.82,109.8078 C132.308,108.3648 134.002,107.1198 135.4,105.5988 C137.831,102.9528 141.342,101.1158 141.873,96.9848 C142.005,95.9538 142.888,95.6078 143.891,96.2638 C144.143,96.4288 144.418,96.5568 144.735,96.7308 C146.883,94.9458 148.959,93.2028 151.054,91.4848 C152.721,90.1158 154.394,88.7538 156.096,87.4318 C157.13,86.6298 157.665,85.6388 157.535,84.3308 C157.315,82.1128 157.123,79.8898 156.838,77.6798 C156.224,72.9178 156.421,68.2888 158.629,63.8828 C158.991,63.1608 159.145,62.1798 159.005,61.3868 C158.254,57.1418 157.417,52.9098 156.524,48.6918 C156.281,47.5458 155.742,46.4638 155.331,45.3268 L155.331,45.3268 Z M30.676,85.3708 C33.497,75.7048 36.274,66.3018 38.981,56.8788 C41.065,49.6278 43.715,42.6158 47.708,36.1878 C48.659,34.6558 50,33.3398 51.278,32.0388 C52.557,30.7358 54.033,29.6278 55.328,28.3388 C57.124,26.5498 59.227,25.2638 61.576,24.4148 C65.862,22.8658 70.199,21.4588 74.487,19.9148 C79.598,18.0758 84.726,16.2678 89.75,14.2108 C91.603,13.4518 92.88,13.5568 94.222,14.9868 C97.297,18.2598 101.162,20.0568 105.569,20.6758 C110.734,21.4018 114.95,19.5148 118.439,15.7838 C118.657,15.5508 118.867,15.3018 119.033,15.0328 C119.97,13.5158 121.239,12.9038 123.074,13.1298 C124.93,13.3608 125.122,13.0878 125.38,11.2738 C125.816,8.2068 126.53,7.5898 129.55,6.9788 C134.11,6.0568 138.672,5.4048 143.348,5.5678 C145.457,5.6408 147.496,5.7738 149.385,6.7988 C150.304,7.2978 151.105,7.4018 151.97,6.5408 C155.173,3.3558 159.255,2.0278 163.581,1.3458 C166.183,0.9368 168.815,0.7118 171.433,0.4058 C171.592,0.3868 171.752,0.3718 171.911,0.3598 C175.432,0.0738 175.827,0.3958 175.78,3.9058 C175.643,14.2078 175.611,24.5148 175.256,34.8108 C175.023,41.5628 174.301,48.2968 174.349,55.0648 C174.354,55.7828 174.353,56.5048 174.411,57.2198 C174.506,58.3788 175.009,59.2378 175.933,60.0588 C176.907,60.9238 177.732,62.1008 178.253,63.3008 C179.396,65.9358 180.365,68.6528 181.287,71.3748 C181.702,72.6038 182.308,73.2868 183.664,73.2378 C188.957,73.0398 193.184,75.5508 197.183,78.6158 C198.07,79.2948 198.888,80.0768 199.82,80.6878 C203.882,83.3528 206.071,87.2378 207.066,91.8518 C208.627,99.0878 208.037,106.1578 204.985,112.9338 C203.037,117.2578 200.241,121.0638 197.355,124.8058 C192.994,130.4598 188.009,135.5588 182.721,140.2958 C177.974,144.5488 172.854,148.4198 167.667,152.1368 C162.799,155.6248 157.627,158.6878 152.592,161.9418 C152.078,162.2738 151.579,162.6278 151.232,163.3888 C154.441,162.9078 157.658,162.4808 160.854,161.9328 C164.533,161.3028 165.662,162.1928 165.703,165.9928 C165.732,168.7098 165.658,171.4298 165.729,174.1458 C165.814,177.4138 166.151,180.6818 166.105,183.9468 C166.059,187.2068 165.833,190.4858 165.39,193.7158 C165.027,196.3698 163.965,197.1018 161.268,196.9898 C156.355,196.7828 151.637,195.6598 147.039,193.9058 C144.281,192.8528 141.438,192.0138 138.613,191.1428 C137.946,190.9368 137.197,190.9108 136.491,190.9358 C134.498,191.0038 132.509,191.1598 130.516,191.2488 C126.53,191.4258 122.543,191.5818 118.556,191.7448 C113.248,191.9618 108.047,191.0388 102.83,190.2798 C96.58,189.3668 90.299,188.6008 84.351,186.2968 C79.806,184.5348 75.255,182.7858 70.739,180.9518 C69.644,180.5078 68.627,180.2818 67.499,180.6578 C64.545,181.6408 61.538,182.4898 58.644,183.6268 C54.785,185.1458 50.75,185.6378 46.691,185.9348 C43.842,186.1428 42.735,185.1758 42.388,182.2898 C42.056,179.5258 41.964,176.7268 41.872,173.9398 C41.791,171.4638 41.828,168.9838 41.866,166.5068 C41.887,165.1118 41.367,164.1308 40.22,163.2728 C36.257,160.3058 32.312,157.3068 28.464,154.1928 C24.368,150.8758 20.39,147.4328 17.065,143.2828 C14.272,139.7978 11.135,136.5838 8.421,133.0428 C4.506,127.9328 1.134,122.4508 0.372,115.8828 C-0.274,110.3038 -0.249,104.7268 1.837,99.3418 C2.789,96.8828 4.288,94.8298 6.264,93.1798 C8.592,91.2368 11.04,89.4298 13.514,87.6718 C18.085,84.4238 23.123,83.5218 28.567,84.9198 C29.311,85.1118 30.071,85.2428 30.676,85.3708 L30.676,85.3708 Z" id="Fill-1"/></g><path d="M141.6517,86.4847 C141.6687,86.4847 141.6857,86.4857 141.7027,86.4857 C141.7027,87.1257 141.7007,87.7647 141.7027,88.4047 C141.7077,89.9227 141.6857,91.4417 141.7317,92.9597 C141.7597,93.8627 141.9087,94.8567 143.0867,94.848748 C144.2247,94.8417 144.4187,93.8567 144.5187,92.9637 C144.5987,92.2517 144.5867,91.5277 144.5877,90.8087 C144.5957,84.6547 144.5687,78.5007 144.6167,72.3457 C144.6347,69.9677 144.2957,67.5577 145.2357,65.2337 C145.5997,64.3337 145.1607,63.6677 144.0977,63.6197 C143.1457,63.5767 142.1897,63.5057 141.2397,63.5457 C140.3507,63.5827 139.9237,64.1107 140.1847,65.0027 C140.3167,65.4547 140.4897,65.9687 140.8147,66.2787 C142.1837,67.5857 142.2327,69.2207 142.1707,70.9317 C141.9827,76.1157 141.8227,81.2997 141.6517,86.4847 M155.3307,46.0477 C155.7427,47.1847 156.2807,48.2667 156.5237,49.4127 C157.4167,53.6307 158.2547,57.8627 159.0047,62.1077 C159.1447,62.9007 158.9917,63.8817 158.6297,64.6037 C156.4217,69.0097 156.2237,73.6387 156.8387,78.4007 C157.1227,80.6107 157.3157,82.8337 157.5357,85.0517 C157.6647,86.3597 157.1297,87.3507 156.0967,88.1527 C154.3937,89.4747 152.7207,90.8377 151.0537,92.2057 C148.9587,93.9237 146.8827,95.6667 144.7347,97.4517 C144.4187,97.2777 144.1427,97.1497 143.8917,96.9847 C142.8887,96.3287 142.0057,96.6747 141.8727,97.7057 C141.3417,101.8377 137.8317,103.6737 135.4007,106.3197 C134.0027,107.8407 132.3087,109.0857 130.8197,110.5287 C129.8997,111.4217 128.8897,111.8387 127.6107,111.8667 C121.8507,111.9937 116.1297,111.4167 110.3897,111.0947 C105.4577,110.8197 100.4517,110.7217 95.5537,111.2507 C88.7057,111.9887 81.8717,112.6697 74.9987,112.2557 C72.5717,112.1107 70.1807,111.2257 67.7927,110.6047 C66.4987,110.2687 65.8147,109.2897 65.6477,107.9917 C65.5267,107.0467 65.3367,106.0667 65.4567,105.1387 C66.2577,98.9667 67.0957,92.7987 68.0027,86.6427 C68.4437,83.6417 69.1017,80.6727 69.5727,77.6767 C69.7777,76.3797 70.1227,75.2397 71.0267,74.2207 C71.5257,73.6597 71.8677,72.8387 71.9857,72.0877 C72.2097,70.6577 71.3597,70.1367 69.9727,70.7387 C69.7667,70.8287 69.5737,70.9517 69.3497,71.0727 C68.9547,70.2677 69.3937,68.8617 67.8477,69.0527 C66.8697,69.1747 66.3497,70.0897 66.3687,71.4687 C66.3707,71.6287 66.3467,71.8047 66.4057,71.9447 C67.9207,75.5377 66.5357,79.0487 65.9367,82.5157 C64.7277,89.5177 63.3357,96.4837 62.9287,103.5997 C62.8577,104.8507 62.5587,106.0897 62.3057,107.7167 C60.8647,106.5847 59.6727,105.7097 58.5477,104.7527 C52.5797,99.6727 46.4067,94.8727 39.6717,90.8317 C38.2357,89.9697 36.8477,89.0197 35.3657,88.2457 C34.0117,87.5387 33.5367,86.5137 33.8527,85.0947 C34.2347,83.3817 34.6087,81.6617 35.1097,79.9797 C37.6647,71.4097 40.2207,62.8387 42.8547,54.2907 C44.6027,48.6177 47.1377,43.2577 50.0857,38.1307 C51.0397,36.4727 52.8307,35.2907 54.2597,33.9117 C55.1697,33.0337 56.2347,32.2897 57.0247,31.3177 C58.6757,29.2877 60.9497,28.3017 63.2717,27.4637 C69.7367,25.1267 76.2487,22.9187 82.7277,20.6197 C85.0617,19.7927 87.3827,18.9167 89.6567,17.9397 C90.9997,17.3647 92.0417,17.4407 93.1377,18.4717 C97.0217,22.1237 101.7767,23.9747 106.9847,24.4117 C110.8427,24.7347 114.3857,23.2977 117.5117,21.0627 C118.7917,20.1477 119.8687,18.9337 120.9687,17.7907 C122.0367,16.6797 122.7707,16.4697 124.1637,16.9247 C125.3797,17.3217 125.3887,18.2907 125.3607,19.2527 C125.2477,23.1597 125.0447,27.0647 124.9777,30.9717 C124.9017,35.3657 124.8807,39.7617 124.9517,44.1557 C124.9827,46.0937 125.6177,46.6117 127.7017,46.6267 C132.9797,46.6647 138.2577,46.6167 143.5357,46.6407 C146.0917,46.6537 148.6507,46.8317 151.2037,46.7737 C152.4497,46.7467 153.6867,46.3507 155.3307,46.0477" id="Fill-4" fill="#FFF"/><path d="M119.7772,172.2719 C119.5592,177.4559 119.3532,182.6379 119.1172,187.8209 C119.0332,189.6859 118.6832,190.1209 116.7722,189.9929 C113.5872,189.7809 110.4092,189.4199 107.2432,189.0089 C103.7562,188.5559 100.2862,187.9859 96.8112,187.4479 C92.2862,186.7479 87.9602,185.3319 83.6212,183.9109 C77.3732,181.8629 71.4142,179.1969 65.5392,176.2589 C59.1512,173.0669 53.1082,169.3309 47.2432,165.3009 C42.2412,161.8639 37.2572,158.3789 32.4802,154.6419 C26.4272,149.9089 21.1372,144.3469 15.9782,138.6559 C12.5252,134.8469 9.4962,130.7749 6.8352,126.3839 C5.0172,123.3859 3.7572,120.2019 3.3042,116.7789 C2.7162,112.3349 2.6742,107.8639 3.6712,103.4359 C4.4232,100.0929 6.2292,97.4229 8.8382,95.2879 C10.6922,93.7699 12.6062,92.3209 14.5452,90.9139 C20.0102,86.9459 25.8172,86.9109 31.7952,89.5789 C38.0512,92.3719 43.5832,96.3379 48.9312,100.5369 C53.1352,103.8369 57.2412,107.2809 61.2132,110.8579 C66.5512,115.6679 71.6902,120.6979 76.9672,125.5769 C82.2422,130.4549 87.6602,135.1789 92.8712,140.1229 C99.1452,146.0749 105.9592,151.3559 112.7952,156.6189 C114.4402,157.8859 116.1242,159.1149 117.8702,160.2369 C119.1642,161.0669 119.6722,162.1249 119.6372,163.6309 C119.5722,166.5079 119.6182,169.3869 119.6182,172.2649 C119.6712,172.2669 119.7242,172.2699 119.7772,172.2719" id="Fill-6" fill="#FFF"/><path d="M99.6756,142.184 C101.8536,140.379 103.9536,138.697 105.9896,136.94 C109.4326,133.968 112.8976,131.017 116.2396,127.936 C121.8746,122.742 127.4076,117.438 133.0086,112.205 C137.0906,108.392 141.1576,104.561 145.3266,100.842 C152.3606,94.567 159.4276,88.298 167.5926,83.497 C171.5086,81.197 175.5736,79.048 179.7936,77.403 C182.9286,76.18 186.4266,76.359 189.6186,77.808 C193.8176,79.714 197.3146,82.674 200.6736,85.74 C202.9276,87.796 203.8596,90.698 204.4166,93.634 C206.0016,101.992 204.8776,109.917 199.9686,116.994 C197.1996,120.984 194.1086,124.763 191.0016,128.503 C188.8626,131.078 186.5086,133.482 184.1436,135.856 C179.1156,140.906 173.6036,145.411 167.7506,149.45 C161.8366,153.531 155.7816,157.419 149.6566,161.177 C146.6116,163.046 143.2846,164.465 140.0506,166.014 C139.3576,166.346 138.5166,166.478 137.7376,166.501 C134.4516,166.602 131.2136,166.315 128.0326,165.367 C127.0486,165.074 125.9566,164.37 124.9506,165.842 C124.4146,166.628 122.8056,165.83 122.6136,164.753 C122.4886,164.053 122.4546,163.312 122.5316,162.605 C122.7296,160.784 121.8976,159.579 120.4456,158.618 C118.7796,157.515 117.1146,156.401 115.5396,155.176 C110.6266,151.354 105.7506,147.484 100.8776,143.61 C100.4656,143.283 100.1826,142.794 99.6756,142.184" id="Fill-8" fill="#FFF"/><path d="M70.075,114.681 C70.583,114.581 70.813,114.468 71.013,114.508 C78.427,115.976 85.784,115.021 93.177,114.19 C97.828,113.666 102.492,112.969 107.239,113.665 C110.384,114.127 113.603,114.077 116.788,114.278 C119.414,114.444 122.039,114.636 124.662,114.84 C124.864,114.856 125.05,115.058 125.277,115.194 C125.195,115.459 125.194,115.745 125.051,115.881 C122.445,118.351 119.832,120.814 117.198,123.254 C114.974,125.316 112.768,127.4 110.472,129.377 C106.664,132.656 102.821,135.896 98.929,139.074 C97.313,140.393 97.063,140.291 95.494,138.825 C90.363,134.027 85.233,129.229 80.108,124.424 C77.314,121.804 74.526,119.177 71.752,116.535 C71.199,116.009 70.722,115.402 70.075,114.681" id="Fill-10" fill="#FFF"/><path d="M127.6819,32.2133 C127.8799,25.9953 128.0699,19.7763 128.2799,13.5593 C128.3479,11.5223 128.6549,11.1373 130.6759,11.1663 C134.3439,11.2183 138.0099,11.4153 141.6769,11.5303 C143.5939,11.5913 145.5119,11.6103 147.4289,11.6443 C148.5329,11.6623 149.2949,12.0813 149.3389,13.3013 C149.4979,17.7633 149.7419,22.2243 149.7679,26.6863 C149.7879,30.0293 149.4679,33.3743 149.4069,36.7203 C149.3769,38.3873 149.5479,40.0633 149.7009,41.7273 C149.8829,43.7053 149.5619,44.1793 147.5309,44.2013 C143.0559,44.2493 138.5789,44.2113 134.1039,44.2343 C132.9079,44.2393 131.7099,44.3033 130.5169,44.3973 C128.5439,44.5513 127.8949,44.0753 127.8239,42.0403 C127.7379,39.5673 127.7949,37.0893 127.7909,34.6133 C127.7899,33.8153 127.7909,33.0163 127.7909,32.2173 C127.7549,32.2163 127.7189,32.2143 127.6819,32.2133" id="Fill-12" fill="#FFF"/><path d="M153.012,29.2826 C152.911,28.7066 152.763,28.2476 152.762,27.7886 C152.747,23.3166 152.785,18.8456 152.742,14.3756 C152.729,12.9846 153.277,12.1626 154.569,11.6466 C159.982,9.4846 165.37,7.2616 170.778,5.0886 C171.266,4.8916 171.831,4.8866 172.415,4.7836 C173.16,6.2596 172.848,7.6856 172.763,9.0876 C172.662,10.7566 172.449,12.4236 172.437,14.0926 C172.394,20.2396 172.419,26.3866 172.408,32.5346 C172.407,33.2516 172.461,34.0036 172.262,34.6716 C172.131,35.1106 171.648,35.5806 171.214,35.7396 C170.992,35.8206 170.365,35.3196 170.209,34.9586 C169.768,33.9366 169.445,32.8606 169.133,31.7906 C168.531,29.7226 168.006,27.6346 167.38,25.5746 C166.631,23.1066 165.615,22.4846 162.953,22.7056 C162.558,22.7376 162.239,23.1886 161.848,23.1366 C160.534,22.1506 158.425,22.8136 157.736,24.8096 C157.621,25.1446 157.194,25.3616 156.95,25.6656 C156.318,26.4506 155.609,27.1986 155.117,28.0666 C154.684,28.8346 154.251,29.3716 153.012,29.2826" id="Fill-14" fill="#FFF"/><path d="M160.6175,84.1664 C160.1985,79.5624 158.4815,75.2934 159.5185,70.7624 C159.7485,69.7554 160.0465,68.7604 160.3575,67.7734 C160.7695,66.4704 161.6725,65.5654 162.9315,65.1174 C165.3375,64.2614 167.7275,63.2874 170.2065,62.7334 C173.9405,61.8984 174.8575,62.6484 176.0355,65.8704 C176.9105,68.2664 177.7755,70.6664 178.6795,73.0514 C179.0485,74.0224 178.9455,74.7594 177.9175,75.2114 C172.2845,77.6884 166.8185,80.4784 161.7025,83.9194 C161.5245,84.0394 161.2555,84.0264 160.6175,84.1664" id="Fill-16" fill="#FFF"/><path d="M162.7054,193.5863 C159.8544,192.9543 157.7954,191.6463 155.8814,190.0873 C150.4054,185.6313 148.9854,179.1143 151.2214,173.0363 C152.7534,168.8703 155.9604,166.3083 160.5144,165.7343 C162.2024,165.5233 162.6604,165.9253 162.8054,167.6233 C162.8124,167.7023 162.8114,167.7823 162.8134,167.8623 C162.9734,174.8013 163.1714,181.7383 163.2614,188.6773 C163.2814,190.2263 162.9204,191.7803 162.7054,193.5863" id="Fill-18" fill="#FFF"/><path d="M150.9812,167.4867 C144.6082,178.0047 146.9732,186.7377 156.1562,194.3767 C154.8842,194.0847 153.5842,193.8817 152.3462,193.4827 C148.7032,192.3117 145.0812,191.0747 141.4602,189.8377 C139.9772,189.3307 139.6602,188.7517 139.8622,186.8407 C140.1652,183.9917 140.5282,181.1487 140.8542,178.3017 C141.1532,175.6927 141.4612,173.0857 141.7142,170.4717 C141.8032,169.5477 141.9202,168.6007 142.9432,168.3797 C145.2692,167.8767 147.6222,167.4937 149.9712,167.1047 C150.2252,167.0627 150.5262,167.3067 150.9812,167.4867" id="Fill-20" fill="#FFF"/><path d="M121.8289,188.9984 C122.0219,185.3654 122.2209,182.1994 122.3499,179.0304 C122.4499,176.5644 122.4729,174.0974 122.5089,171.6294 C122.5539,168.6624 122.8319,168.3564 125.8489,168.5134 C127.2769,168.5874 128.6959,168.8374 130.1199,169.0004 C131.0739,169.1084 131.5069,169.6804 131.5689,170.5944 C131.5789,170.7524 131.5979,170.9114 131.5989,171.0704 C131.6089,176.2424 131.6669,181.4154 131.6049,186.5874 C131.5779,188.8274 131.2889,189.0414 129.0739,189.0664 C126.7869,189.0934 124.4989,189.0274 121.8289,188.9984" id="Fill-22" fill="#FFF"/><path d="M167.4978,41.8685 C168.1658,39.3645 161.0298,24.9635 163.9138,24.0905 C165.5958,23.5815 168.0128,36.6385 168.3808,37.7665 C169.1958,40.2595 169.6288,40.6105 172.3958,40.5855 C172.3958,41.8315 172.4468,43.0825 172.3858,44.3275 C172.2618,46.8715 172.0618,49.4115 171.9258,51.9555 C171.8748,52.9205 171.5738,53.7105 170.5868,53.9895 C167.6118,54.8305 164.6238,55.6285 161.7268,56.4195 C160.7628,54.8165 152.2938,31.4335 155.3258,30.2225 C156.9678,29.5645 158.5628,40.5455 159.5018,42.8725 C160.0648,44.6515 160.4408,44.7685 161.2738,46.2895 C161.7078,43.5495 155.4188,27.1325 157.6718,26.5605 C159.6338,26.0645 163.1978,43.1805 164.1498,44.6125 C165.2888,43.7395 164.9768,42.8265 164.7708,42.0515 C163.7678,38.2765 162.7238,34.5135 161.6388,30.7625 C161.2048,29.2595 159.6858,26.5905 159.6898,25.0135 C159.6898,23.8395 160.3468,23.8865 160.8628,24.5905 C161.6198,26.6195 162.6938,30.0965 163.3668,32.1525 C164.2098,34.7285 165.1038,37.1135 165.9308,39.6945 C166.1758,40.4605 166.4588,41.3895 166.8368,42.1115 L167.4978,41.8685 Z" id="Fill-24" fill="#FFF"/><path d="M45.4397,182.5316 C44.6377,180.6046 44.4247,171.5126 45.0127,167.6896 C45.4467,167.8166 45.9097,167.8546 46.2617,168.0706 C48.9117,169.6986 51.5517,171.3426 54.1707,173.0186 C55.8577,174.0976 55.9437,174.5876 54.7117,176.2716 C52.4097,179.4226 49.1477,181.1556 45.4397,182.5316" id="Fill-26" fill="#FFF"/><path d="M134.5848,176.5336 C134.7328,174.7086 134.8858,172.8856 135.0248,171.0596 C135.1068,169.9996 135.6728,169.4776 136.7288,169.479594 C137.6918,169.4816 138.5138,169.7746 138.6858,170.8356 C138.8118,171.6146 138.8618,172.4346 138.7678,173.2156 C138.2198,177.7206 137.6438,182.2226 137.0118,186.7186 C136.9028,187.4886 137.1378,188.8236 135.8828,188.7156 C134.7068,188.6146 135.0428,187.3596 135.0138,186.5476 C134.8908,183.2086 134.8248,179.8676 134.7368,176.5266 C134.6868,176.5286 134.6358,176.5306 134.5848,176.5336" id="Fill-28" fill="#FFF"/><path d="M51.5745,182.7846 C52.4385,182.1346 53.3955,181.5736 54.1465,180.8116 C55.3685,179.5706 56.4915,178.2246 57.5865,176.8686 C58.0765,176.2616 58.5485,175.6836 59.3545,176.1086 C60.9365,176.9416 62.4705,177.8676 63.9925,179.0146 C59.9475,180.7196 56.1075,182.6916 51.7995,183.2236 C51.7245,183.0776 51.6495,182.9306 51.5745,182.7846" id="Fill-30" fill="#FFF"/><path d="M171.033,57.2064 C171.7,59.0184 171.696,59.3174 170.332,59.8114 C167.794,60.7314 165.201,61.5004 162.685,62.3134 C161.52,60.5614 161.511,59.7614 162.784,59.3334 C165.351,58.4714 167.981,57.7984 170.591,57.0634 C170.715,57.0284 170.885,57.1544 171.033,57.2064" id="Fill-32" fill="#FFF"/><path d="M153.3367,36.517 C153.7737,38.166 154.2327,39.812 154.6397,41.469 C154.8087,42.16 154.6297,42.776 153.7987,42.864 C152.8787,42.96 152.8007,42.239 152.7877,41.604 C152.7547,39.955 152.7767,38.306 152.7767,36.657 C152.9627,36.61 153.1497,36.564 153.3367,36.517" id="Fill-34" fill="#FFF"/><path d="M144.845,9.1078 L140.909,9.1078 C140.908,9.0308 140.907,8.9538 140.906,8.8768 L144.902,8.8768 L144.845,9.1078 Z" id="Fill-36" fill="#FFF"/><path d="M141.6517,86.4847 C141.8227,81.2997 141.9827,76.1157 142.1707,70.9317 C142.2327,69.2207 142.1837,67.5857 140.8147,66.2787 C140.4897,65.9687 140.3167,65.4547 140.1847,65.0027 C139.9237,64.1107 140.3507,63.5827 141.2397,63.5457 C142.1897,63.5057 143.1457,63.5767 144.0977,63.6197 C145.1607,63.6677 145.5997,64.3337 145.2357,65.2337 C144.2957,67.5577 144.6347,69.9677 144.6167,72.3457 C144.5687,78.5007 144.5957,84.6547 144.5877,90.8087 C144.5867,91.5277 144.5987,92.2517 144.5187,92.9637 C144.4187,93.8567 144.2247,94.8417 143.0867,94.848748 C141.9087,94.8567 141.7597,93.8627 141.7317,92.9597 C141.6857,91.4417 141.7077,89.9227 141.7027,88.4047 C141.7007,87.7647 141.7027,87.1257 141.7027,86.4857 C141.6857,86.4857 141.6687,86.4847 141.6517,86.4847" id="Fill-38" fill="#000"/></g></g></g><g id="Head" transform="translate(208.000000, 344.000000) scale(1 1)" fill="#000"><g id="Head/Pony Tail 1" stroke="none" stroke-width="1" fill="none" fill-rule="evenodd"><g id="Group-8" transform="translate(-37.000000, -3.000000)" fill="#000"><path d="M28.5361,13.9963 C27.7531,15.7403 27.0531,17.5403 26.5281,19.3763 C25.7631,22.0623 25.2071,24.8073 24.5261,27.5173 C24.2201,28.7413 23.7741,35.2873 17.7681,36.7423 C10.0221,38.6183 4.8211,42.8563 2.6401,47.1573 C2.9021,45.8223 3.4771,44.3183 4.5441,42.6033 C9.3901,34.8153 16.9231,34.0843 20.5441,33.7333 C20.8341,33.7043 21.1021,33.6793 21.3461,33.6513 C23.1671,33.4493 24.0451,28.8603 25.0611,23.5473 C25.9991,18.6493 27.0601,13.0973 29.0381,10.3703 C31.5261,6.9403 36.9181,2.5213 43.9271,1.3543 C45.7701,1.0463 47.4131,1.18258312 48.8371,1.5273 C47.0911,1.4303 45.2621,1.8023 43.4071,2.3013 C36.8171,4.0723 31.4461,7.5203 28.5361,13.9963 M2.8041,58.2363 C2.6991,59.2473 2.3331,60.2373 1.8151,61.2563 C1.4311,62.0153 1.1541,62.9013 1.0171,63.7873 C0.9771,61.2183 1.6351,59.7633 2.8041,58.2363 M55.1881,7.9633 C55.1821,8.0473 55.1681,8.0983 55.1411,8.1053 C53.3311,8.5383 51.7041,9.3233 50.1411,10.2353 C49.2951,10.6223 48.5011,11.1023 47.7921,11.6963 C47.4841,11.8953 47.1781,12.0963 46.8701,12.2953 C46.6271,12.4533 46.2921,12.4673 45.9641,12.5573 C45.1291,11.6553 45.2521,10.8043 46.1711,10.3393 C48.7181,9.0543 51.3141,7.8583 53.9441,6.7533 C54.3311,6.5903 54.8951,7.2013 55.1881,7.9633 M64.9071,7.7143 C62.5571,7.4633 60.1541,7.7263 57.7761,7.6693 C57.0471,7.6523 55.5601,5.6093 54.9581,4.9253 C54.9561,4.9303 54.9551,4.9403 54.9531,4.9473 C54.9071,4.8663 54.8701,4.7833 54.8101,4.7083 L54.9031,4.6253 C54.8911,4.6123 54.5471,4.2443 53.9261,3.7503 C52.8481,2.7123 51.6981,2.0973 50.4941,1.7843 C48.7321,1.0993 46.5011,0.6713 43.8861,1.1073 C36.8021,2.2883 31.3511,6.7553 28.8371,10.2233 C26.8251,12.9963 25.7581,18.5763 24.8151,23.5003 C23.8591,28.4993 22.9561,33.2213 21.3181,33.4033 C21.0761,33.4303 20.8081,33.4563 20.5191,33.4843 C16.8591,33.8393 9.2431,34.5793 4.3331,42.4713 C3.0401,44.5483 2.4601,46.3443 2.2851,47.9023 C1.4561,49.8523 1.2441,51.7883 1.7241,53.4963 C1.9191,54.1863 2.1281,54.8793 2.4031,55.5413 C2.7271,56.3163 2.8551,57.0563 2.8401,57.7823 C1.3881,59.6043 0.5591,61.2613 0.7921,64.6483 C0.8181,65.0443 0.8921,65.4203 0.9981,65.7823 C1.7341,71.7893 6.2711,76.8223 12.5831,78.0123 C23.4441,80.0603 32.2671,76.4853 39.7291,68.2433 C42.4941,65.1883 48.8341,57.8123 45.1511,43.4883 C44.4871,41.0603 43.9821,38.5893 43.4801,36.1163 C43.5451,35.4773 43.6281,34.8413 43.6851,34.2023 C43.9041,31.7373 43.8781,31.6633 41.5081,30.4363 C39.6841,29.4923 38.6281,27.4633 39.2771,25.9133 C39.4991,25.3853 40.0401,24.7333 40.5241,24.6493 C41.4021,24.5073 42.4871,25.7093 43.2531,26.5953 C43.3811,26.7613 43.5011,26.9013 43.6031,26.9983 C43.8061,27.2293 43.9701,27.4043 44.0751,27.4663 C44.3061,27.0063 44.6661,26.5673 44.7421,26.0833 C44.8981,25.0983 45.0281,24.1093 45.1581,23.1203 C45.2751,22.8353 45.3901,22.5513 45.5301,22.2783 C46.6491,20.1013 47.9341,17.9813 49.3941,16.0193 C50.2481,14.8723 51.5891,14.2193 53.2231,14.5923 C56.4011,15.3183 59.4651,15.2503 62.5991,13.9423 C65.4441,12.7543 67.3791,14.0373 68.1751,17.0113 C68.2881,17.4343 68.4171,17.8533 68.5501,18.2723 C68.5221,19.1883 68.4771,20.1033 68.3931,21.0123 C67.7931,27.5433 66.9361,34.0363 63.9881,40.0313 C62.6311,42.7923 61.2081,43.4073 58.1851,42.4753 C55.9621,41.7893 53.8411,40.8813 52.0441,39.3353 C51.5301,38.8933 50.8851,38.1493 50.2381,39.0043 C49.6481,39.7853 50.4031,40.3513 50.9621,40.7643 C51.9221,41.4703 52.9031,42.1783 53.9621,42.7143 C56.6151,44.0583 59.3791,45.0343 62.4031,44.4753 C62.6801,45.2833 62.9121,45.8763 63.0871,46.4853 C64.1441,50.1683 65.1671,53.8613 66.2541,57.5353 C66.5231,58.4473 66.4611,59.6493 68.3561,60.1233 C68.2121,59.0303 68.1981,58.2593 68.0001,57.5393 C66.9011,53.5373 65.7351,49.5543 64.6471,45.5493 C64.4111,44.6763 63.9021,43.8243 64.5391,42.8153 C67.0541,38.8293 68.2511,34.3663 69.1081,29.7873 C70.0551,24.7253 70.6521,19.6283 70.3671,14.4793 C70.8391,10.5453 68.9821,8.1503 64.9071,7.7143" id="Fill-6"/></g></g></g><g id="Face" transform="translate(222.000000, 356.000000) scale(1 1)" fill="#000"><g id="Face/Shiny Eyes" stroke="none" stroke-width="1" fill="none" fill-rule="evenodd"><g id="Group-26" transform="translate(-1.000000, 0.000000)"><polygon id="Fill-1" fill="#000" points="11.3315 5.2702 13.0425 12.0392 10.5475 12.2882"/><polygon id="Stroke-2" stroke="#000" stroke-width=".25" stroke-linejoin="round" points="11.3315 5.2702 13.0425 12.0392 10.5475 12.2882"/><g id="Group-25" transform="translate(0.000000, 0.638800)" fill="#000"><path d="M11.3373,15.9996 C11.2663,15.9996 11.1973,15.9978834 11.1323,15.993592 C9.2943,15.8845899 7.5583,14.3362443 7.1793,12.4677585 C7.1563,12.3561815 7.2433,12.2506125 7.3723,12.2308719 C7.5023,12.212848 7.6243,12.2866604 7.6473,12.3973792 C7.9833,14.0607349 9.5633,15.4923538 11.1653,15.5876234 C12.1113,15.6425536 13.8753,15.270058 15.0443,12.140752 C15.0843,12.0334665 15.2183,11.9751031 15.3433,12.0094345 C15.4683,12.0437659 15.5363,12.1579177 15.4963,12.264345 C14.3043,15.4563058 12.4553,15.9996 11.3373,15.9996" id="Fill-3"/><path d="M5.9848,6.0611 C3.9828,6.0611 2.7328,7.9601 2.0718,9.4061 C5.2708,8.2691 8.3298,8.5031 9.4608,8.6501 C9.0468,7.8691 7.9528,6.1831 6.1978,6.0681 C6.1258,6.0631 6.0548,6.0611 5.9848,6.0611 M1.6338,10.0631 C1.5728,10.0631 1.5118,10.0391 1.4668,9.9941 C1.3998,9.9261 1.3788,9.8261 1.4148,9.7381 C2.0628,8.1151 3.5548,5.4181 6.2288,5.5941 C7.3018,5.6651 8.3128,6.2561 9.1498,7.3041 C9.7708,8.0821 10.0778,8.8321 10.0898,8.8631 C10.1228,8.9441 10.1088,9.0361 10.0538,9.1021 C9.9988,9.1691 9.9118,9.2021 9.8258,9.1851 C9.7858,9.1771 5.7238,8.4351 1.7228,10.0451 C1.6948,10.0571 1.6648,10.0631 1.6338,10.0631" id="Fill-5"/><path d="M14.519,8.1998 C16.242,8.1998 18.264,8.6128 19.086,8.7998 C18.889,8.0188 18.281,6.2088 16.838,5.9868 C15.898,5.8438 15.072,6.0108 14.446,6.4708 C13.9,6.8718 13.521,7.4938 13.34,8.2818 C13.702,8.2238 14.101,8.1998 14.519,8.1998 M19.399,9.3538 C19.379,9.3538 19.36,9.3518 19.341,9.3468 C19.299,9.3368 15.149,8.3098 13.099,8.8138 C13.022,8.8328 12.941,8.8118 12.882,8.7588 C12.824,8.7048 12.795,8.6268 12.808,8.5478 C12.969,7.4718 13.439,6.6218 14.165,6.0878 C14.894,5.5518 15.843,5.3538 16.911,5.5178 C17.823,5.6588 18.584,6.3268 19.114,7.4508 C19.5,8.2728 19.627,9.0468 19.633,9.0788 C19.646,9.1578 19.618,9.2378 19.559,9.2918 C19.515,9.3328 19.457,9.3538 19.399,9.3538" id="Fill-7"/><path d="M13.5209,7.9879 C13.5209,6.9589 14.192426,6.1249 15.0212527,6.1249 C15.849374,6.1249 16.5209,6.9589 16.5209,7.9879 C16.5209,8.2219 16.4799877,8.6169 16.4165031,8.8239 C15.6977164,8.5509 14.1888991,8.2579 13.6055461,8.4809 C13.5533477,8.3119 13.5209,8.1429 13.5209,7.9879" id="Fill-9"/><path d="M2.683,8.3316 C2.683,7.3026 3.57836798,6.4686 4.68252974,6.4686 C5.78763202,6.4686 6.683,7.5366 6.683,8.5656 C5.30326805,8.8716 3.63479873,9.0056 3.00841735,9.2276 C2.82219586,8.9356 2.683,8.6116 2.683,8.3316" id="Fill-13"/><path d="M9.0238,0.5094 C9.0238,0.5094 9.7458,2.4224 9.3998,2.9524 C7.6008,2.8884 2.1548,2.3554 0.1258,5.3534 C0.8028,0.6464 9.0238,0.5094 9.0238,0.5094" id="Fill-17"/><path d="M9.14074793,0.465261785 L9.02171721,0.384417353 L8.73693786,0.395560116 L8.63217441,0.401426074 C8.3242705,0.419658808 7.98137274,0.448942586 7.61217875,0.491750762 C6.55697579,0.614101922 5.50155428,0.82030905 4.51517951,1.13054541 C1.95220381,1.93665713 0.295665767,3.2943339 0.00207319218,5.33560458 C-0.0168163772,5.4669387 0.154951693,5.53334623 0.229320342,5.42346097 C1.08516401,4.15888762 2.62033271,3.44313445 4.68667249,3.15247384 L5.04803151,3.10611698 C6.01016837,2.99462428 6.97020782,2.97865386 8.16335099,3.02262727 L9.3953559,3.07732097 L9.50446988,3.02073166 C9.65953426,2.78320531 9.64918308,2.35519954 9.52576295,1.77234952 C9.4866326,1.58755695 9.43681935,1.39266971 9.37880775,1.19207554 C9.28966952,0.883850873 9.20055501,0.623725689 9.14074793,0.465261785 Z M9.324,2.824 L8.6337865,2.7921279 C7.05058596,2.71845664 5.87881749,2.73232018 4.6518492,2.90491104 L4.33643273,2.95319941 C2.67572832,3.22873155 1.36101341,3.79371357 0.4749417,4.72222324 L0.363,4.845 L0.389605555,4.75273013 C0.889138585,3.16465993 2.38467182,2.06271045 4.5901874,1.36902773 C5.55992613,1.06402377 6.60034049,0.860748719 7.64097342,0.74008696 C8.00532198,0.697840613 8.34357088,0.668953851 8.64695244,0.650988911 L8.937,0.636 L9.03605268,0.926267599 C9.0689988,1.0281981 9.10382583,1.14111642 9.13864906,1.26152916 C9.19507361,1.45663556 9.24341348,1.6457584 9.28118614,1.82413935 L9.31396708,1.99145071 C9.38169937,2.3695993 9.38782718,2.66010629 9.324,2.824 Z" id="Stroke-19" fill-rule="nonzero"/><path d="M12.4203695,2.9695 C13.9149985,2.7635 18.4181114,1.8025 20.3081316,4.6315 C19.432921,-0.0085 12.5733433,0.5025 12.5733433,0.5025 C12.5733433,0.5025 12.0977036,2.4675 12.4203695,2.9695 Z" id="Fill-21"/><path d="M12.7264382,0.369278924 L12.5640572,0.377845401 L12.4518518,0.473092271 L12.3769145,0.81393341 C12.3578815,0.907611827 12.3377913,1.01183026 12.3177033,1.12375413 C12.2770089,1.35049152 12.243661,1.5714067 12.2202144,1.77985423 C12.1527324,2.37978799 12.1705391,2.81199839 12.3152176,3.03708754 L12.4374365,3.09332939 L13.4060397,2.94893571 C14.586362,2.78169478 15.569867,2.72205416 16.5317528,2.81115922 C18.1804175,2.96388458 19.4372234,3.5529317 20.2041935,4.70093975 C20.2797962,4.81410257 20.4561912,4.74206648 20.4309655,4.60833069 C20.0606447,2.64504447 18.6415841,1.42648857 16.5215016,0.807760443 C15.2181274,0.427381714 13.8603989,0.323143983 12.7264382,0.369278924 Z M16.7026252,1.12503704 C18.3526826,1.65988019 19.5126702,2.5879002 20.0079032,3.99095403 L20.038,4.085 L19.962679,4.00151283 C19.1446048,3.14826806 17.9856766,2.69477422 16.554813,2.56222503 C15.6929269,2.48238352 14.8188659,2.51887398 13.8113059,2.64295273 L13.1158984,2.73897054 L12.492,2.832 L12.4704653,2.76251788 C12.4207277,2.56110536 12.4213658,2.22814843 12.4686477,1.80779859 C12.4914305,1.60525338 12.5239819,1.38961387 12.5637715,1.16791804 L12.5931778,1.0093664 C12.6223168,0.857214861 12.6502556,0.725341571 12.673,0.622 L12.736601,0.619072275 C13.8458325,0.573943433 15.1785532,0.676261219 16.4514629,1.04774916 L16.7026252,1.12503704 Z" id="Stroke-23" fill-rule="nonzero"/></g></g><circle id="Oval" fill="#FFF" cx="4.5" cy="7.5" r="1"/><circle id="Oval-Copy-2" fill="#FFF" cx="15.5" cy="7.5" r="1"/><circle id="Oval-Copy" fill="#FFF" cx="16.5" cy="7.5" r="1"/></g></g><g id="Glasses" transform="translate(219.000000, 361.000000) scale(1 1)"><g id="Glasses/None" stroke="none" stroke-width="1" fill="none" fill-rule="evenodd" fill-opacity="0"/></g></g></g><g id="Spot-1" transform="translate(605.000000, 268.000000)" fill="#CEC6DD"><path d="M58.5058548,68.4767238 C58.1808548,70.8887238 57.9688548,73.3237238 57.4938548,75.7057238 C57.1078548,77.6517238 55.3398548,79.1697238 53.6878548,79.1357238 C51.8748548,79.0977238 50.5128548,78.0767238 49.9538548,76.4267238 C48.9768548,73.5407238 47.9778548,70.6207238 47.4668548,67.6317238 C46.7648548,63.5227238 46.4688548,59.3417238 46.0738548,55.1847238 C45.7728548,52.0167238 46.3598548,50.8957238 48.4278548,50.2447238 C50.7258548,49.5207238 53.0918548,50.4337238 54.5048548,52.5787238 C57.0618548,56.4617238 57.7918548,60.8807238 58.2278548,65.3767238 C58.3258548,66.3867238 58.2418548,67.4147238 58.2418548,68.4347238 C58.3298548,68.4487238 58.4178548,68.4627238 58.5058548,68.4767238" id="Fill-39-Copy" style="mix-blend-mode:multiply"/><path d="M10,26.1444713 C10.979,20.1003982 12.517,14.2619714 14.494,8.500662 C15.297,6.16384534 17.928,5.26574942 19.718,6.66751809 C20.42,7.21778259 20.865,8.24119422 20.875,9.05413972 C20.907,11.5845531 20.876,14.137459 20.5,16.6453798 C19.929,20.4586726 19.114,24.2518827 18.272,28.0354532 C17.765,30.3192517 16.385,31.0430302 13.69,30.9980451 C12.36,30.9763559 11.53,30.6052286 11.163,29.6211789 C10.735,28.4716483 10.385,27.3036416 10,26.1444713" id="Fill-41-Copy" style="mix-blend-mode:multiply"/><path d="M33.5117057,91.256 C31.0017057,90.891 30.1587057,89.231 29.6837057,87.23 C28.7947057,83.494 28.8527057,79.727 29.4007057,75.965 C29.9557057,72.147 30.5877057,68.338 31.2737057,64.541 C31.4117057,63.775 31.9407057,63.078 32.4557057,62 C33.6637057,62.168 35.1787057,61.956 36.0947057,62.598 C37.8237057,63.812 39.5307057,65.415 39.5137057,67.779 C39.4927057,70.622 39.3237057,73.487 38.9177057,76.299 C38.4237057,79.729 37.5007057,83.096 36.9897057,86.524 C36.6537057,88.771 35.6467057,90.315 33.5117057,91.256" id="Fill-43-Copy" style="mix-blend-mode:multiply"/><path d="M38.0080733,8.55500696 C37.9560733,6.23600696 38.1120733,4.67100696 39.7780733,3.65300696 C41.4470733,2.63100696 43.1110733,2.73600696 43.9270733,4.48700696 C46.6100733,10.242007 49.1720733,16.078007 47.5250733,22.704007 C47.0720733,24.527007 46.3580733,26.164007 44.3830733,26.892007 C42.2350733,27.684007 39.9310733,26.562007 39.3850733,24.365007 C39.2630733,23.873007 39.2470733,23.354007 39.2040733,22.845007 C38.8200733,18.277007 38.4430733,13.707007 38.0620733,9.13800696 C38.0280733,8.73200696 37.9870733,8.32600696 38.0080733,8.55500696" id="Fill-45-Copy" style="mix-blend-mode:multiply"/><path d="M63.8809086,31.554071 C63.8809086,33.6478681 63.8869086,35.7416652 63.8749086,37.8354623 C63.8729086,38.1687539 63.8559086,38.5152451 63.7439086,38.8303872 C63.3459086,39.9581337 62.4959086,40.8466362 61.0669086,40.9852327 C59.7069086,41.1172294 58.6919086,40.3475238 58.3129086,39.3492991 C57.7109086,37.7645141 56.9469086,36.1030061 57.0029086,34.4909968 C57.1309086,30.7356917 57.6549086,26.9869864 58.1299086,23.244881 C58.2799086,22.0602109 59.7399086,21.0537363 60.9559086,21.0017626 C62.1169086,20.9514389 63.5539086,21.9851378 63.6939086,23.2754052 C63.9909086,26.0250607 64.1059086,28.7879159 64.2959086,31.5466462 C64.1569086,31.5491211 64.0199086,31.5515961 63.8809086,31.554071" id="Fill-47-Copy" style="mix-blend-mode:multiply"/><path d="M22.8819497,53.9095905 C22.8819497,55.5195905 22.9339497,56.6465905 22.8649497,57.7645905 C22.8159497,58.5715905 22.7199497,59.4085905 22.4449497,60.1585905 C21.9379497,61.5455905 20.7459497,62.0885905 19.3669497,62.3615905 C17.9199497,62.6495905 16.9969497,61.9335905 16.3369497,60.8145905 C15.9329497,60.1285905 15.5649497,59.3575905 15.4349497,58.5825905 C14.7719497,54.6115905 14.8199497,50.6485905 15.9059497,46.7475905 C16.3569497,45.1315905 17.7789497,43.8325905 19.1189497,44.0175905 C20.6379497,44.2265905 21.6629497,45.1735905 21.8819497,46.8245905 C22.2149497,49.3435905 22.5909497,51.8565905 22.8819497,53.9095905" id="Fill-59-Copy" style="mix-blend-mode:multiply"/><path d="M38.1929417,38.5798894 C38.0369417,39.2399046 37.8529417,39.965703 37.6969417,40.6924367 C37.5909417,41.1809789 36.7289417,41.4727947 35.2219417,41.4977363 C33.7669417,41.5217425 33.0139417,41.1728729 32.7309417,40.7890851 C32.3459417,40.2674955 31.9789417,39.7278232 32.0009417,39.1971922 C32.0399417,38.2475436 32.3209417,37.2969597 32.6029417,36.3494934 C32.7749417,35.7717853 33.7109417,35.4868284 35.2579417,35.4992992 C36.9419417,35.5127052 37.4549417,35.8989871 37.6009417,36.3314108 C37.8469417,37.0547151 37.9889417,37.7820724 38.1929417,38.5798894" id="Fill-63-Copy-9" style="mix-blend-mode:multiply"/><path d="M63.1929417,3.08098249 C63.0369417,3.74099763 62.8529417,4.46679605 62.6969417,5.19352978 C62.5909417,5.68207192 61.7289417,5.97388778 60.2219417,5.99882931 C58.7669417,6.02283553 58.0139417,5.67396593 57.7309417,5.29017819 C57.3459417,4.76858852 56.9789417,4.22891624 57.0009417,3.69828527 C57.0399417,2.74863665 57.3209417,1.79805272 57.6029417,0.850586487 C57.7749417,0.272878382 58.7109417,-0.0120785577 60.2579417,0.000392205465 C61.9419417,0.0137982759 62.4549417,0.400080166 62.6009417,0.832503881 C62.8469417,1.55580815 62.9889417,2.28316541 63.1929417,3.08098249" id="Fill-63-Copy-10" style="mix-blend-mode:multiply"/><path d="M6.19294173,41.0809825 C6.03694173,41.7409976 5.85294173,42.466796 5.69694173,43.1935298 C5.59094173,43.6820719 4.72894173,43.9738878 3.22194173,43.9988293 C1.76694173,44.0228355 1.01394173,43.6739659 0.730941725,43.2901782 C0.345941725,42.7685885 -0.0210582748,42.2289162 0.000941725223,41.6982853 C0.0399417252,40.7486366 0.320941725,39.7980527 0.602941725,38.8505865 C0.774941725,38.2728784 1.71094173,37.9879214 3.25794173,38.0003922 C4.94194173,38.0137983 5.45494173,38.4000802 5.60094173,38.8325039 C5.84694173,39.5558081 5.98894173,40.2831654 6.19294173,41.0809825" id="Fill-63-Copy-11" style="mix-blend-mode:multiply"/><path d="M49,89.5404912 C48.9244301,89.8704988 48.8352964,90.233398 48.7597265,90.5967649 C48.7083777,90.841036 48.2908055,90.9869439 47.5607809,90.9994147 C46.8559462,91.0114178 46.4911761,90.836983 46.3540846,90.6450891 C46.1675819,90.3842943 45.9897989,90.1144581 46.0004562,89.8491426 C46.0193487,89.3743183 46.1554714,88.8990264 46.2920785,88.4252932 C46.3753992,88.1364392 46.8288186,87.9939607 47.5782201,88.0001961 C48.3939875,88.0068991 48.6424962,88.2000401 48.7132219,88.4162519 C48.8323898,88.7779041 48.9011778,89.1415827 49,89.5404912" id="Fill-63-Copy-12" style="mix-blend-mode:multiply"/></g></g></svg>